<svg xmlns="http://www.w3.org/2000/svg" xmlns:xlink="http://www.w3.org/1999/xlink" viewBox="0 0 718.05 500"><defs><style>.cls-1{fill:none;}.cls-2{fill:#c8baae;}.cls-3{fill:#dbccc1;}.cls-4{fill:#5a554d;}.cls-5{fill:#171612;}.cls-6{fill:#b1614f;}.cls-7{fill:#632829;}.cls-8{fill:#e59f3f;}.cls-9{fill:#fff;}.cls-10{fill:#314fa5;}.cls-11{fill:#5880eb;}.cls-12{fill:#1c2b74;}.cls-13{fill:#efc489;}.cls-14{fill:#b56d25;}.cls-15{fill:#539380;}.cls-16{fill:#365f54;}.cls-17{fill:#6fc3b1;}.cls-18{fill:#c04d3a;}.cls-19{fill:#7e231a;}.cls-20{fill:#cabeb0;}.cls-21{fill:#e9ebf4;}.cls-22{fill:#f2eae1;}.cls-23{clip-path:url(#clip-path);}.cls-24{fill:#ea9b7a;}.cls-25{fill:#d96c63;}.cls-26{fill:#39393b;}.cls-27{fill:#585859;}.cls-28{fill:#c77e2e;}.cls-29{fill:#4e4e4f;}.cls-30{fill:#4ba47b;}.cls-31{fill:#263a6e;}.cls-32{fill:#333e6e;}.cls-33{fill:#9bc9b5;}.cls-34{fill:#fefefe;}.cls-35{fill:#fbfcfc;}.cls-36{fill:#fcfdfd;}.cls-37{fill:#fcfcfc;}.cls-38{fill:#fcfdfc;}.cls-39{fill:#0b1648;}.cls-40{fill:#0f1a40;}.cls-41{fill:#0c174c;}.cls-42{fill:#0f1941;}.cls-43{fill:#081544;}.cls-44{fill:#0e1a3e;}.cls-45{fill:#040f38;}.cls-46{fill:#05113c;}.cls-47{fill:#07113c;}.cls-48{fill:#040f37;}.cls-49{fill:#4aa0d9;}.cls-50{fill:#499fd9;}.cls-51{fill:#499fd8;}.cls-52{fill:#499ed9;}</style><clipPath id="clip-path"><path class="cls-1" d="M410.82,227.77c-1.14,3.5-1.14,4.11-1.14,3.5l0-100.06c0-.61,0-.52,0-73h225l0,169.52Z"/></clipPath></defs><g id="OBJECTS"><path class="cls-2" d="M649.12,228.38a.45.45,0,0,1-.31-.11.49.49,0,0,1-.06-.69c.61-.71,1.2-1.44,1.76-2.17a.48.48,0,0,1,.68-.1.5.5,0,0,1,.09.69c-.57.74-1.17,1.49-1.79,2.21A.45.45,0,0,1,649.12,228.38Zm3.87-5.17a.5.5,0,0,1-.26-.08.49.49,0,0,1-.14-.68c.52-.8,1-1.63,1.5-2.46a.48.48,0,0,1,.66-.19.5.5,0,0,1,.18.67c-.48.84-1,1.69-1.53,2.51A.48.48,0,0,1,653,223.21Zm3.19-5.74a.45.45,0,0,1-.2,0,.49.49,0,0,1-.24-.65c.41-.87.79-1.76,1.14-2.65a.49.49,0,0,1,.91.35c-.36.92-.75,1.83-1.17,2.71A.48.48,0,0,1,656.18,217.47Zm2.36-6.12-.14,0a.5.5,0,0,1-.33-.61c.28-.92.54-1.85.77-2.79a.47.47,0,0,1,.58-.35.47.47,0,0,1,.36.58c-.23,1-.49,1.91-.78,2.84A.48.48,0,0,1,658.54,211.35ZM660,205H660a.48.48,0,0,1-.4-.56c.15-.94.28-1.91.39-2.87a.48.48,0,1,1,1,.11c-.1,1-.24,2-.39,2.92A.49.49,0,0,1,660,205Zm.66-6.52h0a.49.49,0,0,1-.46-.51c0-.8,0-1.61,0-2.41V195a.48.48,0,0,1,.48-.49h0a.48.48,0,0,1,.49.48v.49c0,.81,0,1.64,0,2.45A.49.49,0,0,1,660.7,198.44Zm-.09-6.57a.48.48,0,0,1-.48-.45c-.06-.95-.15-1.92-.26-2.89a.49.49,0,0,1,1-.1c.11,1,.2,2,.26,2.93a.47.47,0,0,1-.45.51Zm-.75-6.52a.48.48,0,0,1-.48-.41c-.16-.94-.33-1.9-.53-2.85a.49.49,0,0,1,.38-.57.48.48,0,0,1,.58.38c.19,1,.37,1.93.53,2.89a.5.5,0,0,1-.4.56Zm-1.34-6.43a.5.5,0,0,1-.47-.37c-.23-.93-.48-1.87-.75-2.8a.48.48,0,1,1,.93-.27c.27.94.53,1.9.77,2.83a.49.49,0,0,1-.36.59Zm-1.83-6.31a.49.49,0,0,1-.46-.33c-.3-.91-.62-1.84-1-2.75a.49.49,0,0,1,.29-.62.47.47,0,0,1,.62.29c.34.92.66,1.86,1,2.77a.48.48,0,0,1-.31.62Zm-2.26-6.17a.49.49,0,0,1-.45-.31c-.36-.89-.74-1.79-1.13-2.68a.49.49,0,0,1,.9-.39c.39.9.77,1.81,1.13,2.71a.48.48,0,0,1-.27.63A.39.39,0,0,1,654.43,166.44Zm-2.64-6a.47.47,0,0,1-.44-.28c-.42-.87-.85-1.75-1.28-2.61a.48.48,0,1,1,.86-.44c.44.87.88,1.75,1.3,2.64a.48.48,0,0,1-.23.64A.41.41,0,0,1,651.79,160.42Zm-3-5.86a.5.5,0,0,1-.43-.25c-.47-.85-1-1.71-1.43-2.53a.49.49,0,1,1,.84-.49c.49.83,1,1.69,1.44,2.55a.49.49,0,0,1-.19.67A.46.46,0,0,1,648.8,154.56Zm-3.33-5.67a.49.49,0,0,1-.41-.22c-1-1.55-1.6-2.42-1.61-2.43a.49.49,0,1,1,.8-.56s.63.89,1.63,2.47a.5.5,0,0,1-.15.67A.48.48,0,0,1,645.47,148.89Z"/><path class="cls-2" d="M255,99.48a.74.74,0,0,1-.72-.54.75.75,0,0,1,.51-.93c.95-.27,1.45-.39,1.47-.4a.75.75,0,0,1,.37,1.45s-.51.13-1.43.4Z"/><path class="cls-2" d="M139.19,183.14a.71.71,0,0,1-.39-.12.75.75,0,0,1-.24-1c.54-.87,1.1-1.75,1.66-2.6a.75.75,0,0,1,1-.22.75.75,0,0,1,.21,1c-.55.84-1.1,1.71-1.64,2.57A.75.75,0,0,1,139.19,183.14Zm4.22-6.41a.74.74,0,0,1-.42-.13.76.76,0,0,1-.19-1c.58-.83,1.18-1.68,1.78-2.51a.75.75,0,0,1,1-.17.76.76,0,0,1,.17,1c-.6.82-1.19,1.66-1.77,2.49A.74.74,0,0,1,143.41,176.73Zm4.52-6.19a.69.69,0,0,1-.45-.16.75.75,0,0,1-.14-1c.62-.82,1.26-1.63,1.9-2.43a.75.75,0,1,1,1.17.93c-.63.79-1.26,1.6-1.88,2.41A.77.77,0,0,1,147.93,170.54Zm4.81-6a.78.78,0,0,1-.49-.18.77.77,0,0,1-.09-1.06q1-1.17,2-2.34a.75.75,0,0,1,1.13,1c-.67.77-1.34,1.55-2,2.32A.74.74,0,0,1,152.74,164.56Zm5.06-5.76a.74.74,0,0,1-.5-.2.75.75,0,0,1-.05-1.06c.69-.75,1.4-1.51,2.11-2.25a.75.75,0,0,1,1.08,1c-.7.73-1.4,1.48-2.08,2.23A.76.76,0,0,1,157.8,158.8Zm5.32-5.53a.77.77,0,0,1-.53-.22.75.75,0,0,1,0-1.06c.72-.73,1.46-1.45,2.2-2.16a.75.75,0,0,1,1,1.08c-.73.7-1.46,1.42-2.18,2.14A.79.79,0,0,1,163.12,153.27Zm5.54-5.31a.75.75,0,0,1-.51-1.3c.75-.69,1.52-1.38,2.29-2.06a.75.75,0,0,1,1.06.06.76.76,0,0,1-.06,1.06c-.76.67-1.53,1.36-2.27,2.05A.77.77,0,0,1,168.66,148Zm5.76-5.07a.77.77,0,0,1-.58-.26.75.75,0,0,1,.09-1.06c.78-.67,1.58-1.33,2.37-2a.74.74,0,0,1,1,.1.75.75,0,0,1-.1,1.05c-.78.64-1.57,1.3-2.35,2A.74.74,0,0,1,174.42,142.89Zm5.94-4.85a.74.74,0,0,1-.59-.28.76.76,0,0,1,.13-1.06c.79-.62,1.61-1.25,2.44-1.88a.75.75,0,0,1,.91,1.2c-.82.62-1.64,1.25-2.42,1.87A.8.8,0,0,1,180.36,138Zm6.13-4.62a.74.74,0,0,1-.44-1.35c.83-.6,1.67-1.21,2.5-1.79a.75.75,0,0,1,1,.18.74.74,0,0,1-.18,1l-2.49,1.78A.72.72,0,0,1,186.49,133.42Zm6.29-4.39a.75.75,0,0,1-.42-1.37c.84-.57,1.71-1.14,2.57-1.7a.74.74,0,0,1,1,.21.75.75,0,0,1-.21,1l-2.55,1.69A.74.74,0,0,1,192.78,129Zm6.44-4.17a.75.75,0,0,1-.4-1.39l2.62-1.61a.75.75,0,1,1,.78,1.28l-2.61,1.6A.71.71,0,0,1,199.22,124.86Zm6.57-4a.75.75,0,0,1-.37-1.4l2.67-1.52a.75.75,0,0,1,.74,1.31l-2.66,1.51A.75.75,0,0,1,205.79,120.9Zm6.71-3.73a.75.75,0,0,1-.36-1.41c.9-.48,1.81-1,2.73-1.44a.75.75,0,1,1,.69,1.33c-.91.47-1.82.95-2.71,1.43A.73.73,0,0,1,212.5,117.17Zm6.82-3.52a.76.76,0,0,1-.34-1.43l2.77-1.35a.75.75,0,0,1,1,.35.76.76,0,0,1-.35,1l-2.75,1.34A.8.8,0,0,1,219.32,113.65Zm6.93-3.31a.75.75,0,0,1-.32-1.43l2.81-1.26a.75.75,0,1,1,.61,1.37c-.93.41-1.87.83-2.79,1.26A.85.85,0,0,1,226.25,110.34Zm7-3.08a.74.74,0,0,1-.69-.46.75.75,0,0,1,.4-1c.94-.4,1.9-.79,2.85-1.18a.74.74,0,0,1,1,.42.75.75,0,0,1-.41,1l-2.83,1.16A.79.79,0,0,1,233.28,107.26Zm7.13-2.86a.73.73,0,0,1-.7-.48.75.75,0,0,1,.43-1l2.89-1.08a.75.75,0,0,1,.51,1.41l-2.87,1.07A.6.6,0,0,1,240.41,104.4Zm7.22-2.61a.75.75,0,0,1-.71-.5.76.76,0,0,1,.47-1l2.93-1a.75.75,0,0,1,.46,1.43l-2.91,1A.67.67,0,0,1,247.63,101.79Z"/><path class="cls-2" d="M136.09,188.33a.69.69,0,0,1-.37-.1.74.74,0,0,1-.28-1l.75-1.31a.75.75,0,1,1,1.3.76l-.75,1.29A.76.76,0,0,1,136.09,188.33Z"/><ellipse class="cls-2" cx="345.61" cy="458.84" rx="304.56" ry="10.76"/><path class="cls-3" d="M331,446.43h-.33c-.15-.53-.32-1.12-.48-1.72.31.61.57,1.17.78,1.67Z"/><path class="cls-3" d="M499.73,448.44h.33c.15-.53.32-1.12.48-1.73q-.46.93-.78,1.68Z"/><path class="cls-3" d="M68.09,395.41s-11.53-16.62-7.21-27.6c4.65-11.79,13.81-5.14,12.2,9.69A58.33,58.33,0,0,1,68.09,395.41Z"/><path class="cls-2" d="M94,458.25a169.53,169.53,0,0,1-13.8-23.67,130.29,130.29,0,0,1-10.69-34.83,187.33,187.33,0,0,1-2.11-22.06c0-1.1-1.77-1.14-1.73,0,.54,12.86,2.07,25.71,5.62,38.11a139.85,139.85,0,0,0,15.61,34.74c1.65,2.68,3.36,5.3,5.13,7.9Z"/><path class="cls-3" d="M72.5,416.86s-20-3.33-24.8-14.08c-5.21-11.56,5.94-13.49,15.44-2A58.26,58.26,0,0,1,72.5,416.86Z"/><path class="cls-3" d="M77,428.91S92.52,416,91.28,404.25c-1.32-12.61-11.92-8.65-14.34,6.07A58.3,58.3,0,0,0,77,428.91Z"/><path class="cls-3" d="M86.73,447.61s15.56-12.93,14.33-24.66c-1.33-12.62-11.93-8.66-14.34,6.07A58.14,58.14,0,0,0,86.73,447.61Z"/><path class="cls-3" d="M82.06,440.7s-20.14,1.92-27.59-7.22c-8-9.83,2.27-14.56,14.42-5.9A58.21,58.21,0,0,1,82.06,440.7Z"/><path class="cls-3" d="M444.34,389.25s10.16-17.49,5-28.09c-5.58-11.38-14.18-4-11.38,10.64A58,58,0,0,0,444.34,389.25Z"/><path class="cls-2" d="M423.57,454a168.74,168.74,0,0,0,11.85-24.7,130.33,130.33,0,0,0,7.87-35.57,186.17,186.17,0,0,0,.33-22.16c0-1.1,1.68-1.28,1.72-.17.5,12.86,0,25.8-2.54,38.44A140,140,0,0,1,430,445.68c-1.43,2.8-2.93,5.55-4.48,8.28Z"/><path class="cls-3" d="M441.66,411s19.62-4.92,23.59-16c4.27-11.94-7-13-15.56-.74A58.14,58.14,0,0,0,441.66,411Z"/><path class="cls-3" d="M438.18,423.36s-16.54-11.64-16.26-23.44c.31-12.68,11.2-9.58,14.78,4.9A58.32,58.32,0,0,1,438.18,423.36Z"/><path class="cls-3" d="M429.94,442.77s-16.55-11.64-16.26-23.43c.31-12.68,11.2-9.58,14.78,4.9A58.26,58.26,0,0,1,429.94,442.77Z"/><path class="cls-3" d="M434,435.51s20.22.3,26.92-9.41c7.2-10.44-3.43-14.33-14.84-4.72A58.27,58.27,0,0,0,434,435.51Z"/><path class="cls-4" d="M227,441v6.38h4.62v-2.88a1.48,1.48,0,0,1,1.48-1.48h19.81a1.25,1.25,0,0,1,1.24,1.24v3.12h5.38v-3.12a1.24,1.24,0,0,1,1.23-1.24h19.66a1.48,1.48,0,0,1,1.48,1.48v2.88h4.62V441a2.59,2.59,0,0,0-2.6-2.6H259.48V346.94H254.1v91.41H229.55A2.59,2.59,0,0,0,227,441Z"/><path class="cls-5" d="M252.74,400.14h8.09a1,1,0,0,0,1-1V348.62H251.76v50.54A1,1,0,0,0,252.74,400.14Z"/><circle class="cls-5" cx="284.1" cy="451.46" r="6.89"/><path class="cls-4" d="M284.1,455.4a3.94,3.94,0,1,0-4-3.94A3.94,3.94,0,0,0,284.1,455.4Z"/><circle class="cls-5" cx="256.71" cy="451.46" r="6.89"/><path class="cls-4" d="M256.71,455.4a3.94,3.94,0,1,0-3.95-3.94A3.94,3.94,0,0,0,256.71,455.4Z"/><path class="cls-5" d="M222.34,451.46a6.89,6.89,0,1,0,6.89-6.89A6.89,6.89,0,0,0,222.34,451.46Z"/><path class="cls-4" d="M229.23,455.4a3.94,3.94,0,1,0-3.95-3.94A3.94,3.94,0,0,0,229.23,455.4Z"/><path class="cls-4" d="M179.53,238.3l26.36,109.83a7.89,7.89,0,0,0,7.67,6.05h61.88a7.89,7.89,0,0,0,7.66-9.77l-27-109.83a7.89,7.89,0,0,0-7.66-6H187.19A7.89,7.89,0,0,0,179.53,238.3Z"/><path class="cls-5" d="M186.34,238.3l26.37,109.83a7.88,7.88,0,0,0,7.66,6.05h61.88a7.89,7.89,0,0,0,7.66-9.77L263,234.58a7.89,7.89,0,0,0-7.66-6H194A7.89,7.89,0,0,0,186.34,238.3Z"/><path class="cls-4" d="M217.91,346.88,191.55,237.05a2.51,2.51,0,0,1,.47-2.16,2.48,2.48,0,0,1,2-1h61.29a2.53,2.53,0,0,1,2.46,1.92l27,109.84a2.54,2.54,0,0,1-2.46,3.13H220.37A2.53,2.53,0,0,1,217.91,346.88ZM194,234.64a1.81,1.81,0,0,0-1.43.69,1.84,1.84,0,0,0-.34,1.55L218.6,346.72a1.82,1.82,0,0,0,1.77,1.39h61.88a1.82,1.82,0,0,0,1.44-.69,1.79,1.79,0,0,0,.33-1.56L257.06,236a1.82,1.82,0,0,0-1.77-1.38Z"/><path class="cls-4" d="M319.18,357.43H215.25a8.91,8.91,0,0,1-8.68-6.89l-1.39-6h111Z"/><path class="cls-5" d="M317.76,357.43H221.93a8.91,8.91,0,0,1-8.68-6.89l-1.39-6h105.9a6.44,6.44,0,0,1,6.27,5h0A6.44,6.44,0,0,1,317.76,357.43Z"/><path class="cls-6" d="M296.62,230l.24,1.22.27,1.32.57,2.68c.4,1.78.83,3.57,1.27,5.35s.91,3.55,1.4,5.31,1,3.5,1.54,5.22,1.12,3.42,1.72,5.08,1.23,3.3,1.9,4.89,1.37,3.12,2.11,4.58,1.52,2.85,2.32,4.11a27.17,27.17,0,0,0,2.46,3.33,12.31,12.31,0,0,0,2.24,2.08,5.84,5.84,0,0,0,.82.5,2.88,2.88,0,0,0,.58.22l.07,0,.34.06.69.12,1.37.23,2.77.45,2.79.43,2.8.43c1.87.28,3.75.58,5.63.84l2.83.43c.95.13,1.89.27,2.83.42l1.42.21,1.42.22,1.41.22,1.37.23.39.08a8.16,8.16,0,0,1-.73,16.14l-1.55.15c-.5.05-1,.09-1.51.12-1,.08-2,.14-3,.2l-1.51.08-1.5.05-3,.09-3,0c-1,0-2,0-3,0-2,0-4-.09-6.06-.18-1,0-2-.1-3-.17l-1.53-.11-.76-.06-.39,0-.66-.09a24,24,0,0,1-5.05-1.3,25.87,25.87,0,0,1-4.38-2.16,28.52,28.52,0,0,1-3.64-2.62,34.41,34.41,0,0,1-3-2.84c-.92-1-1.76-1.94-2.54-2.93s-1.5-2-2.18-3a66.18,66.18,0,0,1-3.61-6c-1.07-2-2-4-2.91-6s-1.69-4-2.44-6-1.45-4-2.08-6-1.24-4-1.8-6-1.07-4-1.56-6-.92-4-1.33-6c-.2-1-.4-2-.58-3.06l-.27-1.55-.13-.79-.14-.88a10.84,10.84,0,0,1,21.34-3.76Z"/><path class="cls-7" d="M313.8,275.08c-2.56.72-4.91,1.78-6.47,4-.29.4.38.78.66.37,1.45-2.06,3.68-3,6-3.65a.39.39,0,0,0-.22-.74Z"/><path class="cls-7" d="M307,276.23a6.7,6.7,0,0,1,4.66.27c.46.17.65-.58.19-.75a7.43,7.43,0,0,0-5.25-.18c-.45.2,0,.86.4.66Z"/><path class="cls-8" d="M272.38,237.31c1.46,5.08,7.56,22.47,12.91,31.18l21.54-10.18s-5.14-15.49-9.34-27.18c-1.37-3.8-3.52-9.1-7.35-10.4-2.57-.88-7.43-2.86-10.86-1.22-6.77,3.22-7.5,10.68-7.43,14.37A13.77,13.77,0,0,0,272.38,237.31Z"/><polygon class="cls-6" points="361.63 419.73 367.83 429.85 379.64 424.63 374.28 413.74 361.63 419.73"/><path class="cls-5" d="M417.05,430.38l-44.68,19.77a6.63,6.63,0,0,1-1.68-2.22c-1.95-3.65-3.42-10.22-4.51-14.28-.13-.48-.25-.92-.37-1.31a14.83,14.83,0,0,0-.55-1.62c-1.37-3.1,1.61-3.78,1.61-3.78,6.48,2.43,8.66-6.49,12.61-5.63,0,0,1.7.36,6.66,2s11.92,1,18,.93c7.86-.16,11,1.77,12.18,3.52A3.79,3.79,0,0,1,417.05,430.38Z"/><path class="cls-4" d="M417.05,430.38l-44.68,19.77a6.63,6.63,0,0,1-1.68-2.22l45.63-20.19A3.79,3.79,0,0,1,417.05,430.38Z"/><path class="cls-4" d="M376.93,448.14l-1.32.58a10.74,10.74,0,0,0-.77-8.21,13.78,13.78,0,0,0-8.66-6.86c-.13-.48-.25-.92-.37-1.31A14.92,14.92,0,0,1,375.88,440,11.87,11.87,0,0,1,376.93,448.14Z"/><path class="cls-9" d="M386.55,426.26a.83.83,0,0,1-1-.25.8.8,0,0,1,.15-1.13l2.48-1.92a.8.8,0,0,1,1.13.14.81.81,0,0,1-.14,1.13l-2.49,1.93Z"/><path class="cls-9" d="M382.74,425.16a.79.79,0,0,1-1-.24.81.81,0,0,1,.14-1.13l2.49-1.93a.81.81,0,1,1,1,1.27l-2.49,1.93A1,1,0,0,1,382.74,425.16Z"/><path class="cls-9" d="M390.05,426.64a.79.79,0,0,1-1-.24.81.81,0,0,1,.14-1.13l2.49-1.93a.81.81,0,0,1,1,1.27l-2.49,1.93A.59.59,0,0,1,390.05,426.64Z"/><path class="cls-9" d="M393.53,427a.81.81,0,0,1-1-.25.79.79,0,0,1,.15-1.12l2.48-1.93a.8.8,0,0,1,1.13.14.81.81,0,0,1-.14,1.13l-2.49,1.93A1,1,0,0,1,393.53,427Z"/><path class="cls-9" d="M397.22,427.06a.8.8,0,0,1-.82-1.37l2.48-1.93a.81.81,0,1,1,1,1.27L397.38,427A.7.7,0,0,1,397.22,427.06Z"/><path class="cls-9" d="M401.06,426.83a.79.79,0,0,1-1-.24.81.81,0,0,1,.14-1.13l2.49-1.93a.8.8,0,0,1,1,1.27l-2.48,1.93A.59.59,0,0,1,401.06,426.83Z"/><path class="cls-10" d="M277.45,343c28.55,4.66,44.48,14.27,44.48,14.27s10.12,23.39,16.14,32,19.81,35.84,19.81,35.84l20.78-8.88s-2.14-5.31-5.53-13.44l-.26-.62c-.94-2.26-2-4.72-3.07-7.33-.1-.24-.2-.48-.31-.72-2-4.82-4.31-10.14-6.71-15.65l-.47-1.08c-2.08-4.76-4.24-9.64-6.43-14.44l-.33-.73c-1.26-2.76-2.52-5.5-3.77-8.16l-.31-.66c-1.62-3.45-3.22-6.77-4.78-9.9-.12-.26-.25-.51-.38-.76-2.52-5.05-4.92-9.56-7.05-13.15l-.39-.65a43.62,43.62,0,0,0-4.49-6.42c-.17-.19-.33-.36-.49-.51l-.17-.16c-2.61-2.25-13.26-5.88-25.88-7.77l-1.22-.17h0c-10.35-1.44-21.86-1.68-31.3,1A28.2,28.2,0,0,0,277.45,343Z"/><path class="cls-11" d="M358.12,395.08c2.6,2.54,6.5,2.58,9.62,1.05a12,12,0,0,0,2.06-1.28c-.1-.24-.2-.48-.31-.72a12.15,12.15,0,0,1-2.32,1.43c-3.44,1.6-8.53.94-9.87-3.16-1.65-5,3.64-9.32,5.48-13.92l-.47-1.08c-.76,2.8-3,5.5-4.36,7.83C356.19,388.28,355.31,392.35,358.12,395.08Z"/><path class="cls-11" d="M326.18,340.4a.38.38,0,0,0,0-.1,10.65,10.65,0,0,1,3.36.41c3.4,1,5.29,3.57,7.2,6.37a14.32,14.32,0,0,0,9.33,6.51,12.87,12.87,0,0,0,5.39-.18l.31.66a14.1,14.1,0,0,1-12.44-2.83c-3-2.46-4.22-6.51-7.46-8.65a9.61,9.61,0,0,0-5.91-1.51A3.77,3.77,0,0,0,326.18,340.4Z"/><path class="cls-11" d="M306.62,313.92A29.77,29.77,0,0,0,321,322.38a29.39,29.39,0,0,0,13.42.15c-.17-.19-.33-.36-.49-.51l-.17-.16a29.06,29.06,0,0,1-25.88-7.77Z"/><path class="cls-11" d="M336.69,378.09c2.32-.09,4.9-.24,6.89-1.57,2.36-1.57,2.44-4.3,3.53-6.67a12.24,12.24,0,0,1,8.77-6.89l-.33-.73a13,13,0,0,0-7.48,4.62,13.19,13.19,0,0,0-1.88,3.23c-.6,1.48-.78,3.19-1.71,4.53-1.67,2.43-5.12,2.62-7.79,2.72C336.2,377.35,336.2,378.11,336.69,378.09Z"/><path class="cls-11" d="M340.19,383.84c3.71-1.87,9.87-4,12.42.82,2.36,4.5-1.15,9-4,12.21-.33.36-.86-.17-.54-.54,2.56-2.88,5.77-6.73,4.08-10.86-2-4.94-8.15-2.7-11.58-1-.43.22-.82-.44-.38-.66Z"/><path class="cls-11" d="M355.73,410.71c3.48,1.59,6.93-.54,9.46-2.87,2-1.84,5-4.82,7.94-5l-.26-.62a9.63,9.63,0,0,0-4.79,2c-3.3,2.55-7.12,8.06-12,5.84C355.67,409.85,355.29,410.51,355.73,410.71Z"/><path class="cls-11" d="M338.61,339.47a10.3,10.3,0,0,0,8.08,4c-.12-.26-.25-.51-.38-.76a9.56,9.56,0,0,1-6.66-3.2,7.85,7.85,0,0,1-.39-9.95l-.39-.65A8.43,8.43,0,0,0,338.61,339.47Z"/><path class="cls-12" d="M355.65,420a.59.59,0,0,0,.23-.05l20.34-8.45a.6.6,0,0,0-.46-1.11l-20.34,8.46a.6.6,0,0,0,.23,1.15Z"/><path class="cls-12" d="M359.07,418.27a.57.57,0,0,0,.22,0,.6.6,0,0,0,.34-.78c-.05-.1-4.3-10.72-14.23-25.79s-20.17-40.25-20.27-40.5a.6.6,0,1,0-1.11.45c.1.25,10.46,25.65,20.38,40.71s14.07,25.47,14.11,25.57A.6.6,0,0,0,359.07,418.27Z"/><polygon class="cls-6" points="310.05 421.69 312.18 437.67 325.1 437.67 324.49 422.79 310.05 421.69"/><path class="cls-5" d="M356.93,458.17,308.07,458a6.85,6.85,0,0,1-.63-2.71c-.29-4.14,1.05-10.73,1.71-14.88.09-.49.15-.94.21-1.35a14.35,14.35,0,0,0,.15-1.7c0-3.39,3-2.8,3-2.8,4.93,4.87,10.55-2.38,13.81,0,0,0,1.41,1,5.27,4.51s10.46,5.84,16.06,8.21c7.24,3.05,9.29,6.09,9.68,8.18A3.82,3.82,0,0,1,356.93,458.17Z"/><path class="cls-4" d="M357,458.08H308.12a6.89,6.89,0,0,1-.64-2.72h49.89A3.83,3.83,0,0,1,357,458.08Z"/><path class="cls-4" d="M313.1,458.08h-1.45a10.73,10.73,0,0,0,2.63-7.83,13.76,13.76,0,0,0-5.15-9.77c.08-.49.15-.94.2-1.35a14.92,14.92,0,0,1,6.11,11.06A11.87,11.87,0,0,1,313.1,458.08Z"/><path class="cls-9" d="M330.75,442a.81.81,0,0,1-.19-1.59l3.05-.75a.79.79,0,0,1,1,.58.81.81,0,0,1-.58,1l-3.06.76Z"/><path class="cls-9" d="M327.72,439.42a.81.81,0,0,1-.2-1.59l3.06-.76a.81.81,0,0,1,.38,1.57l-3,.75A.63.63,0,0,1,327.72,439.42Z"/><path class="cls-9" d="M333.8,443.73a.8.8,0,0,1-.19-1.58l3.05-.76a.8.8,0,0,1,.39,1.56l-3.05.76A.68.68,0,0,1,333.8,443.73Z"/><path class="cls-9" d="M336.85,445.44a.81.81,0,0,1-.78-.61.82.82,0,0,1,.59-1l3-.76a.81.81,0,1,1,.39,1.57l-3.05.75A.69.69,0,0,1,336.85,445.44Z"/><path class="cls-9" d="M340.18,447a.81.81,0,0,1-.19-1.59l3.05-.76a.8.8,0,0,1,.39,1.56l-3.05.76Z"/><path class="cls-9" d="M343.79,448.36a.81.81,0,0,1-.19-1.59l3-.75a.79.79,0,0,1,1,.58.8.8,0,0,1-.58,1l-3.06.76Z"/><path class="cls-8" d="M216.48,311.6c0,.25,0,.51,0,.76a37.22,37.22,0,0,0,.33,4.39c14.51,10.81,34.22,9.42,49.86,4.41l.72-.23a77.31,77.31,0,0,0,16.68-7.67c-.33-5.19-.47-10.37-.48-15.26,0-.25,0-.5,0-.75,0-5,.12-9.72.31-13.8,0-.78.08-1.54.11-2.3h0c0-.39.05-.79.08-1.18l.06-1c.1-1.41.2-2.79.33-4.14s.26-2.83.41-4.18l0-.27.09-.75c0-.13,0-.26.05-.39h0c.14-1.15.29-2.26.43-3.34.06-.43.12-.87.19-1.29.16-1.07.33-2.12.5-3.14.08-.46.16-.93.25-1.39q.57-3.21,1.22-6c.05-.24.1-.48.16-.71.54-2.39,1.11-4.56,1.67-6.56.08-.29.17-.58.25-.87,1.32-4.56,2.6-8.12,3.54-11l.24-.72a20.11,20.11,0,0,0,1.27-5.71v-.05c0-.27,0-.54,0-.8-.56-6.9-7.46-7.81-12.87-11.46l-.62-.44a14.53,14.53,0,0,1-3-3,11.51,11.51,0,0,1-.71-1.06,14.73,14.73,0,0,1-.78-1.48L259.55,207a23.87,23.87,0,0,1-4.35,1.67l-.8.22a30.09,30.09,0,0,1-3.32.65l-.8.1a32.92,32.92,0,0,1-4.89.19c-7.94-.23-13.94,7.13-17.31,20.27-1.7,6.64-3.35,12.88-4.81,18.94-.1.4-.19.8-.29,1.2a197.06,197.06,0,0,0-4.07,21.55c-.18,1.49-.34,3-.47,4.46C217.9,282.47,216.31,301.21,216.48,311.6Z"/><path class="cls-13" d="M230.91,235.65c5.27-1.84,10.89-.54,15.83,1.72,4.23,1.94,8.07,4.62,12.14,6.86a35.09,35.09,0,0,0,12.27,4.33,44.86,44.86,0,0,0,18.33-1.78c.08-.29.17-.58.25-.87a59.32,59.32,0,0,1-6.83,1.59,36.54,36.54,0,0,1-14.73-.27c-4.6-1.12-8.72-3.47-12.75-5.89-7.3-4.38-15.92-9.48-24.71-6.42C230.25,235.08,230.45,235.81,230.91,235.65Z"/><path class="cls-14" d="M285.29,267.62a.41.41,0,0,1-.26-.44c1.48-8.5,5.89-26.79,5.93-27a.38.38,0,0,1,.47-.29.38.38,0,0,1,.29.47c0,.18-4.44,18.45-5.91,26.92a.4.4,0,0,1-.46.33Z"/><path class="cls-13" d="M284.89,270.65l0-.27.09-.75c-3.18-3.95-7.5-8.44-3.94-12.81a7.53,7.53,0,0,1,6.58-2.77c.05-.24.1-.48.16-.71a8.1,8.1,0,0,0-7.49,3.22C276.55,261.61,281.64,266.38,284.89,270.65Z"/><path class="cls-13" d="M224,250.4a15.43,15.43,0,0,0,19.34,12.75c2.66-.65,5.21-1.67,7.88-2.27a19.85,19.85,0,0,1,8.23-.1c11.12,2.22,18.31,11.74,24.61,20.36,0-.39.05-.79.08-1.18a79.29,79.29,0,0,0-10.7-12.57,30.51,30.51,0,0,0-12.56-7.06,20.92,20.92,0,0,0-7.18-.62,34.77,34.77,0,0,0-7.16,1.73,24.5,24.5,0,0,1-7.88,1.53,13.85,13.85,0,0,1-6.34-1.77,14.75,14.75,0,0,1-7.56-10.8C224.65,249.92,223.89,249.92,224,250.4Z"/><path class="cls-13" d="M221.76,260.68a26.07,26.07,0,0,1-6.17,51.65c-.48,0-.48-.78,0-.76a25.32,25.32,0,0,0,6-50.16c-.48-.1-.28-.83.2-.73Z"/><path class="cls-13" d="M266.68,321.16l.72-.23a18,18,0,0,1-.59-7.44,17.43,17.43,0,0,1,11.48-14.57,18.5,18.5,0,0,1,5.31-.92c0-.25,0-.5,0-.75a17.84,17.84,0,0,0-14.48,7.82A19.49,19.49,0,0,0,266.68,321.16Z"/><path class="cls-13" d="M261.25,319.91a9.29,9.29,0,0,0-4.36-8.26c-3.18-2.22-7.15-2.55-10.9-2-7.64,1.1-14.56,5.41-22.42,5.16-.48,0-.48-.77,0-.76,8.91.29,16.69-5.41,25.56-5.38,6.18,0,13.45,4.24,12.88,11.26,0,.48-.79.48-.76,0Z"/><path class="cls-13" d="M277.7,216.3a15.37,15.37,0,0,0,14.56,12.35,14.1,14.1,0,0,0,2.52-.13v-.05c0-.27,0-.54,0-.8a14.15,14.15,0,0,1-7.88-1,14.53,14.53,0,0,1-8.63-13.83,11.51,11.51,0,0,1-.71-1.06A15.72,15.72,0,0,0,277.7,216.3Z"/><path class="cls-13" d="M250.28,209.65c6.23,7.83,10.58,18,20.1,22.38,4.48,2.07,9.45,2.12,14.29,2.2a45.67,45.67,0,0,1,8.6.72l.24-.72a48.73,48.73,0,0,0-9.43-.76c-5.45-.1-10.84-.38-15.6-3.33s-8.26-7.56-11.39-12.14c-1.86-2.73-3.83-5.69-6-8.45Z"/><path class="cls-5" d="M254.4,184.71s-7.22,4-4.2,8c2.1,2.8,6.22.55,6.22.55s-4.27,5.88.13,6.47,7.19-4,7.19-4S262.63,183,254.4,184.71Z"/><path class="cls-5" d="M251.29,182.09s-7.51-5.91-6.29-10,5.8-4.42,5.8-4.42-3.06-4.92.29-7.9c4.43-4,8.74.34,8.74.34A7.18,7.18,0,0,1,267,156.3c3.87.38,5,2.54,5,2.54s7.32-8.15,12.79-2.88c3.36,3.24.49,10,.49,10s5.36-.79,6.1,4.51c.77,5.6-5.57,8.94-5.57,8.94s2.19,6.19-3.71,7.28C279.7,187.14,257.88,179.35,251.29,182.09Z"/><path class="cls-6" d="M257,208.78a21,21,0,0,0,9,4.1,16.5,16.5,0,0,0,11.69-3.54L277,203.2l-.13-1.25-.24-2.38-16-8.16-.92-.47-.62-.32-.13.55-.16.65.1.25C258.52,198.14,258.71,204.26,257,208.78Z"/><path class="cls-5" d="M277.52,208.05c-6.13-.78-10-5.67-11.67-8.43,3.2,2.07,6.9,3.24,10.06,2.59a9.34,9.34,0,0,0,1-.26Z"/><path class="cls-6" d="M258.55,191.24h.09c.06.19.14.38.22.58s.07.16.1.25c2.52,5.71,10.77,11.41,17,10.14a8.73,8.73,0,0,0,1-.26c5.75-1.87,6.51-8.86,5.27-13.71v-.07c0-.12,0-.41,0-.85,0-.29,0-.65,0-1.07,0-.24,0-.5,0-.78,0-2.24-.05-5.55.14-8.83.32-5.76-4.17-13.82-15.93-14.82s-15.35,7.9-14.48,13.85a23.1,23.1,0,0,0,1.41,4.87c-1.09.18-2.21.88-2.67,2.87C249.69,187.08,254.4,191.18,258.55,191.24Z"/><path class="cls-7" d="M275.31,194.66a1.74,1.74,0,0,1-1-.53.28.28,0,1,1,.44-.36,1.12,1.12,0,0,0,1.24.28.28.28,0,0,1,.35.17.29.29,0,0,1-.17.36A1.86,1.86,0,0,1,275.31,194.66Z"/><path class="cls-7" d="M275.73,193.15c-.16,0-.33,0-.51-.07a5,5,0,0,1-2.83-2.19.54.54,0,0,1,.18-.74.55.55,0,0,1,.75.18,3.83,3.83,0,0,0,2.12,1.68,1.92,1.92,0,0,0,1.91-.48.54.54,0,0,1,.77-.09.54.54,0,0,1,.09.75A2.85,2.85,0,0,1,275.73,193.15Z"/><path class="cls-5" d="M265.73,179.38a1.18,1.18,0,0,1-.53-.22,1.19,1.19,0,0,1-.23-1.67c.09-.13,2.36-3.06,5.73-2.05a1.19,1.19,0,0,1,.81,1.49,1.21,1.21,0,0,1-1.49.8c-1.81-.54-3.13,1.18-3.15,1.19A1.17,1.17,0,0,1,265.73,179.38Z"/><path class="cls-5" d="M280.58,177.89a1.2,1.2,0,0,1-.84-.59c-.5-.87-2.17-.84-2.59-.79a1.19,1.19,0,0,1-.32-2.36c1.33-.18,3.87,0,5,2a1.19,1.19,0,0,1-.44,1.63A1.22,1.22,0,0,1,280.58,177.89Z"/><path class="cls-5" d="M280.36,181c.18.8,0,1.52-.43,1.62s-.9-.48-1.08-1.28,0-1.53.43-1.62S280.18,180.24,280.36,181Z"/><path class="cls-5" d="M277.21,181.16a.21.21,0,0,1-.12,0,.21.21,0,0,1,0-.3,3.49,3.49,0,0,1,3.56-1.27.21.21,0,0,1,.14.27.22.22,0,0,1-.27.14c-1.74-.56-3.07,1.11-3.09,1.13A.23.23,0,0,1,277.21,181.16Z"/><path class="cls-5" d="M253.21,180.54a5.85,5.85,0,0,1,4.28.7c1.77,1.29,2.24,5.18,4.38,5.09s-2.11-9.58-1.2-11.12,7.31-.79,8.85-3.47,3.76-3,6.24-1,8,3.29,7.11,0-10.13-11.1-17.07-10.32-13.89,3.3-14.77,10.46S253.21,180.54,253.21,180.54Z"/><path class="cls-7" d="M261.55,190.48a3.1,3.1,0,0,1-.86.93,4,4,0,0,1-1.73.66l-.1-.25c-.08-.19-.15-.39-.22-.58h-.09l.47-.06a3.6,3.6,0,0,0,.75-.24,2.36,2.36,0,0,0,1-.91.43.43,0,1,1,.74.45Z"/><path class="cls-7" d="M257.46,188.34a.45.45,0,0,1-.36-.35c-.58-3-4.19-4.33-4.23-4.34a.43.43,0,0,1-.26-.55.43.43,0,0,1,.55-.27c.17.06,4.12,1.48,4.79,5a.42.42,0,0,1-.34.5Z"/><path class="cls-7" d="M253.68,186.65l-.15-.06a.43.43,0,0,1-.15-.59,3,3,0,0,1,2.62-1.3.44.44,0,0,1,0,.87,2.13,2.13,0,0,0-1.85.88A.42.42,0,0,1,253.68,186.65Z"/><path class="cls-7" d="M276.28,188.05a.47.47,0,0,1-.27-.16.43.43,0,0,1,.07-.61l2.28-1.8-2.1-.57a.43.43,0,0,1-.27-.24l-2.36-5a.44.44,0,0,1,.21-.58.43.43,0,0,1,.57.21l2.28,4.82,2.73.75a.43.43,0,0,1,.15.76L276.62,188A.48.48,0,0,1,276.28,188.05Z"/><path class="cls-5" d="M272.32,181.89c.23.78.09,1.52-.31,1.64s-.93-.41-1.17-1.2-.1-1.52.31-1.64S272.08,181.1,272.32,181.89Z"/><path class="cls-5" d="M269,182.62a.23.23,0,0,1-.14,0,.21.21,0,0,1-.09-.29c0-.09,1.13-2.19,3.23-1.95a.21.21,0,0,1,.19.24.22.22,0,0,1-.24.19c-1.8-.21-2.78,1.7-2.79,1.71A.23.23,0,0,1,269,182.62Z"/><path class="cls-14" d="M224.23,311.14a.39.39,0,0,1-.39-.37c-1.68-41.09,6.1-71.36,6.18-71.66a.39.39,0,0,1,.75.2c-.08.3-7.84,30.46-6.16,71.43a.39.39,0,0,1-.37.4Z"/><path class="cls-14" d="M269.14,238.47a21.92,21.92,0,0,1-8.27-5.16,40.45,40.45,0,0,1-7.32-9.64.46.46,0,0,1,.16-.56.37.37,0,0,1,.52.14,39.53,39.53,0,0,0,7.17,9.45c6,5.64,12.21,7.11,18.52,4.36a.36.36,0,0,1,.49.22.44.44,0,0,1-.23.53,15.25,15.25,0,0,1-10.91.7Z"/><path class="cls-14" d="M262.38,305a28.22,28.22,0,0,1-4.57-1.29,39.46,39.46,0,0,1-11.25-6.79,58.59,58.59,0,0,1-10.23-11.14.43.43,0,0,1,.09-.57.36.36,0,0,1,.53.08,58.24,58.24,0,0,0,10.1,11c5.7,4.75,14.59,10,24.63,7.85a.37.37,0,0,1,.44.32.41.41,0,0,1-.31.48A23.75,23.75,0,0,1,262.38,305Z"/><path class="cls-10" d="M258.78,355.63c27.69,0,40.84-2.67,40.84-2.67s.67,24.45,2,34.76,6.81,40,6.81,40l20.86,1.07s.19-5.22.31-13.3h0c0-.28,0-.56,0-.84,0-2.34.06-4.89.07-7.61h0c0-.38,0-.75,0-1.13,0-7.45,0-16.08-.35-24.82h0c0-.44,0-.88-.05-1.32h0c-.14-3.92-.32-7.85-.56-11.7,0-.31-.05-.62-.07-.94-.16-2.48-.34-4.92-.56-7.3l-.06-.75c-1.1-11.94-2.87-22.26-5.69-27.76-.12-.23-.24-.46-.37-.67a8.09,8.09,0,0,0-2.59-3c-6-3.7-13.21-5.79-22.3-7.25l-1.1-.18c-5.72-.87-12.18-1.53-19.56-2.19l-.78-.07h0l-14.79-1.3-.77-.07-6.25-.58s-7.61-1.29-16-1.89l-.9-.06c-8-.51-16.47-.35-19.9,2.11C217,316.2,207,355.63,258.78,355.63Z"/><path class="cls-11" d="M305.18,368.87c.42,3.37,4.09,3.76,6.82,3.77a21.91,21.91,0,0,1,11,2.83,20.57,20.57,0,0,1,6.31,5.63c0-.44,0-.88-.05-1.32h0a20.72,20.72,0,0,0-3.31-3.24,22.24,22.24,0,0,0-9.3-4.25,27.11,27.11,0,0,0-5.09-.41c-2.13,0-5.28-.33-5.61-3C305.88,368.39,305.12,368.38,305.18,368.87Z"/><path class="cls-11" d="M305.79,379.54c4.11-1.61,8.46.64,11.15,3.79,3,3.55,4.21,8.3,5.9,12.54a39.33,39.33,0,0,0,6.8,11.19c0-.38,0-.75,0-1.13l-.12-.13a37.51,37.51,0,0,1-5.56-9.17c-1.43-3.35-2.42-6.89-4.09-10.14-2.58-5-8.26-10-14.29-7.68C305.13,379,305.33,379.71,305.79,379.54Z"/><path class="cls-11" d="M307,391.9c2.35-1.63,5.13-.54,7.13,1.11,2.2,1.81,4.53,4.18,5.44,6.95.75,2.29.39,5.09-1.58,6.67-2.47,2-5.81,1.39-8.66.79-.48-.1-.28-.83.2-.73,2.49.52,5.42,1.12,7.69-.43,2.09-1.43,2.34-4.23,1.49-6.44a15.69,15.69,0,0,0-4.33-5.58c-1.86-1.73-4.56-3.37-7-1.68-.41.28-.79-.38-.39-.66Z"/><path class="cls-11" d="M316.79,421.29c0,.48.73.48.76,0a7.57,7.57,0,0,1,8.08-6.91,8.75,8.75,0,0,1,3.93,1.13c0-.28,0-.56,0-.84a9.51,9.51,0,0,0-4.35-1.06A8.33,8.33,0,0,0,316.79,421.29Z"/><path class="cls-11" d="M280.34,333.38a13,13,0,0,0,7.35,2c3.18-.12,6-1.72,9-2.47,7.14-1.8,12.18,4.17,15,9.91,2.61,5.27,4.59,11.4,9.63,14.94a11.48,11.48,0,0,0,6.69,2.06l-.06-.75a9.63,9.63,0,0,1-2.07-.15,12.87,12.87,0,0,1-7.66-5.29c-3.53-4.69-4.94-10.57-8.3-15.36-2.75-3.91-7.13-7.09-12.12-6.37-2.89.42-5.48,1.92-8.33,2.5a11.82,11.82,0,0,1-13.13-16.36l-.78-.07h0A12.69,12.69,0,0,0,280.34,333.38Z"/><path class="cls-11" d="M296,320.25a35.89,35.89,0,0,0,9.95,9.32,20,20,0,0,0,16.41,1.76c-.12-.23-.24-.46-.37-.67a19.33,19.33,0,0,1-16.31-2.14,35.08,35.08,0,0,1-8.58-8.09Z"/><path class="cls-12" d="M328.68,360.46a.62.62,0,0,1-.62-.59c0-.26-1.37-26.44-7.9-30.7-12.11-7.9-35.41-9.8-43.06-10.42l-.76-.06a.63.63,0,0,1-.57-.68.62.62,0,0,1,.67-.57l.76.06c7.73.63,31.27,2.55,43.64,10.62,7.07,4.61,8.42,30.59,8.47,31.69a.62.62,0,0,1-.59.65Z"/><path class="cls-11" d="M304.41,358.51c3.62,4.15,9.22,5,14.36,6,3.33.62,7.11,1.56,9.92,3.61,0-.31-.05-.62-.07-.94a21.09,21.09,0,0,0-6.94-2.85c-5.78-1.34-12.54-1.51-16.74-6.32C304.62,357.6,304.09,358.14,304.41,358.51Z"/><path class="cls-11" d="M263.92,334.49c5.78,5.92,17.16,5.47,20.6,13.83.18.44.92.25.73-.2-3.17-7.73-12.63-8.13-18.71-12.39a16.6,16.6,0,0,1-5.73-19l-.77-.07A17.49,17.49,0,0,0,263.92,334.49Z"/><path class="cls-11" d="M225.47,333.55c4.62-1.43,9.44-3.13,12-7.55a12.46,12.46,0,0,0,.28-11.85l-.9-.06a11.69,11.69,0,0,1-.24,11.87c-2.5,4-7.05,5.53-11.34,6.85C224.8,333,225,333.69,225.47,333.55Z"/><path class="cls-11" d="M227.25,338.56c4.54-4.48,10.91-10.15,17.82-7.25,2.86,1.19,4.67,3.83,7,5.79,2.94,2.53,6.81,2.88,10.16,4.61,2.8,1.45,5.35,4.45,4.43,7.77a.38.38,0,0,1-.73-.2c1.3-4.74-4.26-7.17-7.77-8.34a21.73,21.73,0,0,1-5.2-2.22,24.57,24.57,0,0,1-3.88-3.47,12.83,12.83,0,0,0-4.73-3.43,10.35,10.35,0,0,0-6.23,0c-4.14,1.19-7.3,4.33-10.29,7.28a.38.38,0,0,1-.53-.54Z"/><path class="cls-12" d="M221.78,315.79A.6.6,0,0,1,223,316c0,.13-1.72,13.49,5.69,23,4.13,5.3,10.31,8.46,18.37,9.39,16.24,1.86,31.3.26,41.27-.8,8-.86,12.89-1.37,14.53.07,1.48,1.32,2.05,8.83,3,23.11s3.25,37.49,6.21,50.06c-.37.15-1-.35-1.38-.22-3-12.68-5.06-35.28-6-49.76-.4-6.12-.75-11.4-1.18-15.4-.58-5.42-1.14-6.65-1.42-6.9-1.24-1.1-6.7-.52-13.62.22-10,1.06-25.15,2.67-41.52.8-8.4-1-14.85-4.28-19.18-9.85C220,329.76,221.71,316.36,221.78,315.79Z"/><path class="cls-12" d="M328.82,422.58a.56.56,0,0,0,.56-.55.58.58,0,0,0-.53-.63l-21.25-1.34a.57.57,0,0,0-.6.55.59.59,0,0,0,.53.63l21.26,1.34Z"/><path class="cls-6" d="M251.57,223.5l.09,1.49.11,1.61c.09,1.07.16,2.16.26,3.25.19,2.17.4,4.34.65,6.51.12,1.08.26,2.16.4,3.23s.29,2.16.44,3.22c.31,2.14.68,4.26,1.06,6.36s.83,4.16,1.31,6.18q.38,1.53.78,3c.27,1,.55,2,.85,2.91a53.64,53.64,0,0,0,2,5.42,32.85,32.85,0,0,0,2.35,4.53c.81,1.28,3.17,5.24,3.38,5.31.83.31,6.33,3.41,7.33,3.66,2,.5,4.09,2,6.22,2.38s4.28.81,6.46,1.17l3.29.52c1.1.18,2.2.35,3.31.51,2.21.31,4.43.64,6.66.93l6.61.86.2,0c4.45.58,7.58.66,7,5.1a8.12,8.12,0,0,1-7.67,7.05l-.94,0-.9,0-1.79.06-3.57.06c-2.38,0-4.75,0-7.14-.08l-3.58-.12c-1.19-.05-2.39-.12-3.59-.2-2.4-.15-4.82-.34-7.25-.61s-4.9-.59-7.41-1a72.46,72.46,0,0,1-7.79-1.75l-1-.31-.52-.17-.54-.18-1.08-.39-.07,0-.08,0-.18-.07-.36-.15-.7-.3a26.35,26.35,0,0,1-5-3,33.09,33.09,0,0,1-6.86-7.39A50.53,50.53,0,0,1,240,275.5a78.09,78.09,0,0,1-3-7.48c-.42-1.24-.81-2.47-1.18-3.7s-.7-2.46-1-3.68q-.94-3.67-1.66-7.32c-.49-2.44-.89-4.86-1.26-7.29q-.27-1.82-.51-3.63c-.16-1.21-.3-2.42-.43-3.62-.26-2.42-.48-4.84-.64-7.27-.08-1.21-.16-2.42-.21-3.65L230,226l0-.94,0-1a10.81,10.81,0,0,1,21.59-.88Z"/><path class="cls-7" d="M263.93,274.29c-2.31,1.32-4.33,2.92-5.31,5.47-.17.46.57.66.74.2.9-2.35,2.84-3.8,5-5a.38.38,0,0,0-.39-.66Z"/><path class="cls-7" d="M257.6,277.06a6.71,6.71,0,0,1,4.59-.87c.49.05.48-.72,0-.77a7.32,7.32,0,0,0-5.13,1.1c-.39.3.15.84.54.54Z"/><path class="cls-8" d="M227.38,225.57c.12,5.28,1.56,23.65,4.51,33.44l25.57-4.72s-3-20-4.07-32.4a13.32,13.32,0,0,0-5.81-10,11.7,11.7,0,0,0-9-1.79c-7.36,1.38-10,8.41-10.85,12A13.4,13.4,0,0,0,227.38,225.57Z"/><path class="cls-14" d="M231.89,259.41a.4.4,0,0,1-.38-.28,101.33,101.33,0,0,1-4.35-30,.38.38,0,0,1,.39-.38h0a.38.38,0,0,1,.38.4,100.9,100.9,0,0,0,4.32,29.72.4.4,0,0,1-.25.5Z"/><path class="cls-14" d="M257.46,254.68a.39.39,0,0,1-.39-.33c-1.5-8.49-3.56-27.19-3.58-27.38a.39.39,0,0,1,.78-.09c0,.19,2.08,18.87,3.58,27.34a.4.4,0,0,1-.32.45Z"/><polygon class="cls-15" points="390.53 262.19 390.31 264.69 390.2 265.97 390.09 267.18 389.94 268.89 389.87 269.69 389.56 273.27 389.21 277.16 389.2 277.35 388.99 279.81 388.88 281.02 388.81 281.8 388.47 285.78 388.04 290.71 374.34 290.71 374.24 289.58 373.82 284.79 373.57 281.89 373.5 281.02 373.39 279.81 373.16 277.16 373.15 277.08 372.9 274.2 372.51 269.69 372.48 269.37 372.29 267.18 372.23 266.5 372.18 265.97 371.85 262.19 390.53 262.19"/><polygon class="cls-16" points="390.2 265.97 390.09 267.18 372.29 267.18 372.23 266.5 372.18 265.97 390.2 265.97"/><polygon class="cls-16" points="388.99 279.81 388.88 281.02 373.5 281.02 373.39 279.81 388.99 279.81"/><polygon class="cls-9" points="389.87 269.69 389.56 273.27 389.21 277.16 373.16 277.16 373.15 277.08 372.9 274.2 372.51 269.69 389.87 269.69"/><rect class="cls-17" x="370.89" y="258.54" width="20.59" height="3.65"/><path class="cls-16" d="M373.31,255.45h15.76a.86.86,0,0,1,.86.86v2.24a0,0,0,0,1,0,0H372.45a0,0,0,0,1,0,0v-2.24A.86.86,0,0,1,373.31,255.45Z"/><polygon class="cls-18" points="634.81 405.78 634.67 406.74 634.52 407.88 634.34 409.23 633.56 414.9 633.48 415.51 632.68 421.44 632.59 422.07 629.39 445.57 629.3 446.21 627.65 458.33 593.58 458.33 593.12 454.89 593.03 454.26 592.78 452.41 592.7 451.81 591.27 441.36 591.18 440.64 587.99 417.25 587.89 416.51 587.32 412.28 586.43 405.78 634.81 405.78"/><path class="cls-19" d="M597.34,431.63a14.73,14.73,0,0,1-6.07,9.73l-.09-.72A13.24,13.24,0,0,0,588,417.25l-.1-.74a14.38,14.38,0,0,1,3.81,2A13.77,13.77,0,0,1,597.34,431.63Z"/><path class="cls-19" d="M633.56,414.9l-.08.61a16.83,16.83,0,0,0-11.37,3.17c-2.91,2-5.86,4.43-9.58,4.44a9.18,9.18,0,0,1-7.9-14,.33.33,0,0,1,.56.33,8.64,8.64,0,0,0,2.53,11.6c3.39,2.22,7.22,1.57,10.51-.47,3.13-1.94,5.85-4.35,9.5-5.27A16,16,0,0,1,633.56,414.9Z"/><path class="cls-19" d="M634.67,406.74l-.15,1.14a11.48,11.48,0,0,1-17.17,2.46,11.82,11.82,0,0,1-1.41-1.42c-.27-.32.19-.78.46-.46a11,11,0,0,0,18-1.56A.32.32,0,0,1,634.67,406.74Z"/><path class="cls-19" d="M632.68,421.44l-.09.63a6.12,6.12,0,0,0-3.47,1.18,6.58,6.58,0,0,0-2.48,6.64c.43,2,1.64,3.71,1.67,5.76a6.58,6.58,0,0,1-1.8,4.39c-2.8,3.16-7.18,3.8-10.45,6.28a8.92,8.92,0,0,0-2.44,11.2,7,7,0,0,0,.52.81h-.79c-.16-.24-.3-.5-.44-.76a9.61,9.61,0,0,1,1.92-11.07c3.52-3.28,9.2-3.6,11.92-7.85,1.59-2.48.58-4.75-.33-7.25a7.58,7.58,0,0,1,.09-5.93A7,7,0,0,1,632.68,421.44Z"/><path class="cls-19" d="M623.09,452.5a6.37,6.37,0,0,0,3.51,5.83h-1.23a7,7,0,0,1-2.92-6.16,7.13,7.13,0,0,1,6.94-6.6l-.09.64A6.48,6.48,0,0,0,623.09,452.5Z"/><path class="cls-19" d="M620.6,432.59c-.32,2.84-3,4.47-5.05,6a34.28,34.28,0,0,0-7.32,7.11c-2.56,3.59-3.93,8.47-2.63,12.59h-.67c-1.13-3.87-.14-8.35,2-11.85a28.64,28.64,0,0,1,6.26-6.83c1.17-1,2.39-1.85,3.59-2.77,1.43-1.1,2.9-2.45,3.13-4.33.51-4.15-4.84-4.8-7.77-4.6s-6.12,1.21-7.93,3.75-2,5.51-2.58,8.35a20.09,20.09,0,0,1-3.33,8.54,10.8,10.8,0,0,1-5.55,3.82l-.08-.6a8.68,8.68,0,0,0,2.82-1.33c3.08-2.23,4.53-5.94,5.3-9.54.58-2.74.82-5.6,2-8.15a9.21,9.21,0,0,1,5.53-4.79,14.8,14.8,0,0,1,8.26-.37C618.87,428.26,620.88,430.12,620.6,432.59Z"/><path class="cls-19" d="M599.74,458.33h-.66a4.49,4.49,0,0,0-1.85-2.88,4.75,4.75,0,0,0-4.11-.56l-.09-.63a5.11,5.11,0,0,1,6.71,4.07Z"/><polygon class="cls-5" points="634.81 405.78 634.67 406.74 634.52 407.88 634.34 409.23 633.42 409.29 632.45 409.36 618.32 410.27 617.35 410.34 587.32 412.28 586.43 405.78 634.81 405.78"/><path class="cls-18" d="M639.12,406.06a334.87,334.87,0,0,1-57,0v-5.17h57Z"/><path class="cls-15" d="M626.14,339.88c-1.78,2.14-3.07,10-6.47,11.31-2.34.87-3.59-2.52,1-6.79a17.65,17.65,0,0,0,4.79-8,65.36,65.36,0,0,0-3.2-10.32c-2.62,2.42-6.82,5.86-8,4.21s2.6-7.42,4.79-10.31a18.14,18.14,0,0,0-3.4-3.79,10.69,10.69,0,0,0-7.19-2.56,9.56,9.56,0,0,0-5.46,2c2.34,4.63,5.79,12.45,3.37,14.25-2.24,1.67-5.49-4.81-7.52-9.64-2.86,4.42-4.78,10.47-5.61,16.31a10.34,10.34,0,0,0,3.2,3.47c4.43,3.18,9.69,9.61,7.06,11s-5.38-2.35-7.34-5.71a13.39,13.39,0,0,0-3.36-4.05c0,1,0,2,0,3,.7,18.37,18.63,18.36,18.63,18.36S629.31,358.45,626.14,339.88Zm-22.57.37c-1.78,0-4.61-3.33-5.93-5.18s-.26-3.1,1-2.75l.05,0C600.49,332.87,605.87,340.27,603.57,340.25Zm15.64-4.4.06,0c1.27-.35,2.31.5,1.72,2.12-.79,2.13-1.83,3-3.42,2.18C616.57,339.62,617.43,336.39,619.21,335.85Z"/><path class="cls-5" d="M609.42,335.29c1.58,8,1.07,16.33.47,24.45-.64,8.66-1.5,17.35-1.17,26.05a73.12,73.12,0,0,0,2,14.66.33.33,0,0,0,.63-.17c-4.25-17.24-.33-34.79-.2-52.21a64.74,64.74,0,0,0-1.06-13c-.08-.41-.71-.24-.63.18Z"/><path class="cls-15" d="M601.36,362.67c-.17,2.78,3.44,9.91,1.44,12.95-1.37,2.09-4.37.08-3.23-6.05a17.57,17.57,0,0,0-.88-9.31,65.61,65.61,0,0,0-8.67-6.45c-.69,3.5-2,8.76-4,8.14-2.11-.68-2.28-7.54-2.22-11.16a17.91,17.91,0,0,0-5-1.05,10.62,10.62,0,0,0-7.32,2.17,9.49,9.49,0,0,0-3.23,4.83c4.62,2.35,12,6.63,11.12,9.51-.82,2.67-7.26-.64-11.75-3.34.29,5.25,2.31,11.27,5.08,16.48a10.24,10.24,0,0,0,4.63.91c5.45,0,13.49,2.05,12.21,4.76s-5.72,1.27-9.29-.29a13.44,13.44,0,0,0-5.11-1.29c.57.85,1.16,1.65,1.76,2.41,11.39,14.42,25.87,3.84,25.87,3.84S614.87,375.8,601.36,362.67Zm-18,13.61c-1.45,1-5.69,0-7.84-.68s-2-2.36-.81-2.82l0,0C576.51,372.14,585.22,374.94,583.35,376.28Zm10-12.78,0,0c.82-1,2.17-1,2.64.69.62,2.19.28,3.48-1.47,3.77C593.48,368.11,592.26,365,593.39,363.5Z"/><path class="cls-5" d="M585.12,368.79a89.66,89.66,0,0,1,11.8,12.53,63.75,63.75,0,0,1,6.43,11.42c1.29,2.83,2.51,5.68,3.77,8.52.17.38.74.05.57-.33-2.07-4.66-4-9.42-6.42-13.92a55.27,55.27,0,0,0-8-11.07c-2.44-2.66-5.06-5.16-7.71-7.61-.31-.28-.78.18-.47.46Z"/><path class="cls-15" d="M617,393s14.41,10.68,25.9-3.66c.6-.76,1.2-1.56,1.77-2.4a13.55,13.55,0,0,0-5.11,1.25c-3.58,1.54-8,2.94-9.3.23s6.8-4.76,12.25-4.68a10.45,10.45,0,0,0,4.63-.87c2.81-5.19,4.87-11.2,5.2-16.45-4.51,2.67-11,5.94-11.78,3.26-.87-2.88,6.56-7.11,11.19-9.44a9.51,9.51,0,0,0-3.2-4.85,10.63,10.63,0,0,0-7.3-2.22,17.89,17.89,0,0,0-5,1c0,3.62-.18,10.48-2.29,11.14-2,.6-3.28-4.66-3.94-8.16a65.46,65.46,0,0,0-8.71,6.38,17.56,17.56,0,0,0-.95,9.31c1.1,6.14-1.91,8.12-3.27,6-2-3.05,1.69-10.15,1.53-12.93C605,379,617,393,617,393Zm28.18-16.78.05,0c1.23.47,1.34,2.11-.83,2.81s-6.41,1.68-7.84.63C634.65,378.37,643.38,375.63,645.14,376.26Zm-19.8-5c-1.75-.31-2.09-1.61-1.45-3.78.49-1.66,1.83-1.72,2.64-.68l0,0C627.68,368.37,626.44,371.48,625.34,371.29Z"/><path class="cls-5" d="M634.33,371.76c-8.71,8.73-15.62,18.87-22.31,29.17-.23.35.33.68.56.33,6.66-10.26,13.55-20.34,22.22-29a.33.33,0,0,0-.47-.46Z"/><path class="cls-5" d="M639.12,400.89c0,.52-12.76.95-28.5.95s-28.5-.43-28.5-.95,12.76-.95,28.5-.95S639.12,400.37,639.12,400.89Z"/><path class="cls-2" d="M632.38,253a.58.58,0,0,1-.26-.05l-3.19-1.29a.71.71,0,0,1-.38-.38.7.7,0,0,1,0-.53l1-2.46a8.56,8.56,0,0,1-1.53-1.35l-2.41,1a.71.71,0,0,1-.92-.37l-1.33-3.17a.72.72,0,0,1,0-.54.74.74,0,0,1,.38-.38l2.25-.95a8.91,8.91,0,0,1-.06-1.79l-2.21-.9a.68.68,0,0,1-.38-.38.65.65,0,0,1,0-.53l1.3-3.19a.69.69,0,0,1,.37-.38.72.72,0,0,1,.54,0l2.09.85a8.34,8.34,0,0,1,1.57-1.57l-1-2.25a.71.71,0,0,1,.37-.92l3.17-1.33a.72.72,0,0,1,.54,0,.74.74,0,0,1,.38.38l1,2.42a9.63,9.63,0,0,1,1.2,0l1.06-2.59a.7.7,0,0,1,.91-.38l3.18,1.3a.69.69,0,0,1,.38.37.72.72,0,0,1,0,.54l-1,2.47a8.05,8.05,0,0,1,1.57,1.57l2.25-.95a.68.68,0,0,1,.54,0,.71.71,0,0,1,.38.38l1.33,3.17a.69.69,0,0,1-.37.91l-2.41,1a8,8,0,0,1,0,1.62l2.47,1a.7.7,0,0,1,.39.91l-1.3,3.18a.69.69,0,0,1-.37.38.72.72,0,0,1-.54,0l-2.59-1.05a8.43,8.43,0,0,1-.83.86l1,2.41a.7.7,0,0,1-.37.92l-3.17,1.33a.65.65,0,0,1-.53,0,.71.71,0,0,1-.38-.38l-1-2.25a7,7,0,0,1-1.37.08l-1.13,2.8A.7.7,0,0,1,632.38,253Zm-2.28-2.37,1.9.77,1.06-2.61a.68.68,0,0,1,.7-.43,7,7,0,0,0,2-.14.7.7,0,0,1,.79.41l.9,2.13,1.88-.8-1-2.24a.71.71,0,0,1,.21-.83A7.14,7.14,0,0,0,640,245.5a.69.69,0,0,1,.82-.23l2.43,1,.77-1.89-2.34-1a.72.72,0,0,1-.42-.78,7.25,7.25,0,0,0,.06-2.28.7.7,0,0,1,.42-.74l2.25-1-.8-1.88-2.12.9a.69.69,0,0,1-.85-.26,7.08,7.08,0,0,0-2-2,.69.69,0,0,1-.26-.85l.95-2.33L637,231.5l-1,2.43a.69.69,0,0,1-.74.42,7.55,7.55,0,0,0-1.9,0,.67.67,0,0,1-.74-.42l-1-2.24-1.88.79.9,2.12a.71.71,0,0,1-.26.86,6.79,6.79,0,0,0-2,2,.7.7,0,0,1-.85.26l-2-.79-.77,1.89,2,.83a.69.69,0,0,1,.43.74,7.07,7.07,0,0,0,.09,2.43.7.7,0,0,1-.41.79l-2.12.9.79,1.88,2.25-1a.7.7,0,0,1,.82.22,7.08,7.08,0,0,0,2,1.74.69.69,0,0,1,.29.86Zm4.23-5.43a3.92,3.92,0,0,1-1.46-.29,3.86,3.86,0,1,1,3,0A3.72,3.72,0,0,1,634.33,245.17Zm0-6.31a2.46,2.46,0,1,0,1,4.72h0a2.47,2.47,0,0,0,1.3-3.22A2.45,2.45,0,0,0,634.32,238.86Z"/><path class="cls-2" d="M448.48,102h-8.76a.54.54,0,1,1,0-1.07h8.76a5.47,5.47,0,0,0,5.46-5.47V91.86a6.55,6.55,0,0,1,6.54-6.53h18.85a.54.54,0,1,1,0,1.07H460.48A5.48,5.48,0,0,0,455,91.86v3.57A6.54,6.54,0,0,1,448.48,102Z"/><rect class="cls-10" x="596.84" y="80.53" width="5.43" height="13.12"/><rect class="cls-11" x="604.85" y="71.21" width="5.43" height="22.44"/><rect class="cls-12" x="613.72" y="64.33" width="5.43" height="29.31"/><rect class="cls-10" x="622.41" y="56.27" width="5.43" height="37.38"/><polygon class="cls-11" points="617.83 50.52 621.59 51.9 621.16 47.49 617.83 50.52"/><path class="cls-11" d="M595.35,74.16a.41.41,0,0,1-.14-.79c.16-.06,16.5-6.32,24.47-23.15a.41.41,0,1,1,.74.35c-8.12,17.13-24.76,23.5-24.93,23.56A.32.32,0,0,1,595.35,74.16Z"/><path class="cls-20" d="M123,211.85a11.2,11.2,0,1,0,11.2,11.2A11.22,11.22,0,0,0,123,211.85ZM120.72,213a14.06,14.06,0,0,0-1.45,1.78,14.42,14.42,0,0,0-1.51,2.75h-3.45A10.34,10.34,0,0,1,120.72,213Zm-6.92,5.43h3.62a13.84,13.84,0,0,0-.72,3.92h-4A10.14,10.14,0,0,1,113.8,218.44Zm-1.09,4.82h4a15.6,15.6,0,0,0,.57,3.93h-3.69A10.35,10.35,0,0,1,112.71,223.26Zm1.31,4.83h3.52a12.21,12.21,0,0,0,1.95,3.57,11.36,11.36,0,0,0,1.38,1.47A10.41,10.41,0,0,1,114,228.09Zm8.53,5.19a10.66,10.66,0,0,1-4-5.19h4Zm0-6.09h-4.36a14.9,14.9,0,0,1-.59-3.93h5Zm0-4.83h-5a12.94,12.94,0,0,1,.78-3.92h4.17Zm0-4.82h-3.81a13.92,13.92,0,0,1,1.26-2.22,13.52,13.52,0,0,1,2.27-2.54l.28,0Zm10.73,4.82h-3.87a13.5,13.5,0,0,0-.72-3.92h3.52A10.14,10.14,0,0,1,133.28,222.36Zm-1.58-4.82h-3.35a14.42,14.42,0,0,0-1.51-2.75,15.19,15.19,0,0,0-1.41-1.75A10.34,10.34,0,0,1,131.7,217.54Zm-8.24-4.78.4,0a14,14,0,0,1,3.51,4.75h-3.91Zm0,5.68h4.28a12.81,12.81,0,0,1,.77,3.92h-5Zm0,4.82h5.06a14.62,14.62,0,0,1-.6,3.93h-4.46Zm0,10.08v-5.25h4.16a11.55,11.55,0,0,1-1.68,3A9.33,9.33,0,0,1,123.46,233.34Zm1.82-.24a11.6,11.6,0,0,0,1.35-1.44,12.42,12.42,0,0,0,1.94-3.57H132A10.28,10.28,0,0,1,125.28,233.1Zm3.58-5.91a16.07,16.07,0,0,0,.56-3.93h3.88a10.35,10.35,0,0,1-.86,3.93Z"/><rect class="cls-21" x="306.44" y="190.9" width="110.39" height="26.54" rx="3.69" transform="translate(723.27 408.35) rotate(180)"/><circle class="cls-10" cx="402.51" cy="203.24" r="8.65"/><path class="cls-22" d="M401.39,205.63a4,4,0,0,1,.14-1.09,3.35,3.35,0,0,1,.38-.86,4.34,4.34,0,0,1,.56-.72l.68-.65.41-.38a3.67,3.67,0,0,0,.4-.47,2.94,2.94,0,0,0,.3-.55,2,2,0,0,0,.11-.67,1.77,1.77,0,0,0-.47-1.26,2.11,2.11,0,0,0-1.57-.5,2.45,2.45,0,0,0-1.4.37,4.55,4.55,0,0,0-1,.89l-.9-.82a3.76,3.76,0,0,1,.49-.57,4.5,4.5,0,0,1,.74-.57,5.11,5.11,0,0,1,1-.44,4.06,4.06,0,0,1,1.23-.18,4.42,4.42,0,0,1,1.66.28,2.86,2.86,0,0,1,1.06.71,2.73,2.73,0,0,1,.57,1,3.57,3.57,0,0,1,.16,1,2.75,2.75,0,0,1-.13.9,3,3,0,0,1-.36.74,3.35,3.35,0,0,1-.49.62c-.18.19-.36.37-.54.53s-.4.36-.58.53a3.11,3.11,0,0,0-.48.55,2.74,2.74,0,0,0-.32.69,3,3,0,0,0-.12.9Zm1.77,2.23a1.12,1.12,0,0,1-.28.78,1,1,0,0,1-.75.3,1,1,0,0,1-.74-.3,1.12,1.12,0,0,1-.29-.78,1.1,1.1,0,0,1,.29-.77,1,1,0,0,1,.74-.3,1,1,0,0,1,.75.3A1.09,1.09,0,0,1,403.16,207.86Z"/><path class="cls-10" d="M313.1,198.76h74.95a1.14,1.14,0,0,0,1.13-1.14h0a1.14,1.14,0,0,0-1.13-1.14H313.1a1.14,1.14,0,0,0-1.13,1.14h0A1.14,1.14,0,0,0,313.1,198.76Z"/><path class="cls-10" d="M313.1,211.89h74.95a1.13,1.13,0,0,0,1.13-1.13h0a1.14,1.14,0,0,0-1.13-1.14H313.1a1.14,1.14,0,0,0-1.13,1.14h0A1.13,1.13,0,0,0,313.1,211.89Z"/><path class="cls-10" d="M313.1,205.31h74.95a1.14,1.14,0,0,0,1.13-1.14h0a1.14,1.14,0,0,0-1.13-1.13H313.1a1.14,1.14,0,0,0-1.13,1.13h0A1.14,1.14,0,0,0,313.1,205.31Z"/><polygon class="cls-21" points="362.65 214.81 356.78 227.27 350.91 214.81 362.65 214.81"/><path class="cls-5" d="M183.85,458.84a3.34,3.34,0,0,1-3.17-2.28L128.8,300.8a3.33,3.33,0,1,1,6.32-2.1L187,454.46a3.34,3.34,0,0,1-2.11,4.21A3.25,3.25,0,0,1,183.85,458.84Z"/><path class="cls-5" d="M102.76,458.84a3.26,3.26,0,0,1-1.06-.17,3.34,3.34,0,0,1-2.11-4.21L151.48,298.7a3.33,3.33,0,0,1,6.32,2.1L105.92,456.56A3.34,3.34,0,0,1,102.76,458.84Z"/><path class="cls-4" d="M441.2,400.54H399.64a3.34,3.34,0,0,1,0-6.67H441.2a3.34,3.34,0,1,1,0,6.67Z"/><path class="cls-5" d="M461.31,458.84a3.34,3.34,0,0,1-3.16-2.28L406.27,300.8a3.33,3.33,0,0,1,6.32-2.1l51.88,155.76a3.32,3.32,0,0,1-2.1,4.21A3.26,3.26,0,0,1,461.31,458.84Z"/><path class="cls-5" d="M380.22,458.84a3.21,3.21,0,0,1-1.05-.17,3.33,3.33,0,0,1-2.11-4.21L429,298.7a3.33,3.33,0,0,1,6.32,2.1L383.38,456.56A3.32,3.32,0,0,1,380.22,458.84Z"/><rect class="cls-5" x="114.59" y="290.71" width="335.71" height="14.7"/><rect class="cls-4" x="114.59" y="300.12" width="335.71" height="1.54"/><g class="cls-23"><path class="cls-24" d="M445.51,152.36s-1.38,8.4-7.56,9.91c-5,1.21-9.7-3.59-11.33-5.48-.39-.45-.6-.73-.6-.73a8.21,8.21,0,0,1-.93,0c-1.3,0-3.62-.29-4.52-1.89-1.29-2.28,3.41-3.84,3.41-3.84s-2.41-2.15-1.81-3.72,3.83-1.86,3.83-1.86-3.48-2.26-2.32-4.23c1.75-3,5.36.3,5.64.48-.23-.26-4.74-4.93-2.27-5.77,2.16-.73,5.7,1.69,8,4.1.37.37.58.6.58.6s.14-.11.38-.27c1.17-.78,4.75-2.87,7-1C445.82,141,445.51,152.36,445.51,152.36Z"/><path class="cls-25" d="M439.05,157.52a.49.49,0,0,1-.62-.71,4.4,4.4,0,0,0,.75-3.68c-.82-3.15-5-5.32-5.06-5.34a.49.49,0,0,1-.22-.66.5.5,0,0,1,.66-.22c.19.1,4.65,2.4,5.57,6a5.35,5.35,0,0,1-.88,4.47A.47.47,0,0,1,439.05,157.52Z"/><path class="cls-25" d="M434.76,145.42a1.5,1.5,0,0,1-.69,1.33,1.07,1.07,0,0,1-.32.16,3.16,3.16,0,0,1-.88.2,3.64,3.64,0,0,1,.63.52,1.64,1.64,0,0,1,.37.57,1.28,1.28,0,0,1-.21,1.24c-.79,1.05-2.61,1.47-4.09,1.65a5.19,5.19,0,0,1,2.29,2.32,1.56,1.56,0,0,1-.19,1.5,2.78,2.78,0,0,1-1.07.78,15.81,15.81,0,0,1-4,1.1c-.39-.45-.6-.73-.6-.73a8.38,8.38,0,0,1-.93,0,.47.47,0,0,1,.25-.11c1.82-.21,4.93-.84,5.54-1.66a.56.56,0,0,0,.05-.58c-.33-.94-2.1-2.18-3.63-2.55a.48.48,0,0,1-.36-.54.49.49,0,0,1,.49-.43c1.21,0,4.55-.18,5.44-1.37.13-.17.1-.26.08-.31a1.63,1.63,0,0,0-.75-.68,11.78,11.78,0,0,0-2.9-1.09.5.5,0,0,1-.26-.16.48.48,0,0,1-.11-.44.5.5,0,0,1,.6-.36c.17,0,.52.13,1,.27a11.59,11.59,0,0,0,2.22.08,2.06,2.06,0,0,0,.84-.23.55.55,0,0,0,.24-.52,3.06,3.06,0,0,0-.53-1.49.5.5,0,0,1,0-.55h0a.48.48,0,0,1,.79,0A4.1,4.1,0,0,1,434.76,145.42Z"/><path class="cls-25" d="M442.21,143.78a16.47,16.47,0,0,1-3.22,2.16,5.62,5.62,0,0,1-2.84.68,2.46,2.46,0,0,1-1.78-1c-1.56-2.09-.22-4.82.71-6.26.37.37.58.6.58.6s.14-.11.38-.27c-.8,1.18-2.14,3.65-.88,5.34a1.47,1.47,0,0,0,1.09.61c1.73.19,4.42-1.81,5.31-2.6a.48.48,0,0,1,.69.05A.49.49,0,0,1,442.21,143.78Z"/><path class="cls-11" d="M492.73,134.07v0s0,0,0,0v.06l0,.12-.06.29-.13.63-.15.67-.15.68c-.21.91-.44,1.84-.69,2.77-.51,1.86-1.05,3.73-1.68,5.57s-1.28,3.67-2,5.45c-.37.89-.75,1.78-1.15,2.66s-.81,1.74-1.22,2.61c-.86,1.71-1.76,3.39-2.74,5-.22.41-.49.81-.73,1.21s-.49.81-.75,1.2c-.53.78-1,1.57-1.58,2.33-1.06,1.54-2.23,3-3.4,4.43s-2.44,2.77-3.75,4l-1,1-1,.92-.51.46-.13.12.07-.06.09-.08a3.62,3.62,0,0,1,.38-.26,5.86,5.86,0,0,1,1.83-.85l.43-.11.22,0,.18,0a2.31,2.31,0,0,1,.37,0,1.31,1.31,0,0,1,.28,0,.65.65,0,0,0,.14,0h.1l.19,0h.12l.06,0h0c.14.05-.14,0-.57-.18a15,15,0,0,1-1.63-.86c-.63-.37-1.31-.82-2-1.32-1.4-1-2.86-2.17-4.33-3.43s-2.94-2.62-4.41-4-2.94-2.85-4.39-4.35-2.9-3-4.32-4.54c-.72-.77-1.43-1.54-2.13-2.32l-2-2.24-15.84,11.88.53.8.5.74,1,1.45c.67,1,1.35,1.9,2,2.84q2.09,2.82,4.3,5.55c1.49,1.81,3,3.62,4.62,5.4.81.88,1.62,1.77,2.47,2.64s1.71,1.75,2.6,2.61a74.36,74.36,0,0,0,5.83,5.1c1.08.83,2.21,1.65,3.45,2.46a34.82,34.82,0,0,0,4.17,2.35,25.05,25.05,0,0,0,5.7,1.94l.43.09.47.08.94.13,1,.08.51,0h.55c.37,0,.75,0,1.12,0s.79-.07,1.18-.12l.6-.08.62-.12c.42-.09.83-.18,1.25-.3a17.22,17.22,0,0,0,4.82-2.25c.35-.25.7-.5,1-.77l.25-.2.23-.19.18-.16.72-.65,1.45-1.3c.48-.44.94-.89,1.4-1.34a76.21,76.21,0,0,0,5.27-5.68c1.63-2,3.21-4,4.64-6.13s2.77-4.28,4-6.48l.91-1.66c.3-.56.57-1.12.86-1.68s.57-1.13.83-1.7l.8-1.7a93.28,93.28,0,0,0,5-14.07c.63-2.4,1.21-4.81,1.64-7.28.22-1.23.43-2.46.6-3.73,0-.32.08-.64.11-1s.08-.64.11-1,.07-.67.1-1l.09-1.21Z"/><path class="cls-12" d="M443,161.05a1.37,1.37,0,0,0,2.72-.24,1.37,1.37,0,0,0-2.72.24Z"/><path class="cls-12" d="M471.39,184.52a.58.58,0,0,0,.56-.44A43.52,43.52,0,0,0,472.9,174a.58.58,0,1,0-1.16,0,43.55,43.55,0,0,1-.92,9.8.58.58,0,0,0,.43.71Z"/><path class="cls-12" d="M475.12,180.29a.58.58,0,0,0,.26-.06.57.57,0,0,0,.26-.78,47.72,47.72,0,0,0-2.85-5.06.59.59,0,0,0-.82-.09.58.58,0,0,0-.1.82A47.46,47.46,0,0,1,474.6,180,.59.59,0,0,0,475.12,180.29Z"/><path class="cls-12" d="M438.79,172.38a.59.59,0,0,0,.42-.17c4.89-5,15.92-13,16-13.08a.59.59,0,0,0,.13-.82.58.58,0,0,0-.81-.13c-.12.08-11.23,8.1-16.18,13.21a.59.59,0,0,0,0,.83A.57.57,0,0,0,438.79,172.38Z"/><path class="cls-12" d="M443.52,168.07a.57.57,0,0,0,.44-.95L438.07,160a.59.59,0,0,0-.9.75l5.9,7.07A.57.57,0,0,0,443.52,168.07Z"/><path class="cls-26" d="M507.15,305.78l7.9-46.67.65-3.81-22.76-8-1.3-.46-5.42-1.91s-.43,2-1.11,5.42c-.08.42-.16.85-.25,1.31-2.13,11-6.14,33.78-7.23,54.15Z"/><path class="cls-27" d="M503.11,305.78c3.42-18.61,7.82-45.8,8.07-47.38a.61.61,0,1,0-1.21-.2c-.06.39-4.63,28.62-8.11,47.58Z"/><path class="cls-26" d="M553.2,230s1.71,16.25-2,25.3-51.56,4.39-63.75-3.75c-5-3.34,5.65-34.16,5.65-34.16Z"/><path class="cls-27" d="M484.86,251.63a13.74,13.74,0,0,0,2.12-.55,14.28,14.28,0,0,0,3.15-1.52,16.92,16.92,0,0,0,2.81-2.29c5.28-5.33,6.83-13.37,6.9-13.76a.62.62,0,1,0-1.21-.23c0,.1-1.63,8.46-7,13.53a15.28,15.28,0,0,1-2.18,1.72,13,13,0,0,1-3,1.43,10.18,10.18,0,0,1-1.34.36C485,250.74,485,251.17,484.86,251.63Z"/><path class="cls-27" d="M514.39,256.17a.62.62,0,0,0,.58.63h0a.61.61,0,0,0,.64-.57c.11-2.22.24-4.49.38-6.77,0-.4,0-.8.08-1.2.48-7.42,1.1-14.71,1.56-19.86,0-.42.07-.82.11-1.21.1-1.13.2-2.13.28-3l-1.22-.2c-.08.85-.18,1.86-.28,3,0,.38-.07.79-.11,1.2-.46,5.11-1.07,12.33-1.55,19.72,0,.4,0,.81-.08,1.22C514.64,251.51,514.5,253.87,514.39,256.17Z"/><path class="cls-27" d="M512.64,248.34a16,16,0,0,0,2.15.82,10.7,10.7,0,0,0,1.21.3,9.5,9.5,0,0,0,1.16.16,4.25,4.25,0,0,0,2.07-.33,2.48,2.48,0,0,0,1.39-1.87c.45-2.29,1.39-11.76,2-18.45,0-.41.08-.81.11-1.2.1-1.07.19-2,.27-2.87l-1.22-.15c-.08.83-.17,1.81-.27,2.9,0,.39-.08.79-.11,1.2-.64,6.68-1.57,16.12-2,18.34a1.32,1.32,0,0,1-.74,1,4.29,4.29,0,0,1-2.6,0c-.41-.09-.83-.2-1.21-.32a14.41,14.41,0,0,1-1.69-.67.63.63,0,0,0-.82.27A.6.6,0,0,0,512.64,248.34Z"/><path class="cls-26" d="M547.25,305.78c1.89-17.32,4.08-40.5,5.32-53.92,0-.43.07-.83.11-1.23.55-5.93.88-9.66.88-9.66-2.93-1.22-8.26-.38-13.93,1.23l-1.23.36a168.52,168.52,0,0,0-20.74,8.1v55.12Z"/><path class="cls-27" d="M544.36,305.78c1.63-19.26,3.57-47.07,3.6-47.44a.63.63,0,0,0-.58-.66.62.62,0,0,0-.65.58c0,.36-2,28.28-3.61,47.52Z"/><path class="cls-27" d="M535,233.51a32,32,0,0,0,3.39,9,19.77,19.77,0,0,0,6.32,7,14.45,14.45,0,0,0,7.85,2.3c0-.42.08-.83.11-1.23a13.21,13.21,0,0,1-7.29-2.1,18.37,18.37,0,0,1-5.76-6.33,32.14,32.14,0,0,1-3.42-8.92.61.61,0,1,0-1.2.23Z"/><path class="cls-11" d="M489.78,229c13.25,12.37,34.58,18.95,58.73,7.19,2.65-7.24,11.56-33.08,12.34-40.8.16-1.54.28-3.08.39-4.62a204.16,204.16,0,0,0,0-22.68l-.06-1.27c-.32-6.42-.79-13.09-1.23-20.16-.89-14-5.56-22.62-13.67-23.91a33.23,33.23,0,0,1-9-2.7l-.77-.38a26.19,26.19,0,0,1-4.1-2.54h-18.1a13.8,13.8,0,0,1-5.64,4.71l-.71.32c-6.42,2.78-13.92,2.22-15.46,10-1,4.86,2.75,14.87,2.36,35.17,0,1.49-.08,3-.15,4.63s-.17,3.05-.29,4.65-.24,3-.4,4.62c-.14,1.38-.29,2.8-.47,4.26s-.38,3-.61,4.59C491.79,198.47,492.55,218.13,489.78,229Z"/><path class="cls-12" d="M547.83,233.2a.34.34,0,0,1-.14,0,.53.53,0,0,1-.38-.66c10.05-36.87,8-74.35,8-74.73a.54.54,0,0,1,.51-.57.55.55,0,0,1,.58.51c0,.38,2.06,38-8,75.07A.53.53,0,0,1,547.83,233.2Z"/><path class="cls-12" d="M493.27,185.31a.59.59,0,0,0,.58-.51c1.2-10.67,1.21-31.88,1.21-32.09a.58.58,0,1,0-1.16,0c0,.21,0,21.36-1.21,32a.57.57,0,0,0,.51.64Z"/><path class="cls-12" d="M518.07,225.48a1.37,1.37,0,1,0,1.24-1.48A1.36,1.36,0,0,0,518.07,225.48Z"/><path class="cls-28" d="M517.85,232.08a1.38,1.38,0,0,0,1.48,1.25,1.37,1.37,0,1,0-1.48-1.25Z"/><path class="cls-12" d="M501.91,159.44c-3.55-4.13-2.22-13.32-2.16-13.71a.59.59,0,0,1,.58-.5h12.05a.59.59,0,0,1,.58.5c.06.39,1.39,9.58-2.16,13.71a6,6,0,0,1-8.89,0Zm-1.07-13c-.22,1.94-.81,9.06,2,12.28a4.81,4.81,0,0,0,7.11,0c2.77-3.22,2.18-10.34,2-12.28Z"/><path class="cls-29" d="M529.83,72c-6.14.3-14.45-5.15-14.45-5.15-11.62,3.73-15,11.84-13.19,16.78a11.05,11.05,0,0,0,.06,7.49c1.44,4.45,3.42,4.42,3.42,4.42l24.58-.89c.35.84,3.9,3.72,5.5-7.08,1.33-8.9-2.46-8.73-4.15-8.52C531.6,79,534.25,71.77,529.83,72Z"/><path class="cls-24" d="M514.09,114v4.6a12.69,12.69,0,0,0,1.63,1.14c8,4.8,16.61-1.14,16.61-1.14v-16l-16.07,10Z"/><path class="cls-26" d="M514.09,113.89v4.73a12.69,12.69,0,0,0,1.63,1.14c6.8-2.69,11.75-9.83,11.75-9.83l-11.21,2.74Z"/><path class="cls-11" d="M532.29,114a9.1,9.1,0,0,1,6.85,7c-5.24,5.48-9.87,10.24-17.37,11.63v-11A19.39,19.39,0,0,0,532.29,114Z"/><path class="cls-11" d="M513.92,115.54s-4.8,1-6.67,7.17c4.84,5.9,7.43,8.11,14.52,9.92v-11S517.82,121.55,513.92,115.54Z"/><polygon class="cls-26" points="511.21 201.11 514.33 208.63 514.33 208.63 515.72 212.01 519.67 221.55 521.58 217.87 522.26 216.56 523.79 213.61 524.46 212.3 525.99 209.35 526.67 208.04 528.2 205.09 528.2 205.09 528.88 203.79 530.31 201.01 530.28 200.71 530.06 198.5 529.55 193.51 529.33 191.31 528.82 186.31 528.59 184.11 528.08 179.11 527.86 176.91 527.35 171.91 527.13 169.71 526.62 164.72 526.39 162.51 525.89 157.52 525.66 155.32 525.15 150.32 524.93 148.12 524.42 143.13 524.2 140.92 523.67 135.76 519.86 135.61 519.74 136.47 519.51 138.22 518.99 142.18 518.76 143.93 518.24 147.89 518 149.64 517.48 153.6 517.25 155.35 516.73 159.31 516.5 161.06 515.98 165.03 515.74 166.77 515.22 170.74 514.99 172.48 514.47 176.45 514.24 178.2 513.71 182.16 513.48 183.91 512.96 187.87 512.73 189.62 512.21 193.58 511.98 195.33 511.45 199.29 511.22 201.04 511.21 201.11"/><polygon class="cls-27" points="519.51 138.22 524.42 143.13 524.2 140.92 519.74 136.47 519.51 138.22"/><polygon class="cls-27" points="518.76 143.93 525.15 150.32 524.93 148.12 518.99 142.18 518.76 143.93"/><polygon class="cls-27" points="518 149.64 525.89 157.52 525.66 155.32 518.24 147.89 518 149.64"/><polygon class="cls-27" points="517.25 155.35 526.62 164.72 526.39 162.51 517.48 153.6 517.25 155.35"/><polygon class="cls-27" points="516.5 161.06 527.35 171.91 527.13 169.71 516.73 159.31 516.5 161.06"/><polygon class="cls-27" points="515.74 166.77 528.08 179.11 527.86 176.91 515.98 165.03 515.74 166.77"/><polygon class="cls-27" points="514.99 172.48 528.82 186.31 528.59 184.11 515.22 170.74 514.99 172.48"/><polygon class="cls-27" points="514.24 178.2 529.55 193.51 529.33 191.31 514.47 176.45 514.24 178.2"/><polygon class="cls-27" points="513.48 183.91 530.28 200.71 530.06 198.5 513.71 182.16 513.48 183.91"/><polygon class="cls-27" points="512.73 189.62 528.2 205.09 528.88 203.79 512.96 187.87 512.73 189.62"/><polygon class="cls-27" points="511.98 195.33 525.99 209.35 526.67 208.04 512.21 193.58 511.98 195.33"/><polygon class="cls-27" points="511.22 201.04 523.79 213.61 524.46 212.3 511.45 199.29 511.22 201.04"/><polygon class="cls-27" points="514.33 208.63 515.72 212.01 521.58 217.87 522.26 216.56 514.33 208.63"/><polygon class="cls-27" points="523.67 135.76 521.77 138.58 519.86 135.61 519.52 138.15 521.74 140.41 523.87 137.73 523.67 135.76"/><polygon class="cls-26" points="526.86 131.02 521.77 138.58 516.89 131.02 521.77 124.7 526.86 131.02"/><path class="cls-12" d="M529.82,136.19a.58.58,0,0,0,.36-.12c5-4,9.33-14.41,9.51-14.85a.58.58,0,0,0-.31-.76.6.6,0,0,0-.77.32c0,.1-4.08,9.88-8.69,14l-7.66-10.41a.58.58,0,0,0-1,0l-7.15,10.15c-1.09-2-4-7.2-6.38-12.06a.58.58,0,0,0-1,.52c3,6.13,6.81,12.86,6.85,12.93a.59.59,0,0,0,.48.29.6.6,0,0,0,.51-.24l7.22-10.25L529.35,136a.61.61,0,0,0,.39.23Z"/><path class="cls-12" d="M521.79,125.28a.58.58,0,0,0,.58-.58v-2.61a.59.59,0,0,0-1.17,0v2.61A.58.58,0,0,0,521.79,125.28Z"/><path class="cls-25" d="M506.91,96.2s-3-2.73-4.06.51.82,9.31,4.64,7.8Z"/><path class="cls-24" d="M505.49,107.3s1.18,9.44,11,8.18,15.45-9.74,15.75-10.14h0l-.15-2-2.62-9.88,1.49-6c-5.55,5-1.26-9-9.65-10.69-6.91-1.44-13.36,1.5-16.16,5.5a2.65,2.65,0,0,1-.26.39c-1.26,1.34-2.43,2.88-1.27,4.85l.94,9.93.23,2.43Z"/><path class="cls-26" d="M516.63,87.33s4.93,1.57,6.63-1.09-4.45-2.84-6.19-2.07S515.23,87.06,516.63,87.33Z"/><path class="cls-26" d="M510.12,88.34s-4.53,2.51-6.71.23,3.81-3.65,5.66-3.23S511.44,87.81,510.12,88.34Z"/><path class="cls-25" d="M515.66,105.7a4.13,4.13,0,0,0,2.83-.91.43.43,0,0,0,0-.62.44.44,0,0,0-.62,0,3,3,0,0,1-3,.47.44.44,0,0,0-.58.22.45.45,0,0,0,.23.58A3.88,3.88,0,0,0,515.66,105.7Z"/><path class="cls-9" d="M519.09,100s-5.84,2-8.9,2.07c0,0,1.69,4.32,6,2.63A4.49,4.49,0,0,0,519.09,100Z"/><path class="cls-25" d="M517.52,97c.08.69,1.57,1.07,3.32.85s3.09-1,3-1.65-1.57-1.06-3.32-.84S517.43,96.31,517.52,97Z"/><path class="cls-25" d="M504.79,99.83l.76-.06c1.75-.22,3.09-1,3-1.64s-1.58-1.07-3.32-.85a6.38,6.38,0,0,0-.68.12Z"/><path class="cls-26" d="M517.67,93.39c.12.94.64,1.65,1.17,1.59s.86-.89.74-1.83-.64-1.66-1.17-1.59S517.55,92.45,517.67,93.39Z"/><path class="cls-26" d="M506.19,94.58c.11,1,.64,1.66,1.17,1.59s.86-.88.74-1.83-.65-1.65-1.17-1.59S506.07,93.64,506.19,94.58Z"/><path class="cls-26" d="M529.22,102c0,.1,1.3,3,3.1,3.86h0l.11-2A6.86,6.86,0,0,1,529.22,102Z"/><path class="cls-24" d="M529.58,95.12s3.13-5.55,6.4-1.91c2.69,3-.54,12.1-5.42,9.73Z"/><path class="cls-26" d="M530.88,101.35a.39.39,0,0,0,.35-.39,6.53,6.53,0,0,1,3.11-5.71.39.39,0,0,0-.38-.68,7.31,7.31,0,0,0-3.52,6.4.39.39,0,0,0,.4.38Z"/><path class="cls-26" d="M534.21,98.54a.39.39,0,0,0,.16-.72c-.17-.11-1.7-1-2.83-.58a.38.38,0,0,0-.22.5.39.39,0,0,0,.51.22,3.11,3.11,0,0,1,2.13.52A.39.39,0,0,0,534.21,98.54Z"/><path class="cls-26" d="M513.2,98.53a.39.39,0,0,0,.34-.44.38.38,0,0,0-.43-.34,2.69,2.69,0,0,1-2.46-.79c1.15-3.39,2.28-6.8,2.3-6.83a.41.41,0,0,0-.25-.5.39.39,0,0,0-.5.25s-1.19,3.58-2.36,7a.42.42,0,0,0,0,.33A3.33,3.33,0,0,0,513.2,98.53Z"/><path class="cls-24" d="M609,132s5.27,5.32,10.47,3.24c4.2-1.68,5.13-7.52,5.34-9.7,0-.52.05-.84.05-.84a6.68,6.68,0,0,0,.68-.45c.93-.67,2.45-2,2.28-3.66-.23-2.29-4.4-1-4.4-1s.63-2.78-.6-3.59-3.69.62-3.69.62,1.34-3.4-.5-4.22c-2.77-1.23-3.69,2.94-3.8,3.22,0-.3,1.34-13.11-.85-12.45-1.92.57-3.69,11.27-4.14,14.18l-.11.73h-.41c-1.23,0-4.86.37-5.53,2.89C603,124,609,132,609,132Z"/><path class="cls-25" d="M619.78,123a4.63,4.63,0,0,0-.46,2.84,1.34,1.34,0,0,0,.9,1,2.62,2.62,0,0,0,1.16,0,14.28,14.28,0,0,0,3.42-1.24c.05-.53.06-.84.06-.84a6.68,6.68,0,0,0,.68-.45.46.46,0,0,0-.23.06c-1.41.77-4,1.9-4.83,1.63a.52.52,0,0,1-.33-.39,5.21,5.21,0,0,1,1.3-3.68.42.42,0,0,0,0-.58.43.43,0,0,0-.57-.05c-.86.63-3.36,2.19-4.6,1.79-.18-.06-.21-.14-.22-.19a1.49,1.49,0,0,1,.19-.86,10.77,10.77,0,0,1,1.53-2.27.37.37,0,0,0,.1-.24.42.42,0,0,0-.14-.37.43.43,0,0,0-.61,0,11.88,11.88,0,0,0-1.56,2.25,3.52,3.52,0,0,0-.36,1.08,1.55,1.55,0,0,0,0,.61,1.1,1.1,0,0,0,.79.77C617.11,124.2,618.63,123.58,619.78,123Z"/><path class="cls-25" d="M613.17,119.31a.43.43,0,0,1,.31.38,2.69,2.69,0,0,0,.38,1.33.48.48,0,0,0,.44.25A1.68,1.68,0,0,0,615,121a12.55,12.55,0,0,0,2.32-1.92.44.44,0,0,1-.11.24,10.77,10.77,0,0,0-1.53,2.27,2.2,2.2,0,0,1-.26.15,3,3,0,0,1-.78.34,1.81,1.81,0,0,1-.31,0,1.36,1.36,0,0,1-1.18-.61,3.6,3.6,0,0,1-.55-1.78.43.43,0,0,1,.55-.44Z"/><path class="cls-25" d="M607,124.15a13.92,13.92,0,0,0,3.42-.09,4.86,4.86,0,0,0,2.38-1,2.14,2.14,0,0,0,.76-1.63c.05-2.29-2.29-3.57-3.7-4.13l-.11.73h-.41c1.18.45,3.4,1.53,3.36,3.38a1.31,1.31,0,0,1-.47,1c-1.15,1-4.1,1-5.14.84a.43.43,0,0,0-.47.39A.43.43,0,0,0,607,124.15Z"/><path class="cls-25" d="M616.26,132.4a.43.43,0,0,0,.33-.27.44.44,0,0,0-.25-.56,3.84,3.84,0,0,1-2.41-2.25c-1-2.68.88-6.38.9-6.42a.43.43,0,1,0-.76-.4c-.09.17-2.11,4.09-1,7.12a4.72,4.72,0,0,0,2.91,2.76A.45.45,0,0,0,616.26,132.4Z"/><path class="cls-11" d="M552.13,125.78l9,7.83c1.44,1.34,2.88,2.68,4.33,4s2.89,2.65,4.34,4,2.89,2.6,4.34,3.87,2.89,2.51,4.33,3.71,2.86,2.35,4.19,3.34c.67.5,1.31.95,1.84,1.29l.34.22.15.09,0,0,.11.12c.05.06,0,.11.1.16s.19.08.44.07a6.9,6.9,0,0,0,2.53-1,21.88,21.88,0,0,0,3.46-2.59,46.15,46.15,0,0,0,3.56-3.57,89.67,89.67,0,0,0,6.72-8.65c2.13-3.09,3.65-5.47,5.58-8.76a14.44,14.44,0,0,0,13.12,5,118.4,118.4,0,0,1-5.07,11.72A92.66,92.66,0,0,1,608.92,158a58.12,58.12,0,0,1-4.34,5.51,40,40,0,0,1-5.64,5.28,29.16,29.16,0,0,1-3.68,2.38,23.39,23.39,0,0,1-4.56,1.9,20.57,20.57,0,0,1-5.51.87,19.77,19.77,0,0,1-5.83-.74,21,21,0,0,1-2.7-1L576,172l-.53-.26-.5-.25-.47-.25c-1.22-.66-2.26-1.29-3.26-1.93-2-1.26-3.77-2.51-5.52-3.78s-3.4-2.55-5-3.84-3.27-2.59-4.86-3.91-3.17-2.63-4.73-4-3.09-2.69-4.63-4-3-2.73-4.55-4.11l-2.24-2.09-1.12-1.06c-.38-.36-.74-.7-1.13-1.09Z"/><path class="cls-12" d="M560.72,162.74a.63.63,0,0,1-.31-.1c-5.94-4.17-16.52-12.94-16.62-13a.54.54,0,0,1-.08-.77.55.55,0,0,1,.77-.07c.11.09,10.65,8.83,16.56,13a.54.54,0,0,1,.13.75A.56.56,0,0,1,560.72,162.74Z"/><path class="cls-12" d="M548.42,153.25h-.08l-4.19-.61a.54.54,0,1,1,.16-1.07l4.19.61a.54.54,0,0,1,.46.61A.55.55,0,0,1,548.42,153.25Z"/><path class="cls-12" d="M617.75,141.71a.55.55,0,0,0,.28-.61.56.56,0,0,0-.66-.42c-7.88,1.72-11.81-5.81-11.85-5.88a.56.56,0,0,0-.75-.24h0a.55.55,0,0,0-.24.74c0,.08,4.37,8.36,13.08,6.46Z"/><path class="cls-12" d="M613.69,141.86a.59.59,0,0,0,.26-.28l2.59-6.06a.56.56,0,0,0-.29-.73.55.55,0,0,0-.72.29l-2.6,6.07a.56.56,0,0,0,.29.73A.59.59,0,0,0,613.69,141.86Z"/><path class="cls-12" d="M609,136a1,1,0,0,0,1.3.41,1,1,0,0,0-.89-1.71A1,1,0,0,0,609,136Z"/><path class="cls-12" d="M584,161.22a.53.53,0,0,0,.29-.4,23.5,23.5,0,0,1,1.61-5.51.55.55,0,0,0-1-.5,24.1,24.1,0,0,0-1.72,5.83.56.56,0,0,0,.45.64A.54.54,0,0,0,584,161.22Z"/><path class="cls-12" d="M587.6,160l.1-.07a.55.55,0,0,0,.07-.78,9.94,9.94,0,0,1-1.92-3.68.56.56,0,0,0-.66-.43.55.55,0,0,0-.43.65,11.11,11.11,0,0,0,2.16,4.17A.54.54,0,0,0,587.6,160Z"/></g><path class="cls-26" d="M483.22,270.15c13.08,7.53,44.72,11.41,65.36,3.22,7.57-3,8.9-4.86,8.32-18.45,0-.51,0-1-.07-1.52-.05-1.07-.12-2.14-.2-3.19q-.06-.78-.12-1.53c-.15-1.9-.34-3.76-.54-5.55-.05-.49-.11-1-.16-1.46a85,85,0,0,0-1.92-10.32c-.13-.5-.26-1-.38-1.42-.73-2.72-1.32-4.35-1.32-4.35a83.68,83.68,0,0,1-10.2,1l-1.46.05c-17.85.47-36-3.57-44.43-5.76l-1.41-.37c-2.19-.59-3.42-1-3.42-1s-.78,1.35-1.86,3.58l-.63,1.32A74.31,74.31,0,0,0,483.64,239c0,.07,0,.14-.05.21-.1.48-.21,1-.31,1.44l-.06.3c-.86,4-1.63,8.27-2.16,12.32h0c-.07.52-.13,1-.2,1.55C479.83,263.71,479.68,268.11,483.22,270.15Z"/><path class="cls-27" d="M483.22,241l.09,0a20.5,20.5,0,0,0,7-6.55c.28-.4.54-.81.8-1.23h0a44.86,44.86,0,0,0,5-12.26l-1.41-.37a43.23,43.23,0,0,1-4.88,12q-.39.65-.81,1.23a19.52,19.52,0,0,1-5.36,5.3c0,.07,0,.14-.05.21-.1.48-.21,1-.31,1.44Z"/><path class="cls-27" d="M540.53,226.62a41,41,0,0,0,3.4,13c.23.46.46.91.7,1.35a19.76,19.76,0,0,0,5.07,6.1,15.82,15.82,0,0,0,6.93,3.14q-.06-.78-.12-1.53a14.25,14.25,0,0,1-5.94-2.79,18,18,0,0,1-4.42-5.21c-.26-.43-.5-.88-.73-1.34A38.72,38.72,0,0,1,542,226.57Z"/><path class="cls-27" d="M488.78,224.42c1,.45,2.1.91,3.26,1.38l1.37.54a97.83,97.83,0,0,0,25.08,6.32l1.1.1a136.87,136.87,0,0,0,24.68-.25l1.53-.15c3.06-.31,5.8-.67,8.09-1-.13-.5-.26-1-.38-1.42-2.34.34-5.16.71-8.31,1l-1.51.14a132.87,132.87,0,0,1-25.05.1,96.67,96.67,0,0,1-24.52-6.14h0l-1.36-.55c-1.2-.48-2.32-.95-3.35-1.41Z"/><path class="cls-26" d="M468.46,332.32c1.91-29.51,6.25-56.87,12.6-79l35.09,16.34c-1.09,26.86-6.49,45.46-12.7,62.7Z"/><path class="cls-27" d="M497.77,332.32c10.19-29,12-52.8,12-53.11a.73.73,0,0,1,1.46.11c0,.3-1.8,24-11.9,53Z"/><path class="cls-26" d="M523.12,332.32c-2.16-21-4.66-46.71-5-56.68l38.76-20.72s6.83,23.58,2.36,77.4Z"/><path class="cls-27" d="M526.67,332.32l-6.5-53.68a.83.83,0,1,1,1.65-.2l6.53,53.88Z"/><path class="cls-27" d="M514.77,270.88a.74.74,0,0,1-.81.64h0a.73.73,0,0,1-.64-.82c.33-2.72.64-5.51.93-8.3,0-.5.11-1,.16-1.48,1-9.13,1.71-18.12,2.22-24.47,0-.51.08-1,.12-1.49.11-1.39.2-2.63.28-3.68h1.47c-.08,1-.18,2.29-.29,3.7,0,.48-.07,1-.11,1.49-.51,6.3-1.27,15.21-2.21,24.28l-.15,1.51C515.43,265.16,515.11,268.06,514.77,270.88Z"/><path class="cls-27" d="M518.42,261.7a18.45,18.45,0,0,1-2.68.57c-.47.06-1,.11-1.49.13a10.77,10.77,0,0,1-1.39,0,4.89,4.89,0,0,1-2.35-.81,3.11,3.11,0,0,1-1.26-2.57c-.06-2.87.77-14.57,1.4-22.83,0-.51.07-1,.11-1.48.1-1.33.19-2.53.27-3.55l1.47.06c-.08,1-.18,2.25-.28,3.58,0,.48-.07,1-.11,1.49-.62,8.24-1.45,19.92-1.4,22.71a1.63,1.63,0,0,0,.66,1.41,5.06,5.06,0,0,0,3,.56,11.76,11.76,0,0,0,1.48-.16,15.72,15.72,0,0,0,2.11-.46.74.74,0,0,1,.91.49A.72.72,0,0,1,518.42,261.7Z"/><polygon class="cls-24" points="498.93 419.39 497.16 431.84 483.49 431.72 484.12 418.89 498.93 419.39"/><path class="cls-26" d="M449.55,453l51.73.45a7.34,7.34,0,0,0,.71-2.87c.36-4.37-1-11.37-1.62-15.78-.08-.51-.15-1-.2-1.43a15.93,15.93,0,0,1-.14-1.8c0-3.59-3.16-3-3.16-3-5.27,5.08-11.14-2.66-14.62-.17,0,0-1.5,1.06-5.64,4.72s-11.14,6-17.11,8.47c-7.71,3.15-9.91,6.33-10.35,8.54A4,4,0,0,0,449.55,453Z"/><path class="cls-28" d="M449.55,453l51.73.45a7.34,7.34,0,0,0,.71-2.87l-52.84-.45A4,4,0,0,0,449.55,453Z"/><path class="cls-28" d="M496,453.43l1.54,0a11.37,11.37,0,0,1-2.71-8.31,14.58,14.58,0,0,1,5.54-10.31c-.08-.51-.15-1-.2-1.43a15.86,15.86,0,0,0-6.57,11.67A12.57,12.57,0,0,0,496,453.43Z"/><path class="cls-9" d="M477.46,436.21a.85.85,0,0,0,.22-1.68l-3.22-.83a.85.85,0,1,0-.43,1.65l3.23.83A.69.69,0,0,0,477.46,436.21Z"/><path class="cls-9" d="M480.7,433.54a.84.84,0,0,0,.83-.64.86.86,0,0,0-.61-1l-3.23-.83a.86.86,0,0,0-.42,1.66l3.22.83Z"/><path class="cls-9" d="M474.21,438.06a.85.85,0,0,0,.22-1.68l-3.22-.83a.85.85,0,1,0-.43,1.65L474,438Z"/><path class="cls-9" d="M471,439.83a.85.85,0,0,0,.22-1.67l-3.23-.83a.85.85,0,0,0-1,.61.86.86,0,0,0,.62,1l3.22.83A.75.75,0,0,0,471,439.83Z"/><path class="cls-9" d="M467.43,441.47a.85.85,0,0,0,.22-1.67l-3.23-.83a.84.84,0,0,0-1,.61.85.85,0,0,0,.61,1l3.22.83A.75.75,0,0,0,467.43,441.47Z"/><path class="cls-9" d="M463.6,442.87a.86.86,0,0,0,.83-.64.85.85,0,0,0-.61-1l-3.23-.83a.85.85,0,1,0-.42,1.65l3.22.83A.76.76,0,0,0,463.6,442.87Z"/><polygon class="cls-26" points="468.46 332.32 475.86 426.63 512.5 427.89 503.45 332.32 468.46 332.32"/><polygon class="cls-26" points="523.12 332.32 533.61 426.51 567.32 427.63 559.25 332.32 523.12 332.32"/><polygon class="cls-24" points="554.93 427.39 553.16 431.84 539.49 431.72 540.12 426.89 554.93 427.39"/><path class="cls-26" d="M505.55,453l51.73.45a7.34,7.34,0,0,0,.71-2.87c.36-4.37-1-11.37-1.62-15.78-.08-.51-.15-1-.2-1.43a15.93,15.93,0,0,1-.14-1.8c0-3.59-3.16-3-3.16-3-5.27,5.08-11.14-2.66-14.62-.17,0,0-1.5,1.06-5.64,4.72s-11.14,6-17.11,8.47c-7.71,3.15-9.91,6.33-10.35,8.54A4,4,0,0,0,505.55,453Z"/><path class="cls-28" d="M505.55,453l51.73.45a7.34,7.34,0,0,0,.71-2.87l-52.84-.45A4,4,0,0,0,505.55,453Z"/><path class="cls-28" d="M552,453.43l1.54,0a11.37,11.37,0,0,1-2.71-8.31,14.58,14.58,0,0,1,5.54-10.31c-.08-.51-.15-1-.2-1.43a15.86,15.86,0,0,0-6.57,11.67A12.57,12.57,0,0,0,552,453.43Z"/><path class="cls-9" d="M533.46,436.21a.85.85,0,0,0,.22-1.68l-3.22-.83a.85.85,0,0,0-.43,1.65l3.23.83A.69.69,0,0,0,533.46,436.21Z"/><path class="cls-9" d="M536.7,433.54a.84.84,0,0,0,.83-.64.86.86,0,0,0-.61-1l-3.23-.83a.86.86,0,0,0-.42,1.66l3.22.83Z"/><path class="cls-9" d="M530.21,438.06a.85.85,0,0,0,.22-1.68l-3.22-.83a.85.85,0,0,0-.43,1.65L530,438Z"/><path class="cls-9" d="M527,439.83a.85.85,0,0,0,.22-1.67l-3.23-.83a.85.85,0,0,0-1,.61.86.86,0,0,0,.62,1l3.22.83A.75.75,0,0,0,527,439.83Z"/><path class="cls-9" d="M523.43,441.47a.85.85,0,0,0,.22-1.67l-3.23-.83a.84.84,0,0,0-1,.61.85.85,0,0,0,.61,1l3.22.83A.75.75,0,0,0,523.43,441.47Z"/><path class="cls-9" d="M519.6,442.87a.86.86,0,0,0,.83-.64.85.85,0,0,0-.61-1l-3.23-.83a.85.85,0,1,0-.42,1.65l3.22.83A.76.76,0,0,0,519.6,442.87Z"/><path class="cls-9" d="M521.21,99.5A5.94,5.94,0,1,0,513.56,96,5.95,5.95,0,0,0,521.21,99.5Zm-3.87-10.32a5.07,5.07,0,1,1-3,6.54A5.08,5.08,0,0,1,517.34,89.18Z"/><path class="cls-9" d="M524.57,92.63a.39.39,0,0,0,.18,0,11.86,11.86,0,0,1,7.3-.35.54.54,0,0,0,.66-.25.42.42,0,0,0-.28-.56,12.87,12.87,0,0,0-8.09.38.41.41,0,0,0-.26.57A.51.51,0,0,0,524.57,92.63Z"/><path class="cls-9" d="M506.05,100.91a5.94,5.94,0,1,0-7.65-3.47A5.95,5.95,0,0,0,506.05,100.91ZM502.18,90.6a5.07,5.07,0,1,1-3,6.53A5.06,5.06,0,0,1,502.18,90.6Z"/><path class="cls-9" d="M513.08,93.39a1,1,0,0,0,.22-.18.4.4,0,0,0-.1-.62,3.67,3.67,0,0,0-3.64.54.45.45,0,0,0-.16.65.54.54,0,0,0,.72,0,2.49,2.49,0,0,1,2.44-.4A.6.6,0,0,0,513.08,93.39Z"/><path class="cls-6" d="M342.7,283.61s2.06,6.58,7.2,7.09c4.16.42,7.41-4,8.51-5.66.26-.4.4-.65.4-.65s.3,0,.75-.08c1.05-.16,2.88-.64,3.43-2,.78-2-3.18-2.7-3.18-2.7s1.7-2,1-3.18-3.29-1.07-3.29-1.07,2.55-2.2,1.39-3.65c-1.74-2.18-4.28.83-4.49,1,.16-.23,6.69-10.13,4.61-10.52-1.82-.35-7.83,7.64-9.43,9.82l-.4.55-.34-.17c-1-.5-4.14-1.77-5.76,0C341.18,274.54,342.7,283.61,342.7,283.61Z"/><path class="cls-7" d="M355.39,280.8a4.2,4.2,0,0,0-1.58,2.12,1.28,1.28,0,0,0,.32,1.18,2.37,2.37,0,0,0,.95.5,12.56,12.56,0,0,0,3.33.44c.26-.4.4-.66.4-.66a5.4,5.4,0,0,0,.75-.07.4.4,0,0,0-.22-.06c-1.48,0-4.06-.13-4.64-.71a.45.45,0,0,1-.11-.46,4.83,4.83,0,0,1,2.64-2.46.38.38,0,0,0,.23-.47.39.39,0,0,0-.44-.29c-1,.16-3.69.36-4.54-.49-.12-.12-.1-.2-.09-.24a1.28,1.28,0,0,1,.52-.63,9.89,9.89,0,0,1,2.22-1.2.34.34,0,0,0,.18-.15.39.39,0,0,0,0-.36.39.39,0,0,0-.51-.23,10.83,10.83,0,0,0-2.24,1.17,3.8,3.8,0,0,0-.76.73,1.49,1.49,0,0,0-.24.51,1,1,0,0,0,.32,1C352.67,280.68,354.18,280.82,355.39,280.8Z"/><path class="cls-7" d="M351.53,275a.39.39,0,0,1,.09.44,2.68,2.68,0,0,0-.26,1.25.44.44,0,0,0,.26.39,1.52,1.52,0,0,0,.69.09,12.23,12.23,0,0,0,2.72-.58.58.58,0,0,1-.19.15,9.71,9.71,0,0,0-2.22,1.2l-.28,0a3.13,3.13,0,0,1-.78-.06l-.28-.1a1.22,1.22,0,0,1-.7-1,3.17,3.17,0,0,1,.31-1.69.39.39,0,0,1,.63-.13Z"/><path class="cls-7" d="M344.4,276.35a13.39,13.39,0,0,0,2.83,1.37,4.48,4.48,0,0,0,2.37.23,2,2,0,0,0,1.31-1c1-1.85-.36-3.89-1.27-4.95l-.4.55-.34-.17c.78.86,2.14,2.68,1.31,4.18a1.17,1.17,0,0,1-.8.62c-1.38.34-3.77-1-4.57-1.49a.4.4,0,1,0-.44.66Z"/><path class="cls-7" d="M348.48,287a.43.43,0,0,0,.39-.08.4.4,0,0,0,0-.56,3.59,3.59,0,0,1-1-2.87c.3-2.61,3.44-4.83,3.47-4.85a.4.4,0,1,0-.46-.65c-.14.1-3.46,2.44-3.81,5.41a4.37,4.37,0,0,0,1.22,3.49A.45.45,0,0,0,348.48,287Z"/><g id="_7Au6rc.tif" data-name="7Au6rc.tif"><path class="cls-30" d="M379.12,131.52c0-.85.34-1.93-.15-2.48s-1.61-.17-2.45-.18c-2.77,0-5.54,0-8.31,0-.3,0-.65.15-.9-.16,3.56,0,7.13,0,10.69,0,.87,0,1.21-.14,1.4-1.12a13.08,13.08,0,1,1,16.92,15,13.23,13.23,0,0,1-9.41-.45c-.4-.25-.85-.42-1.26-.67a12.94,12.94,0,0,1-6.36-9.31A3.86,3.86,0,0,0,379.12,131.52Z"/><path class="cls-31" d="M379.12,131.52c-3.69,0-7.37,0-11.06,0-.52,0-.83.06-1,.68a7,7,0,0,1-6.32,4.95,6.84,6.84,0,0,1-7-4.51,1.45,1.45,0,0,0-1.69-1.14c-6.52,0-13,0-19.55,0a1,1,0,0,0-1.17.82,7.05,7.05,0,0,1-13.46-.24c-.17-.56-.48-.57-.91-.57-1.95,0-3.89,0-5.84,0-4.7-.07-8.33-2.1-10.47-6.3a11,11,0,0,1,1.1-12.31,10.87,10.87,0,0,1,9-4.53c8-.06,15.92,0,23.88,0a1,1,0,0,0,1.16-.84,7.05,7.05,0,0,1,13.41.1c.2.62.49.73,1.06.73h23.62a8.77,8.77,0,0,0,2.27-17.28,9.59,9.59,0,0,0-2.45-.27c-1.86,0-3.71,0-5.57,0-.6,0-.92.11-1.11.79a7,7,0,0,1-13.58-.68c-.23-.29-.54-.14-.81-.14-6.77,0-13.53,0-20.3,0-.64,0-1,.15-1,.81a7,7,0,0,1-13.38.06.94.94,0,0,0-1.09-.82q-5.13,0-10.26,0c-.66,0-.86.2-1,.86-1.05,5.22-4.12,8.78-9.23,10.25a13,13,0,0,1-16-16.66A12.36,12.36,0,0,1,290,76.67a13,13,0,0,1,15.61,10.59c.11.6.32.76.9.75q5.2,0,10.43,0c.57,0,.79-.18,1-.74a7,7,0,0,1,6.46-4.91,6.83,6.83,0,0,1,6.84,4.58c.32.91.76,1.08,1.64,1.08,6.54,0,13.08,0,19.63,0,.55,0,.87-.07,1.08-.7a7,7,0,0,1,13.5.17c.17.52.46.52.86.52,2.12,0,4.25,0,6.37,0a11.57,11.57,0,0,1-.13,23.14c-7.93,0-15.86,0-23.79,0a1.05,1.05,0,0,0-1.23.87,7,7,0,0,1-13.38-.08c-.2-.66-.49-.79-1.11-.79-7.87,0-15.74,0-23.61,0a8.77,8.77,0,1,0,0,17.53c2,0,3.95,0,5.93,0a.83.83,0,0,0,1-.73,7,7,0,0,1,6.53-4.94,6.92,6.92,0,0,1,6.74,4.5,1.52,1.52,0,0,0,1.74,1.19c6.52-.06,13,0,19.55,0,.54,0,.88-.06,1.09-.7a7,7,0,0,1,13.56.33c0,.11.11.21.16.32a1.8,1.8,0,0,0,.95.08h10.06c.95,0,1.06.09,1.07,1.06C379.39,130.4,379.54,131,379.12,131.52Z"/><path class="cls-32" d="M331.35,91.56c-.1-.67.14-.9.86-.9,6.82,0,13.64,0,20.46,0,.27,0,.6-.12.78.23-.32,0-.64-.09-1-.09-6.66,0-13.33,0-20,0C331.88,90.8,331.49,91,331.35,91.56Z"/><path class="cls-33" d="M385.65,141.41a2,2,0,0,1,1.26.67A2.06,2.06,0,0,1,385.65,141.41Z"/><path class="cls-34" d="M288.73,91.56c-.92,0-1.83,0-2.74,0s-1.15-.32-1.14-1.1,0-1.41,0-2.12.37-1.1,1.14-1.1c1.74,0,3.48,0,5.21,0,.75,0,1.1-.14,1-1a11.89,11.89,0,0,1,0-1.58c0-.36,0-.72.37-.93s.74,0,1.06.2l5.17,3.68c.48.34,1,.67,1.44,1s.63.94,0,1.36c-2.26,1.64-4.54,3.25-6.83,4.85-.67.46-1.21.15-1.25-.67a12.69,12.69,0,0,1,0-1.85c.05-.63-.13-.9-.82-.85C290.5,91.61,289.61,91.56,288.73,91.56Z"/><path class="cls-35" d="M342.24,114c-1.95.17-4.13-2.2-4-4.38a4.34,4.34,0,0,1,4.35-4.11,4.25,4.25,0,1,1-.34,8.49Z"/><path class="cls-36" d="M324.62,134.35a4.25,4.25,0,0,1-4.21-4.29,4.26,4.26,0,0,1,8.51.08A4.22,4.22,0,0,1,324.62,134.35Z"/><path class="cls-37" d="M360.26,134.35a4.22,4.22,0,0,1-4.19-4.31,4.26,4.26,0,0,1,8.51.12A4.24,4.24,0,0,1,360.26,134.35Z"/><path class="cls-35" d="M324.73,85.18a4.24,4.24,0,0,1,4.19,4.32,4.26,4.26,0,1,1-4.19-4.32Z"/><path class="cls-38" d="M360.34,85.18a4.24,4.24,0,1,1-4.26,4.24A4.25,4.25,0,0,1,360.34,85.18Z"/><path class="cls-39" d="M375.17,108.66H349.59v-.08H375.2Z"/><path class="cls-40" d="M335.36,111H309.82v-.08H335.4Z"/><ellipse class="cls-41" cx="322.66" cy="108.62" rx="17.98" ry="0.05"/><ellipse class="cls-42" cx="362.2" cy="110.9" rx="17.84" ry="0.04"/><path class="cls-43" d="M284.51,90.81V88h.08v2.79Z"/><path class="cls-44" d="M291.77,76.6H294v.08h-2.26Z"/><path class="cls-45" d="M329.11,90.14V88.59h.07v1.55Z"/><path class="cls-46" d="M355.8,90.15V88.6h.07v1.55Z"/><path class="cls-47" d="M329.19,129.38v1.54h-.07v-1.55Z"/><ellipse class="cls-48" cx="355.84" cy="130.09" rx="0.05" ry="1"/><path class="cls-34" d="M385.63,130.15a1.8,1.8,0,0,1,2.94-1.42,12.07,12.07,0,0,1,1.44,1.42c.43.5.73.49,1.2,0,1.4-1.46,2.85-2.88,4.3-4.32a1.83,1.83,0,1,1,2.57,2.57q-3,3-6.06,6.06a1.76,1.76,0,0,1-2.78,0c-1-1-2-2-3.06-3.06A1.58,1.58,0,0,1,385.63,130.15Z"/><path class="cls-49" d="M344.81,109.74a2.32,2.32,0,1,1-2.36-2.29A2.21,2.21,0,0,1,344.81,109.74Z"/><path class="cls-50" d="M327,130.19a2.18,2.18,0,0,1-2.38,2.24,2.22,2.22,0,0,1-2.24-2.33,2.31,2.31,0,1,1,4.62.09Z"/><path class="cls-50" d="M360.32,127.79a2.29,2.29,0,0,1,2.34,2.36,2.41,2.41,0,0,1-2.38,2.35,2.28,2.28,0,0,1-2.25-2.44A2.25,2.25,0,0,1,360.32,127.79Z"/><path class="cls-51" d="M327,89.41a2.22,2.22,0,0,1-2.33,2.33,2.28,2.28,0,0,1-2.31-2.37,2.24,2.24,0,0,1,2.4-2.26A2.18,2.18,0,0,1,327,89.41Z"/><path class="cls-52" d="M360.29,87.11a2.21,2.21,0,0,1,2.36,2.29,2.27,2.27,0,0,1-2.34,2.34A2.37,2.37,0,0,1,358,89.38,2.3,2.3,0,0,1,360.29,87.11Z"/></g><circle class="cls-9" cx="278.47" cy="75.19" r="4.62"/></g></svg>