<svg id="svg" xmlns="http://www.w3.org/2000/svg" xmlns:xlink="http://www.w3.org/1999/xlink" width="400" height="427.64976958525347" viewBox="0, 0, 400,427.64976958525347"><g id="svgg"><path id="path0" d="M275.708 2.897 C 273.950 4.654,272.760 9.184,272.682 14.417 C 272.503 26.327,270.855 29.530,263.499 32.266 C 260.003 33.566,254.513 35.705,251.298 37.019 C 245.639 39.332,245.131 39.131,235.225 30.669 C 223.248 20.436,222.354 20.597,209.481 35.314 L 201.125 44.865 210.127 55.638 L 219.128 66.410 214.862 76.062 C 212.516 81.371,210.104 87.166,209.503 88.940 C 208.800 91.017,206.512 92.166,203.080 92.166 C 200.148 92.166,193.901 92.693,189.197 93.338 L 180.645 94.510 180.645 110.633 L 180.645 126.756 194.586 128.062 C 207.433 129.266,208.677 129.753,210.439 134.270 C 211.491 136.965,213.958 142.782,215.922 147.195 L 219.492 155.220 211.129 165.379 C 200.800 177.926,200.702 176.659,212.943 188.900 C 225.193 201.149,223.903 201.055,236.579 190.620 L 246.854 182.161 258.449 186.821 C 270.997 191.863,272.295 193.775,272.627 207.702 C 272.872 217.955,276.436 221.198,287.459 221.198 C 306.816 221.198,307.226 220.874,308.661 204.422 C 309.696 192.549,310.503 189.851,313.030 189.804 C 314.734 189.772,320.189 187.758,325.151 185.327 L 334.173 180.908 345.386 189.981 L 356.599 199.055 367.240 188.525 C 380.014 175.884,379.980 176.246,369.613 163.654 L 361.347 153.612 364.900 144.548 C 366.854 139.563,368.841 134.159,369.314 132.539 C 369.958 130.337,373.546 129.312,383.546 128.474 C 399.296 127.153,399.944 126.448,399.944 110.599 C 399.944 94.750,399.296 94.045,383.546 92.724 C 373.553 91.887,369.955 90.859,369.304 88.659 C 368.824 87.039,366.757 81.387,364.710 76.098 L 360.988 66.481 369.434 56.113 C 379.817 43.367,380.024 45.324,366.925 32.362 L 355.971 21.522 349.875 26.310 C 346.522 28.943,341.323 33.121,338.321 35.593 C 332.889 40.067,332.832 40.072,326.339 36.728 C 322.751 34.880,317.654 32.562,315.011 31.577 C 309.949 29.689,307.898 23.211,307.854 8.971 C 307.831 1.152,305.548 0.065,289.072 0.025 C 281.986 0.008,277.668 0.936,275.708 2.897 M305.410 71.996 C 320.737 77.757,333.580 99.861,330.728 115.569 C 321.957 163.881,253.770 161.396,251.017 112.664 C 249.328 82.782,277.689 61.577,305.410 71.996 M277.419 78.158 C 274.378 79.498,269.492 82.991,266.562 85.920 C 235.402 117.065,280.568 164.894,313.253 135.365 C 341.385 109.950,311.941 62.943,277.419 78.158 M304.710 88.226 C 327.274 103.104,315.350 138.380,288.600 135.886 C 264.487 133.638,256.526 100.918,277.048 88.405 C 284.660 83.763,297.812 83.678,304.710 88.226 M157.673 145.509 C 156.950 146.679,154.035 154.027,151.195 161.837 L 146.032 176.037 132.463 178.020 C 125.000 179.111,117.107 180.594,114.922 181.315 C 111.504 182.443,109.492 180.557,100.509 167.811 C 88.634 150.960,89.666 151.398,76.989 157.822 C 50.792 171.097,50.882 170.908,60.909 191.643 L 68.362 207.055 62.120 213.666 C 57.230 218.845,50.871 227.242,47.014 233.613 C 46.870 233.852,39.758 232.816,31.210 231.312 C 9.720 227.530,10.362 227.371,6.900 237.327 C 2.879 248.887,-0.369 267.681,1.378 269.277 C 2.141 269.974,9.911 273.228,18.646 276.509 L 34.527 282.473 35.616 296.536 C 36.215 304.271,37.149 312.258,37.693 314.286 C 38.582 317.605,28.344 326.420,10.691 337.535 C 7.264 339.692,27.276 374.253,31.886 374.138 C 33.104 374.108,40.735 370.948,48.843 367.115 L 63.585 360.148 73.135 367.631 C 78.387 371.747,84.527 376.407,86.780 377.985 C 90.875 380.854,90.875 380.863,88.099 398.869 L 85.321 416.882 90.126 418.713 C 94.565 420.405,123.092 427.607,125.470 427.637 C 126.045 427.644,129.363 419.779,132.843 410.158 L 139.171 392.667 146.603 392.647 C 150.691 392.636,158.388 391.498,163.707 390.118 L 173.379 387.609 183.788 402.560 C 189.513 410.783,194.385 417.777,194.616 418.101 C 196.293 420.461,230.415 398.821,230.415 395.396 C 230.415 394.075,227.220 386.045,223.315 377.553 L 216.215 362.112 224.246 352.985 C 228.663 347.965,232.743 342.389,233.313 340.593 C 234.664 336.336,244.329 336.718,268.514 341.982 C 273.099 342.980,279.326 327.611,281.387 310.209 L 282.485 300.933 266.210 294.616 L 249.935 288.300 247.468 271.112 C 246.111 261.658,245.245 253.746,245.542 253.529 C 245.840 253.312,252.519 248.426,260.386 242.670 L 274.690 232.205 269.816 222.554 C 256.074 195.344,254.726 194.625,234.991 203.997 C 225.627 208.444,219.990 210.180,218.525 209.066 C 216.003 207.149,200.013 195.446,196.020 192.595 C 193.750 190.974,193.773 188.376,196.188 173.447 C 197.724 163.946,198.580 155.523,198.088 154.728 C 195.224 150.093,159.830 142.020,157.673 145.509 M160.131 235.685 C 195.728 249.211,206.425 294.834,180.158 321.102 C 147.324 353.936,90.323 331.593,90.323 285.890 C 90.323 248.267,125.902 222.679,160.131 235.685 M128.346 242.338 C 94.353 254.455,87.766 300.597,117.094 321.152 C 141.962 338.580,176.948 326.537,185.344 297.659 C 195.417 263.008,161.824 230.404,128.346 242.338 M154.412 253.544 C 178.848 263.754,184.013 293.523,164.235 310.165 C 146.055 325.462,119.989 318.282,111.323 295.590 C 101.486 269.833,129.042 242.944,154.412 253.544 " stroke="none" fill="#000000" fill-rule="evenodd"></path></g></svg>