<svg id="Layer_1" data-name="Layer 1" xmlns="http://www.w3.org/2000/svg" xmlns:xlink="http://www.w3.org/1999/xlink" viewBox="0 0 2201.72 1553.57"><defs><style>.cls-1,.cls-2{fill:none;}.cls-2{stroke:#000;stroke-miterlimit:10;stroke-width:3px;}.cls-3{opacity:0.8;}.cls-4{fill:#f7ddd4;}.cls-5{fill:#fcedee;}.cls-6{fill:#0b595b;}.cls-7{fill:#04323b;}.cls-8{fill:#4c8f8d;}.cls-9{fill:#fcc173;}.cls-10{fill:#f79543;}.cls-11{fill:#0c302d;}.cls-12{fill:#edcfc4;}.cls-13{fill:#e37057;}.cls-14{fill:#fff;}.cls-15{fill:#3c4d4f;}.cls-16{fill:#607a7a;}.cls-17{fill:#328080;}.cls-18{fill:#6cb0db;}.cls-19{fill:#ef5f54;}.cls-20{fill:#f0e3df;}.cls-21{clip-path:url(#clip-path);}.cls-22{fill:#ffa28f;}.cls-23{fill:#de7a68;}.cls-24{fill:#3c87ad;}.cls-25{fill:#c64b37;}.cls-26{fill:#1e1e1e;}.cls-27{fill:#eb6b62;}.cls-28{fill:#d07630;}</style><clipPath id="clip-path"><rect class="cls-1" x="592.09" y="190.59" width="940.57" height="826.29"/></clipPath></defs><path class="cls-2" d="M886.52,409.62C883.54,236,1003.72,30.75,1262,101.51c135,37,315.61-85.92,410.57-27.12S1779.23,464.06,1839,600.86C1965,889.57,1783.11,996.62,1621.71,1029c-37.67,7.56-197.72,1.11-233.26,8.16-44.21,8.77-78.66,30.58-98.57,55.28-41.76,51.84-123.76,86.68-195.43,83-185.54-9.62-299.92-118.93-332-278.67S889.61,589.76,886.52,409.62Z"/><g class="cls-3"><path class="cls-4" d="M311.32,329.85a16.91,16.91,0,0,1,18.93,10.6c4.81,13-7.79,27.63-24.74,21.08h0C290.89,350.71,297.26,332.43,311.32,329.85Z"/><circle class="cls-4" cx="1899.25" cy="260.61" r="34" transform="translate(1336.79 2093.29) rotate(-80.75)"/><circle class="cls-4" cx="381.31" cy="312.31" r="34.35" transform="translate(4.78 630.37) rotate(-79.51)"/><path class="cls-4" d="M1856.12,208.59a20.92,20.92,0,1,1-20.92-20.92A20.92,20.92,0,0,1,1856.12,208.59Z"/></g><path class="cls-5" d="M1940.59,568.3c0-186.84-155.59-391.58-349.21-403.95q-5.1-.33-10.31-.57c-277.57-12.94-298.72,325.61-549.86,363.79S588.29,373,287.79,498.76c-269.89,113-343,747.64,450,773.09C1372.23,1292.21,1940.68,1125.75,1940.59,568.3Z"/><path class="cls-5" d="M2159.18,1409.65c0,12.14-79.07,22-176.61,22s-176.62-9.84-176.62-22,79.08-22,176.62-22S2159.18,1397.51,2159.18,1409.65Z"/><path class="cls-6" d="M1956.05,1027.7s-36.73,8.14-31.27-17.49,5-35.07-9.87-46.72-30-17.4-18.52-35.84-10.26-32.78-21.47-42.71,1.44-17.41,4.41-36.18-17.22-15.94-18.8-39.58,22.43-51.26,1.78-83.79c0,0,27.73,14.38,36.84,39.63s1.75,44.78,18.13,54.38,26.64,26.21,21.07,43.25,2.35,26.08,15.77,38.51,9.86,17.37,8.19,32.57,1.68,11.6,17.06,32.37S1995.13,1020.89,1956.05,1027.7Z"/><path class="cls-7" d="M1961.28,1026.56a1.76,1.76,0,0,1-.19-.39L1887.6,803.1a1.83,1.83,0,0,1,1.16-2.3h0a1.83,1.83,0,0,1,2.28,1.17L1964.57,1025a2,2,0,0,1,.09.55Z"/><path class="cls-6" d="M2022.32,1027.24s36.54,8.09,31.11-17.4-5-34.89,9.82-46.47,29.79-17.31,18.42-35.66,10.2-32.6,21.35-42.48-1.44-17.32-4.39-36,17.13-15.86,18.71-39.37-22.31-51-1.78-83.35c0,0-27.58,14.3-36.64,39.42s-1.74,44.54-18,54.09-26.49,26.07-21,43-2.33,25.94-15.68,38.31-9.81,17.28-8.14,32.39-1.68,11.55-17,32.2S1983.45,1020.46,2022.32,1027.24Z"/><path class="cls-7" d="M2013.76,1025.12a1.71,1.71,0,0,1,.09-.55L2087,802.7a1.81,1.81,0,0,1,2.27-1.17h0a1.82,1.82,0,0,1,1.16,2.29l-73.11,221.88a1.44,1.44,0,0,1-.18.4Z"/><path class="cls-8" d="M1981.75,1022.6s-42-3.49-27.68-29.12,17.06-35.89,4.94-53.32-26.3-28.58-7.93-44.54-.1-38.52-8.81-52.87,7.33-18.17,16.74-37.28-13.14-22.8-7-48.65,41-47.45,29.73-89.15c0,0,24.93,24.61,26.3,54.69s-13,48.53,1.36,64.26,19.83,36.91,8.21,53.32-6.16,28.71,4.1,46.49,4.78,21.87-2,37.6-2.05,13,7.52,40.33S2025.88,1028.28,1981.75,1022.6Z"/><path class="cls-6" d="M1987.74,1023.12a1.61,1.61,0,0,1-.07-.49L1983,759.31a2.05,2.05,0,0,1,2-2.09h0a2.05,2.05,0,0,1,2.05,2l4.64,263.32a2.09,2.09,0,0,1-.08.61Z"/><path class="cls-9" d="M2104.14,1013.7l-3,8.07-1.92,5.11-5.52,14.66-1.93,5.11-5.67,15-1.92,5.1-24.31,64.56H1927l-24.31-64.56-1.92-5.1-5.67-15-1.93-5.11-5.52-14.66-1.92-5.11-3-8.07a8.45,8.45,0,0,1,7.91-11.44h205.62A8.45,8.45,0,0,1,2104.14,1013.7Z"/><polygon class="cls-10" points="2101.1 1021.77 2099.18 1026.88 1887.66 1026.88 1885.74 1021.77 2101.1 1021.77"/><polygon class="cls-10" points="2093.66 1041.54 2091.73 1046.65 1895.11 1046.65 1893.18 1041.54 2093.66 1041.54"/><polygon class="cls-10" points="2086.06 1061.7 2084.14 1066.8 1902.7 1066.8 1900.78 1061.7 2086.06 1061.7"/><polygon class="cls-11" points="2080.3 1093.25 1904.22 1093.25 1902.3 1078.9 2082.22 1078.9 2080.3 1093.25"/><polygon class="cls-11" points="2101.07 1337.33 1884.81 1337.33 1882.45 1322.98 2103.43 1322.98 2101.07 1337.33"/><polygon class="cls-11" points="2120.04 1410.51 2068.72 1093.25 2055.3 1093.25 2108.05 1410.51 2120.04 1410.51"/><polygon class="cls-11" points="1876.97 1410.51 1929.72 1093.25 1916.31 1093.25 1864.98 1410.51 1876.97 1410.51"/><path class="cls-6" d="M349.45,959.19a2.84,2.84,0,0,0-1.05-3.48c-.43-.28-42.76-28.44-84.68-77.45C225.14,833.17,179,760.68,178.31,671.37a2.85,2.85,0,0,0-5.69,0c.32,40.25,9.61,80.51,27.61,119.65,14.38,31.27,34.32,61.89,59.27,91,42.44,49.57,85.34,78.09,85.77,78.37a2.84,2.84,0,0,0,3.94-.81A2.25,2.25,0,0,0,349.45,959.19Z"/><path class="cls-6" d="M201.89,783a2.83,2.83,0,0,0-1-3.47c-1.12-.76-27.92-18.5-59.46-18.22a2.85,2.85,0,0,0,.06,5.7c29.73-.27,56,17.07,56.23,17.24a2.84,2.84,0,0,0,4.21-1.25Z"/><path class="cls-6" d="M249.31,862.89a2.85,2.85,0,0,0,0-2.13c-21.19-55.1,3.48-94.88,3.73-95.27a2.85,2.85,0,1,0-4.8-3.06c-1.09,1.71-26.46,42.62-4.24,100.37a2.84,2.84,0,0,0,5.27.09Z"/><path class="cls-6" d="M292,911.21a2.86,2.86,0,0,0-.9-3.37c-.52-.4-12.92-9.77-32.6-17.54-18.22-7.18-46.3-14.21-76.66-6.87a2.85,2.85,0,1,0,1.34,5.53c55.33-13.37,104,23,104.47,23.41a2.85,2.85,0,0,0,4-.54A4.33,4.33,0,0,0,292,911.21Z"/><path class="cls-8" d="M242,785.25s-11.27-69.54,20.64-73.93C303.09,705.77,280.37,778,242,785.25Z"/><path class="cls-8" d="M215.71,883.28s-57.89-40.13-75.6-13.23C117.66,904.17,192.65,914.8,215.71,883.28Z"/><path class="cls-8" d="M175.24,701.17s-49.87-81.85.58-84.22C207,615.48,206.18,677.9,175.24,701.17Z"/><path class="cls-6" d="M276.2,894.73a2.84,2.84,0,0,0,.2-1.51c-4-28.31,17.57-47.52,17.78-47.71a2.85,2.85,0,1,0-3.74-4.29c-1,.86-24.16,21.46-19.68,52.81a2.85,2.85,0,0,0,5.44.7Z"/><path class="cls-8" d="M131.44,774.33a13.76,13.76,0,1,0-7.31-18A13.75,13.75,0,0,0,131.44,774.33Z"/><path class="cls-8" d="M285.83,855a13.76,13.76,0,1,0-7.31-18A13.75,13.75,0,0,0,285.83,855Z"/><path class="cls-6" d="M1775.22,675.26a2.85,2.85,0,0,1,1.11-3.47c.42-.27,43.12-27.88,85.67-76.34,39.16-44.58,86.23-116.47,88.09-205.77a2.85,2.85,0,0,1,5.69.12c-.84,40.24-10.65,80.37-29.17,119.28-14.78,31.08-35.12,61.44-60.44,90.25-43.08,49-86.34,77-86.77,77.25a2.85,2.85,0,0,1-3.94-.86A4,4,0,0,1,1775.22,675.26Z"/><path class="cls-6" d="M1925.06,501a2.85,2.85,0,0,1,1.08-3.45c1.14-.74,28.16-18.13,59.7-17.44a2.85,2.85,0,1,1-.13,5.69c-29.73-.65-56.19,16.35-56.46,16.52a2.84,2.84,0,0,1-3.93-.83A2.57,2.57,0,0,1,1925.06,501Z"/><path class="cls-6" d="M1876.61,580.27a2.8,2.8,0,0,1,0-2.13c21.91-54.82-2.25-94.92-2.5-95.32a2.85,2.85,0,0,1,4.85-3c1.06,1.73,25.9,43,2.94,100.42a2.84,2.84,0,0,1-3.7,1.58A2.79,2.79,0,0,1,1876.61,580.27Z"/><path class="cls-6" d="M1833.29,628a2.85,2.85,0,0,1,.94-3.36c.52-.39,13-9.6,32.83-17.11,18.3-6.95,46.48-13.61,76.74-5.88a2.85,2.85,0,0,1-1.41,5.52c-55.15-14.09-104.28,21.68-104.77,22a2.84,2.84,0,0,1-4-.59A3.5,3.5,0,0,1,1833.29,628Z"/><path class="cls-8" d="M1884.94,502.73s12.17-69.39-19.68-74.19C1824.87,422.46,1846.66,495,1884.94,502.73Z"/><path class="cls-8" d="M1909.94,601.09s58.41-39.37,75.77-12.25C2007.72,623.25,1932.59,632.91,1909.94,601.09Z"/><path class="cls-8" d="M1952.77,419.52s50.93-81.2.52-84.22C1922.17,333.43,1922.14,395.86,1952.77,419.52Z"/><path class="cls-6" d="M1849.31,611.75a2.84,2.84,0,0,1-.18-1.51c4.42-28.25-17-47.74-17.16-47.94a2.84,2.84,0,1,1,3.79-4.24c1,.88,23.88,21.78,19,53.06a2.85,2.85,0,0,1-5.45.63Z"/><path class="cls-8" d="M1995.62,493.25a13.76,13.76,0,1,1,7.55-17.93A13.76,13.76,0,0,1,1995.62,493.25Z"/><path class="cls-8" d="M1840.19,572a13.76,13.76,0,1,1,7.55-17.94A13.77,13.77,0,0,1,1840.19,572Z"/><ellipse class="cls-12" cx="164.06" cy="483.79" rx="85.85" ry="84.78"/><ellipse class="cls-13" cx="164.06" cy="472.76" rx="85.85" ry="84.78"/><ellipse class="cls-14" cx="164.06" cy="472.76" rx="69.79" ry="68.93"/><path class="cls-12" d="M233.85,472.76c0,1.83-.08,3.65-.22,5.44-2.82-35.47-32.95-63.48-69.57-63.48s-66.76,28-69.58,63.48c-.14-1.79-.21-3.61-.21-5.44,0-38,31.3-68.93,69.79-68.93S233.85,434.75,233.85,472.76Z"/><path class="cls-11" d="M164.06,479.93a1.74,1.74,0,0,1-1.4-.7l-34.24-45.52a1.7,1.7,0,0,1,.36-2.41,1.76,1.76,0,0,1,2.44.35l33.41,44.42,38-16.46a1.76,1.76,0,0,1,2.3.89,1.72,1.72,0,0,1-.9,2.27l-39.24,17A1.76,1.76,0,0,1,164.06,479.93Z"/><ellipse class="cls-5" cx="1060.28" cy="1407.9" rx="940.64" ry="63.21"/><path class="cls-11" d="M363.28,378.26H1762a57.33,57.33,0,0,1,57.33,57.33v823.74a57.32,57.32,0,0,1-57.32,57.32H363.28A57.32,57.32,0,0,1,306,1259.32V435.58A57.32,57.32,0,0,1,363.28,378.26Z"/><path class="cls-5" d="M1752.12,478.24V1165.3c0,20.21-17.49,36.61-39.07,36.61H412.27a40.16,40.16,0,0,1-29.07-12.15,35.15,35.15,0,0,1-10-24.46V478.24c0-20.22,17.5-36.61,39.08-36.61H1713.05a40.75,40.75,0,0,1,19.76,5C1744.36,453,1752.12,464.79,1752.12,478.24Z"/><path class="cls-15" d="M1960.71,1284v5.22A118.75,118.75,0,0,1,1841.94,1408H283.36a118.75,118.75,0,0,1-118.77-118.77V1284Z"/><path class="cls-11" d="M1075.91,1346a17.17,17.17,0,1,1-17.17-17.17A17.17,17.17,0,0,1,1075.91,1346Z"/><path class="cls-11" d="M1015.27,1346a17.17,17.17,0,1,1-17.17-17.17A17.17,17.17,0,0,1,1015.27,1346Z"/><path class="cls-11" d="M1136.56,1346a17.17,17.17,0,1,1-17.17-17.17A17.17,17.17,0,0,1,1136.56,1346Z"/><path class="cls-13" d="M1738.66,1346a17.17,17.17,0,1,1-17.17-17.17A17.17,17.17,0,0,1,1738.66,1346Z"/><path class="cls-9" d="M1799.31,1346a17.17,17.17,0,1,1-17.17-17.17A17.17,17.17,0,0,1,1799.31,1346Z"/><path class="cls-16" d="M861.34,1284v1.2c0,9.4,6.3,17,14.07,17h366.67c7.77,0,14.07-7.63,14.07-17V1284Z"/><path class="cls-14" d="M1752.12,480.71V524H373.19V480.71a39.1,39.1,0,0,1,39.08-39.08H1713.05a39.12,39.12,0,0,1,39.07,39.08Z"/><path class="cls-17" d="M1641.12,484.92a10.34,10.34,0,1,1-10.34-10.34A10.34,10.34,0,0,1,1641.12,484.92Z"/><path class="cls-18" d="M1674.63,484.92a10.34,10.34,0,1,1-10.34-10.34A10.34,10.34,0,0,1,1674.63,484.92Z"/><path class="cls-19" d="M1706.52,484.92a10.34,10.34,0,1,1-10.33-10.34A10.33,10.33,0,0,1,1706.52,484.92Z"/><rect class="cls-5" x="507.5" y="473.98" width="1071.25" height="21.88" rx="10.46"/><path class="cls-11" d="M438.54,484.92V495a1.86,1.86,0,0,1-2.79,1.61L427,491.59l-8.76-5.07a1.85,1.85,0,0,1,0-3.21l8.76-5.07,8.77-5.06a1.86,1.86,0,0,1,2.79,1.61Z"/><path class="cls-11" d="M454,484.92V495a1.85,1.85,0,0,0,2.78,1.61l8.77-5.06,8.77-5.07a1.85,1.85,0,0,0,0-3.21l-8.77-5.07-8.77-5.06a1.85,1.85,0,0,0-2.78,1.61Z"/><rect class="cls-14" x="588.16" y="558.31" width="1001.55" height="562.19" rx="23.47"/><path class="cls-12" d="M1395.22,952.71a19.17,19.17,0,0,0,2.65,10.28c.86,1.46,1.75,2.9,2.57,4.38l14,25.31,9.2-16.58c2.44-4.4,5.09-8.68,7.66-13a19.41,19.41,0,1,0-36.11-10.38Zm11.21-1.84a8.2,8.2,0,1,1,8.2,8.19A8.2,8.2,0,0,1,1406.43,950.87Z"/><path class="cls-12" d="M1317.25,963.78a29.14,29.14,0,1,0,29.14-29.14A29.17,29.17,0,0,0,1317.25,963.78Zm16.35,10.75a38.87,38.87,0,0,1-1.56-10.2h13.17v10.2Zm6.87,15.38a26.72,26.72,0,0,1-17.45-13h8.88a32.39,32.39,0,0,0,5.06,9.28A29.87,29.87,0,0,0,1340.47,989.91Zm4.74-13v13.66a24.34,24.34,0,0,1-6.46-5.9,29.82,29.82,0,0,1-4.35-7.76ZM1335,949.43a36.32,36.32,0,0,1,9.13-12.35l1-.07v12.42Zm-11.27,0a27,27,0,0,1,16.32-11.7,39.17,39.17,0,0,0-3.69,4.55,38.26,38.26,0,0,0-3.92,7.15Zm8.29,12.55a33.67,33.67,0,0,1,2-10.2h11.13V962Zm-12.4,0a26.34,26.34,0,0,1,2.78-10.2h9.15a36,36,0,0,0-1.88,10.2Zm10,2.35a41.44,41.44,0,0,0,1.46,10.2h-9.31a26.66,26.66,0,0,1-2.25-10.2Zm33.1,0h10.37a26.48,26.48,0,0,1-2.25,10.2h-9.58A41.44,41.44,0,0,0,1362.8,964.33Zm-15.24-14.9V937l.74,0a34.62,34.62,0,0,1,5.91,6.61,36,36,0,0,1,3.26,5.76Zm10.86,2.35a33.79,33.79,0,0,1,2,10.2h-12.88v-10.2Zm1.6-2.35a38.26,38.26,0,0,0-3.92-7.15,39.81,39.81,0,0,0-3.77-4.63A27,27,0,0,1,1369,949.43Zm.43,14.9a38.27,38.27,0,0,1-1.55,10.2h-11.34v-10.2Zm2.33-2.35a35.67,35.67,0,0,0-1.88-10.2h9.43a26.34,26.34,0,0,1,2.78,10.2Zm7,14.9a27,27,0,0,1-17.81,13.1,29.1,29.1,0,0,0,3.6-3.82,32.39,32.39,0,0,0,5.06-9.28Zm-11.65,0a27.58,27.58,0,0,1-10.54,13.49V976.88Z"/><path class="cls-12" d="M1482.3,953.59c0-2.52-2.44-3.82-5.45-3.82a9.59,9.59,0,0,0-8.47,5.53l-14.48-7.24c4.15-7.82,12.37-13.19,25.39-13.19,12.78,0,22.3,5.37,22.3,15.55,0,12.45-13,14.65-13,20.91H1471.8C1471.8,961.48,1482.3,958.56,1482.3,953.59Zm-12.86,30.6c0-5.45,4.4-9.6,10.74-9.6s10.75,4.15,10.75,9.6-4.4,9.77-10.75,9.77S1469.44,989.56,1469.44,984.19Z"/><rect class="cls-14" x="1587" y="667.67" width="66.33" height="206.17" rx="2.32"/><rect class="cls-11" x="1598.16" y="751.84" width="36.44" height="28.11" rx="1.66"/><polygon class="cls-11" points="1645.15 751.84 1645.15 779.95 1633.8 770.39 1633.8 761.39 1645.15 751.84"/><circle class="cls-13" cx="1621.66" cy="829.82" r="23.4"/><path class="cls-14" d="M1610.62,843.32a2.45,2.45,0,0,0,1.74-.72l22.07-22.08a2.45,2.45,0,1,0-3.47-3.47l-22.08,22.07a2.46,2.46,0,0,0,1.74,4.2Z"/><path class="cls-14" d="M1632.69,843.32a2.46,2.46,0,0,0,1.74-4.2l-22.07-22.07a2.46,2.46,0,1,0-3.48,3.47L1631,842.6A2.45,2.45,0,0,0,1632.69,843.32Z"/><rect class="cls-11" x="1615.22" y="681.86" width="12.88" height="33.57" rx="1.82" transform="translate(3243.32 1397.28) rotate(180)"/><rect class="cls-11" x="1620.34" y="707.64" width="2.63" height="15.75" rx="0.37" transform="translate(3243.32 1431.03) rotate(180)"/><rect class="cls-11" x="1608.72" y="719.06" width="25.87" height="5.54" rx="0.78" transform="translate(3243.32 1443.66) rotate(180)"/><rect class="cls-5" x="621.59" y="829.77" width="253.87" height="142.52" rx="11.01"/><rect class="cls-5" x="1273.68" y="606.02" width="253.87" height="142.52" rx="11.01"/><rect class="cls-20" x="1273.3" y="833.5" width="254.25" height="12.2" rx="5.83"/><rect class="cls-20" x="1273.3" y="781.89" width="254.25" height="12.2" rx="5.83"/><rect class="cls-20" x="1273.3" y="885.12" width="254.25" height="12.2" rx="5.83"/><rect class="cls-20" x="621.22" y="712.83" width="254.25" height="12.2" rx="5.83"/><rect class="cls-20" x="621.22" y="661.22" width="254.25" height="12.2" rx="5.83"/><rect class="cls-20" x="621.22" y="764.45" width="254.25" height="12.2" rx="5.83"/><path class="cls-11" d="M588.16,1033.2H1589.71v82.11a5.2,5.2,0,0,1-5.2,5.19H593.36a5.2,5.2,0,0,1-5.2-5.19Z"/><path class="cls-14" d="M1517.91,1065.56v-7.4h9.26v-6.59h-12.56a3.29,3.29,0,0,0-3.29,3.3v10.69Z"/><path class="cls-14" d="M1517.91,1078.73h-6.59V1090a3.29,3.29,0,0,0,3.29,3.29h12.56v-6.58h-9.26Z"/><path class="cls-14" d="M1546.44,1065.56H1553v-10.69a3.29,3.29,0,0,0-3.29-3.3h-12.08v6.59h8.78Z"/><path class="cls-14" d="M1546.44,1078.73v8h-8.78v6.58h12.08A3.29,3.29,0,0,0,1553,1090v-11.26Z"/><rect class="cls-20" x="588.16" y="1016.79" width="1001.55" height="16.42"/><path class="cls-11" d="M660.92,589h11.3v24.75h15.13v8.77H660.92Z"/><path class="cls-11" d="M690.46,589h11.3v33.52h-11.3Z"/><path class="cls-11" d="M743,589l-14.17,33.52H717.75L703.58,589h12.16l8,19.58L731.92,589Z"/><path class="cls-11" d="M772,614v8.53H744.13V589h27.24v8.52H755.23v3.93h14.18v8.14H755.23V614Z"/><path class="cls-13" d="M642.32,605.53a13.78,13.78,0,1,1-13.78-13.78A13.78,13.78,0,0,1,642.32,605.53Z"/><g class="cls-21"><path class="cls-22" d="M1362.57,477.61s11.9,27,34,26.7c17.82-.26,29.47-20.45,33.3-28.2.91-1.86,1.38-3,1.38-3a29.62,29.62,0,0,0,3.14-.7c4.35-1.19,11.9-4.09,13.55-10.25,2.36-8.78-14.77-9.94-14.77-9.94s6.22-9.32,2.84-14.05-14.47-2.93-14.47-2.93,9.73-10.61,4.11-16.22c-8.45-8.43-17.72,5.64-18.53,6.49.54-1.07,11.64-20.65,2.62-21.33-7.87-.6-17.67,10.62-23.41,20.7-.91,1.6-1.42,2.52-1.42,2.52s-.56-.24-1.53-.57c-4.58-1.61-18.4-5.52-24.41,2.85C1351.7,439.79,1362.57,477.61,1362.57,477.61Z"/><path class="cls-23" d="M1388.71,489.33a1.7,1.7,0,0,0,1.48-2.94c-3.79-3.37-5.71-7.3-5.7-11.7,0-11.27,12.25-22.22,12.37-22.33a1.7,1.7,0,0,0-2.25-2.55c-.56.49-13.51,12.09-13.53,24.88,0,5.41,2.3,10.2,6.84,14.24A1.75,1.75,0,0,0,1388.71,489.33Z"/><path class="cls-23" d="M1392.64,445a5.3,5.3,0,0,0,3.48,3.89,5.51,5.51,0,0,0,1.21.26,12.11,12.11,0,0,0,3.15-.09,11.68,11.68,0,0,0-1.67,2.27,6,6,0,0,0-.78,2.26,4.45,4.45,0,0,0,1.81,4c3.55,2.82,10,2.68,15.15,2-3,3-5.38,6.67-5.67,9.8a5.34,5.34,0,0,0,1.94,4.86,10,10,0,0,0,4.25,1.7c4.38.89,10.37.6,14.33.25.93-1.86,1.38-3,1.38-3a29.43,29.43,0,0,0,3.15-.7,1.66,1.66,0,0,0-.94-.13c-6.29.87-17.29,1.42-20-.78a2,2,0,0,1-.66-1.9c.31-3.44,5.16-9.14,10-11.73a1.7,1.7,0,0,0-1.25-3.13c-4.06,1.13-15.45,3.32-19.47.11-.58-.46-.55-.8-.52-1a5.65,5.65,0,0,1,1.9-2.93,42.28,42.28,0,0,1,8.82-6.19,1.59,1.59,0,0,0,.72-.73,1.68,1.68,0,0,0,0-1.57,1.71,1.71,0,0,0-2.31-.71c-.53.29-1.64.89-3,1.72a37.7,37.7,0,0,1-7.38,2.2,6.79,6.79,0,0,1-3,0,2,2,0,0,1-1.28-1.55,10.8,10.8,0,0,1,.49-5.45,1.68,1.68,0,0,0-.62-1.81s0,0,0,0a1.67,1.67,0,0,0-2.61.86A14.27,14.27,0,0,0,1392.64,445Z"/><path class="cls-15" d="M1388.48,492.75C1401.29,497,1403,491,1403,491l-2.58-33a6.51,6.51,0,0,1-.6-.43,4.45,4.45,0,0,1-1.81-4,6,6,0,0,1,.78-2.26,9.4,9.4,0,0,1,1-1.46l-.06-.72a11.4,11.4,0,0,1-2.41,0,5.51,5.51,0,0,1-1.21-.26,5,5,0,0,1-2.72-2.14,8.47,8.47,0,0,1-4.37,3.49,12,12,0,0,1-1.58.46Z"/><path class="cls-23" d="M1366.2,445.91a56.29,56.29,0,0,0,12.7,4.47c3.53.72,7.2.91,10.13-.18a8.46,8.46,0,0,0,5.09-4.91c3.42-8.37-3.42-16.38-7.81-20.41-.91,1.6-1.42,2.52-1.42,2.52s-.56-.24-1.53-.57c3.73,3.29,10.38,10.4,7.61,17.17a5.1,5.1,0,0,1-3.13,3c-5.65,2.11-16.42-2.27-20.09-4.13a1.7,1.7,0,1,0-1.55,3Z"/><path class="cls-18" d="M1188.15,457.09V457s0-.06,0,0l.09.17.18.37.45.92,1,2c.34.69.69,1.4,1.06,2.11s.72,1.43,1.11,2.15c1.49,2.88,3.06,5.82,4.71,8.72,3.32,5.8,6.75,11.61,10.46,17.24s7.5,11.2,11.54,16.55c2,2.66,4.07,5.33,6.19,7.91s4.23,5.16,6.36,7.71c4.37,5,8.85,9.88,13.53,14.49,1.13,1.2,2.34,2.29,3.52,3.44s2.33,2.3,3.56,3.37c2.44,2.17,4.82,4.39,7.32,6.45,4.9,4.27,10.09,8.1,15.25,11.92,5.28,3.64,10.59,7.2,16.12,10.35,1.38.79,2.74,1.61,4.13,2.39l4.21,2.21,2.11,1.11.52.28-.27-.14-.36-.18a11.85,11.85,0,0,0-1.5-.57,20.8,20.8,0,0,0-6.88-1.26c-.56,0-1,0-1.56,0l-.76.08-.65,0a12.34,12.34,0,0,0-1.24.23,5.42,5.42,0,0,0-1,.21c-.15,0-.34.12-.45.14a2,2,0,0,0-.33.09c-.22.06-.46.18-.63.24a2.14,2.14,0,0,0-.39.16l-.17.1-.08,0c-.44.28.48-.11,1.74-1.11a49.51,49.51,0,0,0,4.76-4.29c1.79-1.79,3.68-3.89,5.58-6.16,3.85-4.53,7.74-9.79,11.58-15.28s7.62-11.35,11.32-17.35,7.4-12.14,11-18.41,7.13-12.6,10.58-19c1.74-3.2,3.47-6.41,5.15-9.62l4.94-9.31,63.49,26.17-1.08,3.13-1,2.92-2.1,5.75q-2.16,5.68-4.4,11.32c-3.06,7.49-6.23,14.93-9.63,22.34s-7,14.77-10.83,22.13c-1.94,3.68-3.92,7.35-6,11s-4.24,7.34-6.49,11a256.8,256.8,0,0,1-15.17,22.16c-2.89,3.72-6,7.46-9.44,11.25a120.82,120.82,0,0,1-12,11.5,87.88,87.88,0,0,1-17.45,11.49l-1.37.66-1.5.66c-1,.43-2,.85-3,1.25s-2.23.79-3.35,1.16l-1.71.53c-.56.18-1.22.33-1.84.49-1.25.32-2.5.6-3.77.87s-2.72.45-4.09.63c-.69.09-1.36.18-2.07.24s-1.46.1-2.2.13c-1.48.06-2.91.13-4.43.08a59.17,59.17,0,0,1-18.14-3.36c-1.41-.53-2.79-1.1-4.16-1.7l-1-.45-.93-.44-.75-.38-3-1.54-6-3.11c-2-1.07-3.91-2.21-5.86-3.31-7.85-4.4-15.29-9.38-22.62-14.49s-14.25-10.72-20.88-16.58-13-12-19.12-18.25l-4.49-4.8c-1.49-1.61-2.9-3.27-4.35-4.91s-2.88-3.28-4.26-5l-4.16-5a321,321,0,0,1-29.09-42.87c-4.21-7.51-8.23-15.13-11.83-23-1.81-3.95-3.57-7.92-5.23-12-.41-1-.82-2.06-1.23-3.11s-.81-2.1-1.2-3.18-.81-2.18-1.2-3.29l-1.36-4Z"/><path class="cls-24" d="M1378.55,504.58a4.74,4.74,0,1,1-5.46-3.88A4.73,4.73,0,0,1,1378.55,504.58Z"/><path class="cls-24" d="M1303.54,608a2,2,0,0,1-2.28-1c-7.48-13.77-11.79-32.36-12-33.14a2,2,0,0,1,4-.9c0,.19,4.36,18.84,11.57,32.11a2,2,0,0,1-.81,2.75A2,2,0,0,1,1303.54,608Z"/><path class="cls-24" d="M1287.34,597.06a2,2,0,0,1-.93,0,2,2,0,0,1-1.56-2.4c.13-.61,3.2-14.91,5.22-19.45a2,2,0,1,1,3.69,1.64c-1.84,4.16-4.92,18.51-5,18.66A2,2,0,0,1,1287.34,597.06Z"/><path class="cls-24" d="M1402.47,539a2,2,0,0,1-1.56-.23c-20.77-12.69-64.71-29.86-65.15-30a2,2,0,1,1,1.47-3.77c.45.17,44.71,17.47,65.79,30.34a2,2,0,0,1-.55,3.69Z"/><path class="cls-24" d="M1382.89,528.64a2.07,2.07,0,0,1-1.38-.13,2,2,0,0,1-1-2.7l13.67-28.88a2,2,0,0,1,3.66,1.74l-13.67,28.87A2,2,0,0,1,1382.89,528.64Z"/><path class="cls-11" d="M972.64,923.79c.44,1.76.92,3.49,1.44,5.17l.06.19q1.07,3.42,2.34,6.56c7.61,18.52,66.12,21.12,123.7,14.57,44.67-5.08,88.78-15.69,108.13-28.66,18.17-12.18-20.79-124.18-20.79-124.18L969.08,843.72S964.26,890.33,972.64,923.79Z"/><path class="cls-11" d="M1124.36,1119.85h108.4c-3.93-60-10-127.28-17.4-198-.2-1.88-.39-3.77-.6-5.66q-1-9.42-2-18.94c-.18-1.68-.37-3.37-.55-5.07l-21,9.73-5.15,2.38-82.54,38.21.85,7.27Z"/><path class="cls-15" d="M1137.3,1119.85h5.41L1120.53,953a2.68,2.68,0,0,0-5.31.71Z"/><path class="cls-15" d="M1162.7,856.18c.27,1.38,5.6,28.77,23.32,48.13a62.14,62.14,0,0,0,12.32,10.48,51.47,51.47,0,0,0,11.41,5.51,47.64,47.64,0,0,0,5.61,1.57c-.2-1.88-.39-3.77-.6-5.66-.9-.23-1.8-.49-2.68-.78a47.25,47.25,0,0,1-10.85-5.15,55.28,55.28,0,0,1-10.06-8.35c-17.68-18.41-23.13-46.41-23.2-46.74a2.68,2.68,0,1,0-5.27,1Z"/><path class="cls-15" d="M1118.69,938.62a2.21,2.21,0,0,1-2.11,2.27h0a2.2,2.2,0,0,1-2.34-2c-.4-8.08-.9-16.36-1.43-24.62-.1-1.45-.19-2.91-.29-4.36-1.81-27-4.09-53.52-5.81-72.24-.14-1.51-.28-3-.41-4.39-.38-4.1-.73-7.75-1-10.83,1.48-.23,3-.48,4.43-.73.29,3.09.64,6.76,1,10.91.13,1.41.26,2.88.41,4.4,1.7,18.55,4,44.83,5.77,71.67.11,1.48.2,3,.31,4.45C1117.75,921.67,1118.26,930.26,1118.69,938.62Z"/><path class="cls-15" d="M1125,910.1a58,58,0,0,1-7.8,3c-1.39.43-2.88.81-4.41,1.12a32,32,0,0,1-4.23.56,15.39,15.39,0,0,1-7.5-1.16,9.17,9.17,0,0,1-5.1-6.82c-1.64-8.32-5.11-42.72-7.46-67-.15-1.5-.28-3-.42-4.38-.37-3.89-.7-7.43-1-10.43l4.45-.57c.28,3,.62,6.61,1,10.55.13,1.41.27,2.87.41,4.38,2.35,24.27,5.82,58.61,7.41,66.69a4.79,4.79,0,0,0,2.7,3.76c2.36,1.12,5.91.88,9.44.11,1.5-.33,3-.76,4.39-1.21a52.69,52.69,0,0,0,6.13-2.41,2.26,2.26,0,0,1,3,1A2.13,2.13,0,0,1,1125,910.1Z"/><path class="cls-11" d="M974.07,928.9a.13.13,0,0,1,0,.06,1.5,1.5,0,0,0,0,.2c.17,1.73.34,3.51.5,5.3,4.85,51.13,12.34,128,18.79,185.39h107.12l-.39-205.08a650.74,650.74,0,0,0-61.9-25c-1.73-.59-3.47-1.16-5.22-1.73-3.31-1.07-6.62-2.1-9.92-3.06q-2.64-.76-5.25-1.48c-19.74-5.36-38.07-8-48.34-3.72,0,0,1.58,17.39,4.1,44C973.75,925.46,973.91,927.15,974.07,928.9Z"/><path class="cls-15" d="M1008.74,1119.85c-6.16-70-13.75-175.94-13.84-177.3a2.68,2.68,0,1,0-5.35.38c.1,1.36,7.65,106.84,13.81,176.92Z"/><path class="cls-15" d="M974.07,928.9a.13.13,0,0,1,0,.06,1.5,1.5,0,0,0,0,.2c.17,1.73.34,3.51.5,5.3a43.23,43.23,0,0,0,22.26-2c13.72-5,24.47-16.25,32.27-27.45a132.11,132.11,0,0,0,9.09-15.22,128.6,128.6,0,0,0,6.36-14.34,2.68,2.68,0,1,0-5.06-1.78A125.73,125.73,0,0,1,1033,888a128.81,128.81,0,0,1-8.48,14c-7.29,10.45-17.17,20.85-29.51,25.33A38.08,38.08,0,0,1,974.07,928.9Z"/><path class="cls-14" d="M936.4,683.8c.39,5.7.86,11.4,1.45,17.1,2.95,28.6,13.92,124.28,23.79,151.07,36.38,17.63,77.14,24,116,22.35,7.4-.32,14.74-.94,22-1.83q9.6-1.18,18.89-3c40.39-7.81,75.74-24.08,97.67-44.62-10.37-40.16-22.48-113-27-144.18-.85-5.82-1.6-11.48-2.28-17q-1-8.08-1.77-15.79c-.59-5.85-1.11-11.56-1.52-17.08q-.67-8.89-1.09-17.22-.43-8.9-.6-17.17c-1.6-75.17,12.13-112.27,8.5-130.29-5.45-27.11-30.53-26.74-53.37-35.24-1.33-.49-2.66-1-4-1.58-.89-.39-1.76-.79-2.63-1.19a51.2,51.2,0,0,1-20.91-17.41l-67.06.13a94,94,0,0,1-15.17,9.42c-.91.48-1.85.94-2.85,1.41-2.4,1.13-5,2.28-7.94,3.38a127.13,127.13,0,0,1-25.22,6.69c-30.07,4.84-47.31,36.82-50.48,88.68-1.59,26.19-3.3,50.87-4.42,74.66-.07,1.58-.15,3.15-.21,4.73C934.87,628.73,934.54,656.36,936.4,683.8Z"/><polygon class="cls-19" points="1121.76 721.86 1110.28 749.73 1110.28 749.73 1105.12 762.25 1090.55 797.62 1083.47 783.99 1080.95 779.16 1075.26 768.23 1072.76 763.4 1067.06 752.47 1064.55 747.64 1058.87 736.71 1058.87 736.71 1056.35 731.88 1051 721.61 1051.12 720.49 1051.93 712.33 1053.78 693.83 1054.6 685.66 1056.44 667.16 1057.26 659 1059.11 640.5 1059.92 632.34 1061.77 613.83 1062.58 605.67 1064.43 587.17 1065.25 579 1067.09 560.51 1067.91 552.34 1069.76 533.85 1070.57 525.67 1072.42 507.18 1073.23 499.01 1074.13 490.1 1075.14 479.89 1089.28 479.31 1089.69 482.48 1090.56 488.96 1090.82 490.95 1092.52 503.64 1093.39 510.11 1095.36 524.78 1096.22 531.26 1098.19 545.93 1099.06 552.4 1101.03 567.08 1101.89 573.55 1103.86 588.23 1104.73 594.7 1106.69 609.38 1107.56 615.85 1109.52 630.52 1110.39 637.01 1112.35 651.68 1113.22 658.15 1115.18 672.83 1116.05 679.3 1118.02 693.98 1118.88 700.45 1120.85 715.12 1121.72 721.6 1121.76 721.86"/><polygon class="cls-25" points="1090.82 490.95 1082.45 505.84 1074.13 490.1 1075.14 479.89 1089.28 479.31 1089.69 482.48 1090.56 488.96 1090.82 490.95"/><path class="cls-18" d="M936.4,683.8c.39,5.7.86,11.4,1.45,17.1,2.95,28.6,13.92,124.28,23.79,151.07,36.38,17.63,77.14,24,116,22.35l20.42-32.27,20.43,27.45c40.39-7.81,75.74-24.08,97.67-44.62-3.76-14.55-7.74-33.39-11.52-53-.89-4.71-1.79-9.46-2.67-14.2-5.53-30-10.32-59.81-12.82-77-.85-5.82-1.6-11.48-2.28-17q-1-8.08-1.77-15.79c-.59-5.85-1.11-11.56-1.52-17.08q-.67-8.89-1.09-17.22-.43-8.9-.6-17.17c-1.6-75.17,12.13-112.27,8.5-130.29-5.45-27.11-30.53-26.74-53.37-35.24l-1.14.56L1086.06,652l-68.32-226.62-1.26-.29a127.13,127.13,0,0,1-25.22,6.69c-30.07,4.84-47.31,36.82-50.48,88.68-1.59,26.19-3.3,50.87-4.42,74.66-.07,1.58-.15,3.15-.21,4.73C934.87,628.73,934.54,656.36,936.4,683.8Z"/><path class="cls-24" d="M978.76,862.56a2.39,2.39,0,0,1-2.24-1.55c-32.81-87.31-32.28-253.55-32.27-255.22a2.39,2.39,0,0,1,2.39-2.39h0a2.4,2.4,0,0,1,2.38,2.41c0,1.66-.53,167,32,253.51a2.41,2.41,0,0,1-1.41,3.09A2.44,2.44,0,0,1,978.76,862.56Z"/><path class="cls-24" d="M1145.37,754.13c18.94,7.7,43.08,14,59.27,17.78-.89-4.71-1.79-9.46-2.67-14.2-24.78-6.08-53.52-15.18-53.52-15.18Z"/><path class="cls-24" d="M1044.29,751.86s-48.81,29.31-71.15,37.69l6.8,11.89s42.43-19.28,70-39Z"/><path class="cls-24" d="M1135.88,431.45s17.37-9,30.18,8.41l-11.18,72.25-25.26,15,17.13,10.23-19.17,84L1086.06,652Z"/><path class="cls-24" d="M1027.54,425s-18.42-11.71-31.16,5.79l15.75,81.56,25.32,14.92-17.09,10.29,19.48,83.92L1086.06,652Z"/><path class="cls-24" d="M1100.19,819.68a5.06,5.06,0,1,1-4.62-5.47A5.06,5.06,0,0,1,1100.19,819.68Z"/><path class="cls-24" d="M1098.05,782.2a5.06,5.06,0,1,1-4.62-5.47A5.06,5.06,0,0,1,1098.05,782.2Z"/><path class="cls-24" d="M1095.91,744.72a5.06,5.06,0,1,1-4.62-5.47A5.07,5.07,0,0,1,1095.91,744.72Z"/><path class="cls-24" d="M1093.76,707.24a5.06,5.06,0,1,1-4.62-5.47A5,5,0,0,1,1093.76,707.24Z"/><path class="cls-24" d="M1091.62,669.75a5.06,5.06,0,1,1-4.62-5.46A5,5,0,0,1,1091.62,669.75Z"/><path class="cls-24" d="M1180,599.11a2.13,2.13,0,0,0,3.56-1.57c0-16.52.61-34.26,1.83-52.94.06-.85.1-1.53.13-2a2.15,2.15,0,0,0-2-2.29,2.13,2.13,0,0,0-2.29,2c0,.5-.08,1.17-.13,2-1.23,18.75-1.83,36.56-1.84,53.16a2.2,2.2,0,0,0,.71,1.59Z"/><path class="cls-11" d="M1035.39,333.06s-15.33-11-19-28.2c-3.2-15.18,9.59-15.18,9.59-15.18s-10.46-16.48-4.2-28.81c7.84-15.43,23.52-12.47,23.52-12.47s-4.22-24.53,34.81-22.53,62.27,3.47,68.6,20.34-9.61,21.81-9.61,21.81,15.77,9.58,8.07,19.54-17.34,7-17.34,7Z"/><path class="cls-23" d="M1114.2,326.3s4.84-18.22,19.65-14.82,17.64,52-10.24,51.78Z"/><path class="cls-22" d="M1044.11,416s-3.47,6.13,23.69,13.65c14.33,4,31.69.2,40.32-4.9a52.64,52.64,0,0,0,5.52-3.64c-4.42-20.61-.85-34,.18-37.18.15-.49.25-.74.25-.74L1043.3,348Z"/><path class="cls-11" d="M1053.34,375.79s17,46.74,54.78,49a52.64,52.64,0,0,0,5.52-3.64c-4.42-20.61-.85-34,.18-37.18Z"/><path class="cls-22" d="M1080.8,400.19c29.18,5.38,52.26-7.37,54.8-32.37.62-6,.85-14.75.87-23.83,0-.1,0-.18,0-.28,0-1.93,0-3.88,0-5.83,0-1.41,0-2.82,0-4.21-.18-16.21-.79-30.88-.79-30.88-4.6-40.19-44.59-54.77-76.34-39.17s-19,64.44-18.63,88.35S1055.78,395.58,1080.8,400.19Z"/><path class="cls-14" d="M1086.57,352.47s4.12,13.34,15,15.5c12.41,2.46,15.2-13.07,15.2-13.07Z"/><path class="cls-11" d="M1078.71,312.86c-8.25,1.75-10.59-7.07-3.15-11.68,3.4-2.1,7.12-3.89,11-3.92,10.88-.07,11.21,7.59,5.77,10.7A58.74,58.74,0,0,1,1078.71,312.86Z"/><path class="cls-11" d="M1125.58,308.46c8.4.74,9.65-8.31,1.7-12-3.62-1.67-7.54-3-11.34-2.56-10.81,1.25-10.21,8.9-4.42,11.33A58.48,58.48,0,0,0,1125.58,308.46Z"/><path class="cls-23" d="M1133.17,344.41a30.63,30.63,0,0,0,3.3-.42c0-.1,0-.18,0-.28,0-1.93,0-3.88,0-5.83,0-1.41,0-2.82,0-4.21a32.85,32.85,0,0,0-4.07.06c-7.33.55-13.07,3.39-12.85,6.34S1125.85,345,1133.17,344.41Z"/><path class="cls-14" d="M1130.44,342.16a18.13,18.13,0,1,1,14.3-21.29A18.16,18.16,0,0,1,1130.44,342.16Zm-6.48-33a15.48,15.48,0,1,0,18.17,12.2A15.5,15.5,0,0,0,1124,309.18Z"/><path class="cls-11" d="M1108.6,346.92a1.24,1.24,0,0,0,.64-.23c6.58-4.53,7.84-6.92,8-7.35a1.31,1.31,0,0,0-.11-1.23l-9.53-14.34-.09-.12c-2-2.4-2.43-7.38-2.69-13.15a1.31,1.31,0,1,0-2.61.11c.29,6.23.73,11.63,3.26,14.67l9,13.55c-.68.86-2.47,2.77-6.74,5.71a1.31,1.31,0,0,0-.33,1.82A1.32,1.32,0,0,0,1108.6,346.92Z"/><path class="cls-23" d="M1056.68,339c.22,3,6.34,4.89,13.67,4.34s13.08-3.4,12.85-6.35-6.34-4.89-13.66-4.34S1056.45,336,1056.68,339Z"/><path class="cls-14" d="M1087.26,343.35a18.13,18.13,0,1,1,14.3-21.29A18.15,18.15,0,0,1,1087.26,343.35Zm-6.48-33a15.47,15.47,0,1,0,18.17,12.2A15.48,15.48,0,0,0,1080.78,310.37Z"/><path class="cls-14" d="M1110.32,325.73h0a1.33,1.33,0,0,1-1.54-1.08c0-.13-.65-3.42-3.15-3.3-2.77.13-3.82,3.22-3.83,3.25a1.32,1.32,0,0,1-1.67.85,1.34,1.34,0,0,1-.86-1.68c.07-.19,1.64-4.85,6.23-5.08,3.88-.19,5.56,3.52,5.9,5.51A1.32,1.32,0,0,1,1110.32,325.73Z"/><path class="cls-14" d="M1067.58,323.36a1.33,1.33,0,0,1-1.42-.66c-7.19-12.92-20.57-6.57-21.14-6.29a1.33,1.33,0,0,1-1.17-2.39c.16-.07,16.21-7.77,24.63,7.39a1.33,1.33,0,0,1-.51,1.81A1.53,1.53,0,0,1,1067.58,323.36Z"/><path class="cls-11" d="M1135.64,305.53h0c.89-8.35,1.64-23.85-11.84-39.35-20.13-23.16-61.22-21.87-77.6,1.68s-8.34,44-8.34,44,6.61,2.39,9.83,15.32l8.74-.36s3.29-10.82-.17-28.44,27.65-35.24,48.76-31.25,27.83,23.18,27.83,23.18A65.54,65.54,0,0,1,1135.64,305.53Z"/><path class="cls-11" d="M1067.53,277.33s14.7-5.76,21.8-3,17.4,6.46,25.15.87,16.64,11,16.64,11-9.85-29.46-34.17-23.33S1072.72,266.69,1067.53,277.33Z"/><path class="cls-23" d="M1105.29,373.52a7.54,7.54,0,0,0,1-.31,1.3,1.3,0,0,0-1-2.41,8.39,8.39,0,0,1-8.21-1.31,1.3,1.3,0,1,0-1.69,2A10.75,10.75,0,0,0,1105.29,373.52Z"/><path class="cls-22" d="M1046.2,319.08s-8.45-13.37-22.1-6.72-5.45,54.63,21.66,48.13Z"/><path class="cls-11" d="M1040.2,343.52a.86.86,0,0,0,.27,0,1.29,1.29,0,0,0,.88-1.62c-.18-.59-4.47-14.44-17.16-16.37a1.3,1.3,0,1,0-.39,2.58c11.07,1.69,15,14.41,15,14.54A1.29,1.29,0,0,0,1040.2,343.52Z"/><path class="cls-11" d="M1028.44,339.27a1.32,1.32,0,0,0,.88-.43s2.47-2.79,5.4-5.56a1.31,1.31,0,0,0-1.79-1.9c-3,2.85-5.47,5.61-5.57,5.73a1.3,1.3,0,0,0,.11,1.84A1.31,1.31,0,0,0,1028.44,339.27Z"/><path class="cls-11" d="M1082.12,325.26c0,2.91,1.4,5.25,3.06,5.23s3-2.39,2.94-5.29-1.4-5.24-3.06-5.23S1082.08,322.36,1082.12,325.26Z"/><path class="cls-11" d="M1116,325.36c0,2.9,1.4,5.24,3.06,5.22s3-2.38,3-5.29-1.41-5.24-3.07-5.22S1115.92,322.46,1116,325.36Z"/><path class="cls-14" d="M1043.07,399.16s-10.1,3.06-15.53,25.87c7,20.73,26.83,38.14,54.61,43.23l-.08-40.78S1057.55,421.4,1043.07,399.16Z"/><path class="cls-14" d="M1112.22,404.92s16.7,3.78,23.66,26.53c-17.9,21.86-27.46,30.09-53.73,36.81l-.08-40.78S1097.82,427.22,1112.22,404.92Z"/><polygon class="cls-19" points="1063.29 462.34 1082.19 490.33 1100.21 462.27 1082.09 438.9 1063.29 462.34"/><path class="cls-12" d="M1120.19,491a2.17,2.17,0,0,0,1.72-3.47l-38.1-49.89a2.17,2.17,0,0,0-1.65-.85,2.21,2.21,0,0,0-1.7.74l-37.63,43.24a2.16,2.16,0,0,0,3.26,2.83L1082,442.32l36.49,47.78A2.16,2.16,0,0,0,1120.19,491Z"/><path class="cls-12" d="M1082.1,441.06h0a2.16,2.16,0,0,0,2.15-2.18l-.09-9.5a2.17,2.17,0,0,0-2.17-2.15h0a2.16,2.16,0,0,0-2.14,2.18l.08,9.51A2.16,2.16,0,0,0,1082.1,441.06Z"/><path class="cls-22" d="M971.49,841.08c4.74-1.3,11.67,3.66,17.94,5.31,8.26,2.19,20,8,25.73,13,3.49,3.05,20.87,22.87,28.7,31.51a4.93,4.93,0,0,1-.19,6.93c-2.57,2.32-8,2.28-18.38-7.32-.49-.4-3.68-3.18-4-3.44a22.77,22.77,0,0,0-9.24-4.56s5.8,5.21,15.71,14.64c-10.82,18.81-28.41,36.72-51.85,32-4-5.62-8.11-15.34-9.23-17.37-4.43-8.05-18.17-28.75-22.11-40.1C941.88,864.05,956.49,845.21,971.49,841.08Z"/><path class="cls-18" d="M961.85,448.84l-2.14,1.72L958,452l-3.17,2.69c-2.05,1.77-4,3.52-6,5.29-3.88,3.54-7.62,7.11-11.28,10.73-7.33,7.23-14.34,14.66-21.11,22.3a440.26,440.26,0,0,0-37.19,48.74,395.78,395.78,0,0,0-30,54.3c-4.26,9.52-8.17,19.25-11.61,29.18-1.74,5-3.33,10-4.85,15-.73,2.53-1.48,5.06-2.16,7.62l-.51,1.91-.26,1-.51,2a65.7,65.7,0,0,0-1.58,9.33,72.64,72.64,0,0,0-.33,7.82c0,2.43.15,4.63.33,6.74a103.74,103.74,0,0,0,1.66,11.35,152.14,152.14,0,0,0,5,18.29c1.87,5.54,3.87,10.67,5.94,15.63s4.24,9.7,6.46,14.34c4.44,9.26,9.08,18.06,13.85,26.66s9.69,16.94,14.71,25.16c10,16.45,20.48,32.33,31.2,47.94q8.1,11.68,16.39,23.18,4.16,5.75,8.37,11.46l4.28,5.71,4.43,5.83,57.75-40.7-3.45-5.53-3.52-5.71-7-11.48q-7-11.52-13.78-23.17C961,780.07,952.24,764.49,944,748.92c-4.11-7.79-8.07-15.59-11.84-23.33s-7.3-15.47-10.42-23A203.41,203.41,0,0,1,914,681.06a65,65,0,0,1-1.88-8.46,14.57,14.57,0,0,1-.17-2.35c0-.18,0-.29.07-.17a4.17,4.17,0,0,1,0,.93,16.38,16.38,0,0,1-.39,2.53l-.11.43,0,.11s0,0,0-.06l.06-.17.23-.71.45-1.4c.58-1.87,1.24-3.73,1.87-5.6,1.31-3.72,2.67-7.43,4.17-11.1,2.92-7.36,6.26-14.61,9.84-21.76a327.73,327.73,0,0,1,25-41.55c4.69-6.69,9.65-13.21,14.8-19.61s10.52-12.65,16.08-18.71,11.25-12,17.11-17.65c2.93-2.82,5.9-5.57,8.85-8.21,1.47-1.32,2.94-2.62,4.37-3.86l2.1-1.79,1.53-1.25Z"/><path class="cls-24" d="M910,674a2.16,2.16,0,0,0,.47-4.27c-.76-.17-18.66-4.17-33.59-4.79a2.16,2.16,0,1,0-.18,4.31c14.54.61,32.63,4.66,32.81,4.7A2.81,2.81,0,0,0,910,674Z"/><path class="cls-24" d="M908.77,673.69a2.14,2.14,0,0,0,1.72-.85,2.17,2.17,0,0,0-.41-3c-7.26-5.53-17.46-11.72-17.89-12a2.16,2.16,0,0,0-2.23,3.7c.1.06,10.43,6.33,17.5,11.72A2.15,2.15,0,0,0,908.77,673.69Z"/><path class="cls-24" d="M936.4,623.87a2.13,2.13,0,0,0,1.81-1c.39-.6,38.87-60.28,63.76-81.77a2.16,2.16,0,0,0-2.82-3.27c-25.37,21.9-63,80.24-64.57,82.71a2.14,2.14,0,0,0,.65,3A2.1,2.1,0,0,0,936.4,623.87Z"/><path class="cls-24" d="M987.35,554.83a1.73,1.73,0,0,0,.32,0L1006.2,552a2.16,2.16,0,1,0-.65-4.27L987,550.53a2.16,2.16,0,0,0,.33,4.3Z"/><path class="cls-24" d="M920.82,854.86a2.19,2.19,0,0,0,1.22-.38L979.27,815a2.16,2.16,0,0,0-2.46-3.56l-57.22,39.44a2.16,2.16,0,0,0,1.23,3.94Z"/><path class="cls-24" d="M955.32,871.11a2.16,2.16,0,0,0,1.79-3.36l-17.67-26.6a2.16,2.16,0,0,0-3.6,2.4l17.67,26.6A2.19,2.19,0,0,0,955.32,871.11Z"/><path class="cls-24" d="M964.83,848.92a5.06,5.06,0,1,1-2.19-6.81A5.07,5.07,0,0,1,964.83,848.92Z"/></g><path class="cls-11" d="M574.33,1075.88c-63.31-3.06-120-23.21-156.66-16.25s-36.07-87.78.71-116c27.36-21-13-62.82-12.67-96.61-2.44-4.86-8.71-38.84,17-64,27.94-27.37,56.62-28.47,85.47-14.29,18.94,6.79,37.34,25.18,43,71.68,9.73,80.06,42,67.83,90.92,133.94C670.65,1013,637.63,1078.94,574.33,1075.88Z"/><path class="cls-22" d="M403.68,967.49l-9,12.66-8.9,12.63q-8.85,12.66-17.58,25.43c-11.63,17-23.09,34.24-34.25,52-5.57,8.87-11.07,17.85-16.42,27.26-2.68,4.73-5.33,9.52-7.93,14.68-1.3,2.56-2.59,5.25-3.88,8.11a104,104,0,0,0-3.84,9.76l-.12.35-.12.39-.24.79-.47,1.59-.48,1.86c-.15.62-.31,1.31-.39,1.72-.2.95-.4,2-.58,3.09s-.36,2.33-.5,3.81a43.24,43.24,0,0,0-.17,5.6l.05,1,0,.49.05.57c0,.4.07.74.13,1.17s.12.89.19,1.33a31.87,31.87,0,0,0,2.26,7.59,29.74,29.74,0,0,0,1.36,2.7c.27.49.57,1,.87,1.45.14.22.33.51.52.78l.58.81c.4.55.79,1,1.25,1.59s1,1.13,1.54,1.67l.81.8.92.82c.64.54,1.29,1.06,2,1.54a30.2,30.2,0,0,0,4.45,2.65c.78.37,1.57.71,2.38,1s1.54.54,2.33.77c.39.11.78.22,1.17.31l1.13.25c.72.14,1.44.26,2.17.35.34,0,.75.09,1.05.11l.95.06c.64,0,1.27,0,1.91,0s1.09,0,1.64-.06l.81-.06.77-.08,1.36-.19c.43-.07.93-.16,1.28-.24l1.12-.25,1.06-.28c.6-.17,1.27-.38,1.81-.57a34.85,34.85,0,0,0,4.92-2.16c.65-.35,1.14-.64,1.68-1l.7-.44.65-.42.61-.41.55-.39c.38-.26.68-.49,1-.74,1.26-1,2.24-1.78,3.13-2.56,1.75-1.55,3.11-2.91,4.37-4.2,2.47-2.57,4.49-4.91,6.41-7.22,3.82-4.58,7.17-9,10.42-13.41,1.63-2.21,3.21-4.41,4.78-6.63l2.34-3.33,2.39-3.5a27.83,27.83,0,0,0-45.79-31.63l-.31.45-2,2.8-2.07,2.91q-2.08,2.91-4.2,5.75c-2.81,3.77-5.68,7.45-8.41,10.68-1.35,1.6-2.69,3.1-3.76,4.19-.52.54-1,1-1.15,1.1a1.77,1.77,0,1,0,.18-.14l.24-.18.36-.25.26-.17.29-.18c.26-.16.49-.29.85-.49a23.4,23.4,0,0,1,3.18-1.38c.39-.14.9-.3,1.36-.43l.82-.21c.29-.08.59-.14.89-.2l1.05-.2c.37-.06.74-.11,1.12-.15l.64-.07.7,0c.47,0,.91,0,1.4,0s1.11,0,1.67,0l.83.07.94.09c.64.08,1.29.18,1.92.31l1,.22,1.06.28c.71.2,1.36.42,2.1.7s1.45.58,2.16.92a27.39,27.39,0,0,1,4,2.4c.6.44,1.2.91,1.77,1.4l.83.74c.25.23.49.47.73.71.48.48.94,1,1.37,1.5s.76.91,1.11,1.39l.51.72.45.68c.27.41.52.83.76,1.25a22.63,22.63,0,0,1,1.13,2.27,23.91,23.91,0,0,1,1.75,5.75q.08.43.12.87l.08.68.05.6,0,.5a16.2,16.2,0,0,1,0,1.78c0,.2,0,.16,0,0s.07-.37.13-.67.05-.14.05-.14h0c0-.08.05-.16.08-.25l0-.12,0-.06,0-.11c.33-1,1-2.67,1.8-4.44s1.72-3.7,2.73-5.67c2-4,4.29-8.08,6.65-12.22,4.74-8.3,9.91-16.71,15.2-25.08,10.61-16.78,21.81-33.5,33.2-50.11q8.55-12.46,17.26-24.85l8.74-12.35,8.76-12.22.19-.26a28.25,28.25,0,1,0-45.92-32.92Z"/><path class="cls-8" d="M400.67,1228.62c-1.13,7-1.08,12.39,1,15.54,3,4.52,27.36,9.23,58.09,12.21l5.83.55c6.48.56,13.19,1,20,1.44l4.77.26c51.89,2.64,107.83-.4,111.15-16.41,6.41-30.87-11.94-77.52-7.71-125.63,1.7-19.42,17.92-57.65,19.41-81.7,2.26-36.62,2.9-70.93-2.26-79.6-3.62-6.08-19.27-11.41-36.14-15.55-5.22-1.28-10.56-2.45-15.7-3.49-17.51-3.55-32.65-5.6-32.65-5.6s-45,2.35-75.67,10.16a107.31,107.31,0,0,0-15,4.84c-.64.27-1.25.55-1.86.83q-3.15,1.47-5.89,2.79c-29.16,14.09-25.17,16.75-22.93,34.06,3.29,25.45,6,23.91-.76,46-.54,1.8-1.15,3.74-1.83,5.87-1.66,5.25-3.73,11.62-6.27,19.5a71.66,71.66,0,0,0-3.6,16.94c-.07.91-.1,1.79-.11,2.64-.16,26.4,26.66,24.24,26.66,57.56,0,20.37-4.65,41.19-9.38,59.43-.23.88-.46,1.74-.68,2.6-2.74,10.41-5.43,19.91-7.2,27.92C401.46,1224.23,401,1226.5,400.67,1228.62Z"/><path class="cls-6" d="M547.36,999.05c.44,9.88,10.6,14.08,18.49,15.85-.44-1-.87-2-1.26-3.07-6.74-1.8-14.26-5.47-14.59-12.89-.33-7.6,5-11.82,9.82-14.08,0-1,0-1.9.08-2.85C554.11,984.47,546.94,989.47,547.36,999.05Z"/><path class="cls-6" d="M533.88,969.19A25.77,25.77,0,0,0,549.45,964a11.91,11.91,0,0,0,5-8.62c1-9.9-9-21.26-9.46-21.74a1.32,1.32,0,0,0-2,1.76c.1.11,9.7,11,8.8,19.71a9.25,9.25,0,0,1-4,6.76,24,24,0,0,1-24.18,2.53,1.32,1.32,0,0,0-1.19,2.36A27.18,27.18,0,0,0,533.88,969.19Z"/><path class="cls-6" d="M459.45,979.32a73.3,73.3,0,0,0,9.14-.56,1.32,1.32,0,0,0-.36-2.62c-.18,0-18.68,2.46-25.87-3.38a6.83,6.83,0,0,1-2.67-5c-.89-12.59,15.81-22.09,16-22.18a1.32,1.32,0,1,0-1.29-2.31c-.75.42-18.32,10.43-17.31,24.68a9.46,9.46,0,0,0,3.63,6.87C445.22,978.49,453.18,979.32,459.45,979.32Z"/><path class="cls-6" d="M586.26,1212.66h.15a1.32,1.32,0,0,0,1.17-1.46c-.06-.57-6.38-57.79-6.94-90.24s14.33-90.66,14.48-91.25a1.32,1.32,0,1,0-2.56-.65c-.15.58-15.13,59.27-14.56,92s6.89,89.91,7,90.49A1.33,1.33,0,0,0,586.26,1212.66Z"/><path class="cls-6" d="M456.55,1193.67c26.14,0,49.44-10,66.09-20a190.92,190.92,0,0,0,40.23-32.09,1.32,1.32,0,0,0-2-1.76,189.54,189.54,0,0,1-39.69,31.62c-22.05,13.13-56,26.48-92.45,15.48a1.32,1.32,0,0,0-.76,2.53A98.42,98.42,0,0,0,456.55,1193.67Z"/><path class="cls-6" d="M468.77,1216.86a98.78,98.78,0,0,0,30.11-5.12,128.46,128.46,0,0,0,27.39-12.59,1.32,1.32,0,1,0-1.44-2.21c-.44.28-44.52,28.48-81.42,12.23a1.32,1.32,0,0,0-1.07,2.42A65.16,65.16,0,0,0,468.77,1216.86Z"/><path class="cls-6" d="M470.43,1018.85c14.76,0,27.68-4.94,37.43-10.37A110.94,110.94,0,0,0,537,984.9a1.33,1.33,0,0,0-.18-1.86,1.31,1.31,0,0,0-1.86.18,110.48,110.48,0,0,1-28.41,23c-23,12.81-45.67,13.45-67.31,1.91a1.31,1.31,0,0,0-1.78.54,1.32,1.32,0,0,0,.54,1.79A68.23,68.23,0,0,0,470.43,1018.85Z"/><path class="cls-22" d="M613.23,1034.88c2.26-36.62,2.9-70.93-2.26-79.6-3.62-6.08-19.27-11.41-36.14-15.55C538,990.44,576,1060,613.23,1034.88Z"/><path class="cls-22" d="M404.4,1029.37c19.86-22.24,23.33-60.21,23.69-80.11-29.16,14.09-25.17,16.75-22.93,34.06C408.45,1008.77,411.13,1007.23,404.4,1029.37Z"/><path class="cls-22" d="M450.81,940.8c3.38,18.08,6.33,52,34.8,52,27.71,0,64.11-45,73.53-56.6a233.69,233.69,0,0,1-34.2-10.11S481.44,933,450.81,940.8Z"/><path class="cls-6" d="M419.76,1001.8c3.55,2.78,7.23,6.66,8.11,11.26.79,4.08-.79,8.25-4.68,12.38s-7.38,7.38-10.19,10c-9.32,8.74-13.58,12.73-7.24,24.23,1.41,2.55,1.48,4.87.23,6.92-2,3.24-7.06,5.27-12.62,5.1l-.67,0c-.07.91-.1,1.79-.11,2.64l.69,0h.81c6.25,0,11.75-2.45,14.15-6.37,1.23-2,2.2-5.29-.16-9.58-5.35-9.7-2.55-12.32,6.72-21,2.84-2.66,6.37-6,10.3-10.14,4.52-4.79,6.33-9.73,5.37-14.7-1.1-5.73-5.69-10.33-9.83-13.42Z"/><path class="cls-6" d="M558.73,1068.86c-9.29-.16-14.38-3-18.87-5.61-5.24-3-9.77-5.55-20.09-3.66l-1.17.19h0c-12.82,1.93-21.27-6.88-23-16.58-1.61-9.06,2.5-20,15.34-22.67,6.67-1.38,13.06.54,19,5.71,14.48,12.62,20.42,11.7,27.94,10.55a45.46,45.46,0,0,1,9-.74c5.92.2,9.91,5.9,9.71,13.87-.24,9.46-6.33,18.94-17.52,18.94Zm-.46-29.46c-7.88,1.21-14.67,2.26-30.08-11.17-5.27-4.59-10.89-6.32-16.71-5.11-11.18,2.31-14.72,11.52-13.28,19.62s8.34,16.18,20,14.43h0l1.1-.18c11.26-2.06,16.41.87,21.86,4,4.43,2.51,9,5.11,17.62,5.25h.28c9.5,0,14.68-8.19,14.89-16.36.13-5.44-2-11-7.16-11.17l-1,0A47,47,0,0,0,558.27,1039.4Z"/><path class="cls-6" d="M414.5,1106.84c-7-6.87-10.08-14.56-8.89-22.23a1.33,1.33,0,0,1,.87-1c.13,0,12.51-4.57,14.7-22.7,1.41-11.64,11-19,20-21.1,9.31-2.2,17.72.78,22.49,8,10.18,15.38,13.78,17.58,42.74,26.22,12.73,3.79,20.2,13.45,19.51,25.2-.71,12-10.7,25.74-31.44,29.35a82.53,82.53,0,0,1-14,1.14C456.15,1129.66,428.41,1120.49,414.5,1106.84Zm27.26-64.5c-8,1.9-16.7,8.47-17.95,18.85-2.09,17.28-12.69,23.21-15.69,24.56-.76,6.63,2,13.09,8.23,19.21,15.9,15.59,52.18,25.39,77.65,21,19.31-3.36,28.61-15.94,29.25-26.91.62-10.46-6.13-19.09-17.62-22.51-28.46-8.48-33.26-10.79-44.2-27.3a16.77,16.77,0,0,0-14.42-7.49A23.14,23.14,0,0,0,441.76,1042.34Z"/><path class="cls-6" d="M437,1147.75a1.33,1.33,0,0,1,.83-1.29c1.67-.66,41.07-16.26,53.76-11.82a1.31,1.31,0,0,1,.88,1.15c.07.93,1.58,23-9.16,34.93a22.1,22.1,0,0,1-16.38,7.36c-.41,0-.81,0-1.21,0C438.69,1178.1,437,1148.06,437,1147.75Zm2.71.82a40.12,40.12,0,0,0,3.86,13.39c4.71,9.29,12.54,13.83,23.28,13.48a19.58,19.58,0,0,0,14.49-6.48c8.82-9.81,8.7-27.85,8.54-32.08C478.31,1134,445.61,1146.29,439.73,1148.57Z"/><path class="cls-6" d="M538.1,1231.38c-8.11-.57-13.27-4.1-14.16-9.69-1.1-6.82,4.56-14.2,13.75-18,8.69-3.55,8.73-10.14,8.78-17.11,0-5,.06-10.23,3.71-13.87,4.76-4.77,13.43-5.8,19.32-2.31,5,3,6.77,8.29,4.9,14.62-4,13.68,5.11,18.51,5.5,18.71h0a1.32,1.32,0,0,1,.41,2c-.91,1.07-22,25.62-40.76,25.62C539.07,1231.43,538.58,1231.41,538.1,1231.38Zm33.77-47.06c1.51-5.16.19-9.28-3.72-11.6-4.92-2.92-12.14-2.07-16.1,1.89-2.88,2.88-2.91,7.32-2.94,12-.05,7.18-.1,15.32-10.42,19.55-9,3.67-12.9,10.37-12.15,15.09.69,4.27,5,7,11.74,7.47,15.62,1.1,34.52-18.57,39-23.53C574.38,1203,568.23,1196.7,571.87,1184.32Z"/><path class="cls-6" d="M400.67,1228.62a27.13,27.13,0,0,0,3.93,8.32c2.61,3.59,5.94,5.56,9.27,5.56a7.57,7.57,0,0,0,1.34-.11c5.18-.82,9.65-6.31,12.61-15.44,3.71-11.47,3.24-20.5-1.39-26.82s-12.27-8.25-16.56-8.82c-.23.88-.46,1.74-.68,2.6,3.78.46,10.95,2.1,15.11,7.8s4.43,13.81,1,24.42c-2.63,8.14-6.37,13-10.5,13.65-2.81.45-5.67-1.11-8.07-4.4a28.64,28.64,0,0,1-4.74-13.55C401.46,1224.23,401,1226.5,400.67,1228.62Z"/><path class="cls-6" d="M453.08,1250.35a.27.27,0,0,0,.07.08,42.67,42.67,0,0,0,6.63,5.94l5.83.55a42.81,42.81,0,0,1-10.43-8.18c-.36-.51-4.08-6-2-10.89,1.76-4.18,7.22-7,16.22-8.24,23.92-3.41,29.6,11.21,30.47,14-4.26,7.32-9,12.24-14.23,14.72l4.77.26c4.38-3.07,8.4-7.8,12-14.14a1.34,1.34,0,0,0,.15-.94c-.05-.2-4.83-20.63-33.56-16.55-10,1.42-16.14,4.74-18.28,9.85C448,1243.34,452.87,1250.07,453.08,1250.35Z"/><path class="cls-13" d="M383.63,1272.53c-1.1-29.86-6.14-59.29-10.31-88.83,19.9,8.64,39.49,16.49,56.79,27h0c10.7,6.46,20.31,12.16,27.36,16.11,10.76,6,24.48,6.63,37.93,4.78,26.22-3.62,51.37-16.54,51.37-16.54s84.42-38.27,100.25-37c12.31,1-53.92,70.14-108.7,98.45-5.48,3.93-14.14,8-27.11,12.15-53.61,17.06-104,1.67-127.41-8Q383.78,1276.58,383.63,1272.53Z"/><polygon class="cls-22" points="229.97 1402.34 222.82 1447.61 180.45 1450.57 184.86 1394.93 229.97 1402.34"/><path class="cls-9" d="M81.62,1513.94l151.55-.14a21.1,21.1,0,0,0,2-8.42c.93-12.82-3.17-33.27-5.19-46.17-.24-1.5-.45-2.91-.61-4.18a44.67,44.67,0,0,1-.46-5.27c0-10.53-9.32-8.72-9.32-8.72-15.33,15.06-32.71-7.48-42.84-.07,0,0-4.37,3.13-16.39,14s-32.48,18-49.89,25.31c-22.48,9.42-28.85,18.81-30.09,25.28A11.84,11.84,0,0,0,81.62,1513.94Z"/><path class="cls-10" d="M81.62,1513.94l151.55-.14a21.1,21.1,0,0,0,2-8.42l-154.79.14A11.84,11.84,0,0,0,81.62,1513.94Z"/><path class="cls-14" d="M174.48,1447.4s-2.71-6.61-8.73-4.5-5.4,12-5.4,12S164,1464,174.48,1447.4Z"/><path class="cls-14" d="M176.36,1477.2a2.51,2.51,0,0,0,2.5-2.5c0-15-9.44-23.2-9.84-23.53a2.49,2.49,0,1,0-3.23,3.8c.34.3,8.06,7.09,8.07,19.73A2.5,2.5,0,0,0,176.36,1477.2Z"/><path class="cls-14" d="M144.85,1457.6a2.47,2.47,0,0,0,1.65-.63c3.17-2.82,12.49-3.35,17.61-3a2.49,2.49,0,1,0,.31-5c-1.56-.1-15.49-.83-21.23,4.28a2.49,2.49,0,0,0,1.66,4.36Z"/><path class="cls-14" d="M166.8,1449.21l1.28,1.28-.14,0,0,.15-1,5.15s.22,0,.57.1a35.81,35.81,0,0,0,4.8.26h1a95.71,95.71,0,0,0,11.07-.93,24.45,24.45,0,0,0,11.93-4.64,11.13,11.13,0,0,0,3.66-4.91c.05-.15.1-.32.14-.47a7.68,7.68,0,0,0-2-7.62,10.59,10.59,0,0,0-7.83-3.33h-.2a21.66,21.66,0,0,0-9,2.39,55.09,55.09,0,0,0-10.19,6.6c-.27.21-.53.42-.77.63-1.28,1-2.35,2-3.14,2.72s-1.19,1.13-1.41,1.34Zm5.43,1.51c-.7,0-1.3,0-1.81,0,1.06-1,2.44-2.17,4-3.4h0a60.49,60.49,0,0,1,6.34-4.38,27.53,27.53,0,0,1,5.76-2.65,11.81,11.81,0,0,1,3.53-.61h.12a5.22,5.22,0,0,1,4,1.65,2.36,2.36,0,0,1,.76,2.09,2.81,2.81,0,0,1-.12.48c-.81,2.32-4.6,5.07-11.21,6l-3.13.38A78.39,78.39,0,0,1,172.23,1450.72Z"/><path class="cls-14" d="M162.73,1453.39l2.31-4.89c-5-2.35-9.76-8.56-9.45-12.31.07-.91.46-2,2.8-2.71a3,3,0,0,1,3,.33c2.61,2,3.44,8.85,3.35,12.69l5.41.14c0-1.3.17-12.76-5.44-17.11a8.36,8.36,0,0,0-7.77-1.25c-5.44,1.56-6.54,5.35-6.71,7.48C149.65,1442.41,156.37,1450.39,162.73,1453.39Z"/><path class="cls-10" d="M217.71,1513.82h4.5a33.25,33.25,0,0,1-8.17-24.26c.72-15,9.7-25.07,15.93-30.34-.24-1.5-.45-2.91-.61-4.18-6.73,5.14-18.06,16.41-18.92,34.35A36.77,36.77,0,0,0,217.71,1513.82Z"/><path class="cls-14" d="M162.93,1463.87a2.5,2.5,0,0,0,.59-4.92l-9.47-2.34a2.5,2.5,0,1,0-1.19,4.85l9.46,2.34A2.6,2.6,0,0,0,162.93,1463.87Z"/><path class="cls-14" d="M153.47,1469.38a2.5,2.5,0,0,0,.59-4.92l-9.47-2.34a2.5,2.5,0,0,0-1.2,4.85l9.47,2.34A2.54,2.54,0,0,0,153.47,1469.38Z"/><path class="cls-14" d="M144,1474.68a2.5,2.5,0,0,0,.6-4.92l-9.47-2.34a2.5,2.5,0,0,0-1.2,4.85l9.47,2.34A2.46,2.46,0,0,0,144,1474.68Z"/><path class="cls-14" d="M133.69,1479.58a2.5,2.5,0,0,0,.59-4.92l-9.47-2.34a2.5,2.5,0,0,0-1.2,4.85l9.47,2.34A2.54,2.54,0,0,0,133.69,1479.58Z"/><path class="cls-14" d="M122.49,1483.77a2.5,2.5,0,0,0,.6-4.93l-9.47-2.34a2.5,2.5,0,0,0-1.2,4.85l9.47,2.34A2.54,2.54,0,0,0,122.49,1483.77Z"/><path class="cls-13" d="M445.54,1219.86c-51.21-27.09-141.18-81.16-179.09-88.84-66.09-13.4-87.59,281.6-87.59,281.6l53,5.18s49.61-127.15,53.55-176.17c0,0,69,66.31,208.75,69.08Z"/><path class="cls-25" d="M238.59,1404.42s-.9,9.95-7.67,16.12l-55-5.46s-1.23-12.52,1.55-17.59Z"/><path class="cls-25" d="M226.68,1406a1.55,1.55,0,0,0,1.48-1.1c.13-.43,13.38-43.94,25.85-82.25,11-33.82,22.6-96.34,25.31-111.38,13.12,15.66,30.44,29.84,51.54,42.2a328.43,328.43,0,0,0,60.87,27.19,411.1,411.1,0,0,0,70.61,17.17,1.54,1.54,0,0,0,.4-3.06,407.22,407.22,0,0,1-70.08-17.06c-35.17-11.87-83.34-33.83-113.06-71a1.55,1.55,0,0,0-2.73.7c-.13.75-13.37,76-25.8,114.26s-25.74,81.88-25.87,82.31a1.54,1.54,0,0,0,1,1.93A1.41,1.41,0,0,0,226.68,1406Z"/><path class="cls-22" d="M470.64,947.75c29.22,39.34,64.39-7.69,63.91-18.19C522.43,906.16,519,875.07,519,875.07l-56.2,31.41c.43,1.73.88,3.45,1.32,5.19a239.51,239.51,0,0,1,5.37,25A91.53,91.53,0,0,1,470.64,947.75Z"/><path class="cls-11" d="M469.52,936.68c30.21-12.24,45.19-48,45.19-48l-50.56,23A239.51,239.51,0,0,1,469.52,936.68Z"/><path class="cls-23" d="M442.3,864.3s-7-13.95-18.47-8.67-5.45,45.21,17.14,40.29Z"/><path class="cls-14" d="M440.79,925a20.17,20.17,0,1,1,19.49-20.82A20.2,20.2,0,0,1,440.79,925Zm-1.23-37.3a17.15,17.15,0,1,0,17.71,16.58A17.17,17.17,0,0,0,439.56,887.74Z"/><path class="cls-22" d="M520.62,879.72c-3.78,16.89-42.41,41.74-60.63,36.41-11.05-3.24-21.64-11.49-29.92-32,0-.11-.08-.22-.13-.33q-.72-1.81-1.38-3.6c-.8-2.14-1.52-4.24-2.15-6.26-.15-.48-.3-.95-.43-1.41-.38-1.26-.71-2.49-1-3.67-.37-1.46-.67-2.84-.91-4.15-3.81-21.25-8.54-45.06,9-61.28s47.34-24.34,67.63-7.8c0,0,15.42,14.76,19.42,45.69S523.37,867.51,520.62,879.72Z"/><path class="cls-11" d="M483.75,794.25s14.76,31.94,25.4,37.25,16.57-12.12,16.57-12.12S498.92,771.05,483.75,794.25Z"/><path class="cls-11" d="M442.34,801.11S465,826,488.1,816.3s4.25-27.47,4.25-27.47S445.27,776.65,442.34,801.11Z"/><path class="cls-11" d="M448.44,798s-7.05,37.29-31.33,34.36,3.95-42.63,19.82-43.34S448.44,798,448.44,798Z"/><path class="cls-23" d="M470.29,893.74a8.21,8.21,0,0,1-.92.1,1.22,1.22,0,0,1-.07-2.43,7.74,7.74,0,0,0,6.47-4.21,1.21,1.21,0,0,1,2.19,1A10,10,0,0,1,470.29,893.74Z"/><path class="cls-26" d="M460.07,887.84a18.08,18.08,0,0,1-2.67.23,1.19,1.19,0,0,1-1.18-1.23,1.21,1.21,0,0,1,1.23-1.19c.61,0,14.66,0,15.64-14.65a1.21,1.21,0,0,1,2.42.16C474.65,884,464.89,887.1,460.07,887.84Z"/><path class="cls-11" d="M458.38,874.37a11.7,11.7,0,0,0,2.3-.4,1.45,1.45,0,0,0-.79-2.8,8.62,8.62,0,0,1-6.83-1c3.41-6.86,3.22-22.46,3.21-23.16a1.45,1.45,0,1,0-2.9,0c.07,4.85-.4,18.39-3.42,22.7a1.46,1.46,0,0,0,.22,1.91A12,12,0,0,0,458.38,874.37Z"/><path class="cls-23" d="M429.94,883.79q-.72-1.81-1.38-3.6c-.8-2.14-1.52-4.24-2.15-6.26-.15-.48-.3-.95-.43-1.41l1.06-.22c8-1.5,14.94-.11,15.54,3.1S437.56,882.21,429.94,883.79Z"/><path class="cls-23" d="M504.53,862.46c.61,3.21-5.37,7-13.35,8.54s-14.93.11-15.53-3.1,5.37-7,13.34-8.54S503.93,859.25,504.53,862.46Z"/><path class="cls-14" d="M456.72,854.16a19.65,19.65,0,1,1,21,18.26A19.68,19.68,0,0,1,456.72,854.16Zm2.9-.2a16.75,16.75,0,1,0,15.56-17.86A16.77,16.77,0,0,0,459.62,854Z"/><path class="cls-14" d="M412.26,863a19.65,19.65,0,1,1,21,18.26A19.67,19.67,0,0,1,412.26,863Zm2.9-.2A16.75,16.75,0,1,0,430.72,845,16.75,16.75,0,0,0,415.16,862.82Z"/><path class="cls-14" d="M451.11,859.89c2.33-3.68,6.15-1.8,6.58-1.57l1.38-2.55c-2.26-1.23-7.34-2.29-10.41,2.56Z"/><path class="cls-14" d="M493.66,845.55a1.91,1.91,0,0,0,1.46-.84c.18-.2,3-3.25,16.65-6.43a1.94,1.94,0,1,0-.88-3.78c-15.66,3.66-18.6,7.4-19,8.11a1.94,1.94,0,0,0,1.8,2.94Z"/><path class="cls-14" d="M413.81,864.37a1.44,1.44,0,0,0,.83-.34c2-1.65,6.1-2.5,7.52-2.69a1.45,1.45,0,0,0-.39-2.87c-.24,0-6,.82-9,3.34a1.45,1.45,0,0,0,1,2.56Z"/><path class="cls-11" d="M460.92,827.38s5.09-7.31,14-6.62c5,.38,5.15,5.28-.47,6.2-3.92.64-6,1.23-9.39,3.74S459.51,829,460.92,827.38Z"/><path class="cls-11" d="M438.93,832.43s-7.51-4.77-15.49-.67c-4.46,2.29-2.7,6.87,2.83,5.54,3.86-.93,6-1.18,10.11-.2S440.86,833.36,438.93,832.43Z"/><path class="cls-22" d="M511.74,838.7s5-13.56,18.51-10.17,15.17,47.86-10.32,47.15Z"/><path class="cls-14" d="M536.79,864.82c-.58.93-.86,1.85-1.45,2.78a17.15,17.15,0,1,1-10.7,2.37c3.5-1.65,3.81-3.25,3.69-4.81A20.16,20.16,0,1,0,553.66,884,20.47,20.47,0,0,0,536.79,864.82Z"/><path class="cls-11" d="M520.37,858.16a1.18,1.18,0,0,0,1.08,1.29h.26a1.2,1.2,0,0,0,1-1.09,24.18,24.18,0,0,1,2.74-8.61c2.78,1.75,5,3.43,5.08,3.45a1.16,1.16,0,0,0,.87.23,1.19,1.19,0,0,0,.55-2.14c-.1-.08-2.36-1.76-5.22-3.56a14.56,14.56,0,0,1,6.71-5.21,1.19,1.19,0,0,0,.69-1.53,1.17,1.17,0,0,0-1.53-.7C521.65,844.4,520.41,857.6,520.37,858.16Z"/><path class="cls-11" d="M473.58,851.93c.57,2.87-.29,5.46-1.93,5.78s-3.43-1.73-4-4.6.29-5.46,1.93-5.79S473,849.06,473.58,851.93Z"/><path class="cls-11" d="M441.61,859c.57,2.87-.3,5.46-1.94,5.79s-3.43-1.74-4-4.61.3-5.46,1.94-5.78S441,856.15,441.61,859Z"/><path class="cls-15" d="M357.12,1225.27l234.51,25.24a1,1,0,0,0,1-.84h0a13.26,13.26,0,0,0-11.76-14.6l-222.28-23.93a1,1,0,0,0-1.05.84l-1.32,12.24A1,1,0,0,0,357.12,1225.27Z"/><path class="cls-11" d="M292.77,1087.26l15.94,127a7.35,7.35,0,0,0,6.51,6.39L495.54,1240a7.35,7.35,0,0,0,8.08-8.22l-15.94-127a7.36,7.36,0,0,0-6.51-6.4L300.85,1079A7.36,7.36,0,0,0,292.77,1087.26Z"/><path class="cls-15" d="M409.93,1161.85c-1.43,11.09-21.75,23-21.75,23s-20.37-16.27-21.83-27.67c-1.59-12.35,12.57-14.57,21.78-4.39C397.31,1144.57,411.48,1149.83,409.93,1161.85Z"/><path class="cls-15" d="M474,1097.67l16.26,141.78,5.25.56a7.35,7.35,0,0,0,8.08-8.22l-15.94-127a7.36,7.36,0,0,0-6.51-6.4Z"/><path class="cls-22" d="M399,1329.4s19.27-3.08,25.24-9.4l12.54,40.07-46.06,9.46S391.23,1335.73,399,1329.4Z"/><path class="cls-9" d="M286.59,1427.28l59.54-132.17a20.28,20.28,0,0,1,8.13,1.57c11.55,4.21,27.79,15.81,38.25,22.63,1.22.8,2.36,1.54,3.41,2.18a42.8,42.8,0,0,0,4.42,2.46c9.18,4.14,4.44,7.12,4.44,7.12-19.14,7.47-6.79,35.91-17.23,41.84,0,0-4.44,2.58-18.61,8.82s-28.44,21.28-41.64,33.6c-17,15.92-27.73,17.8-33.86,16.34A11.36,11.36,0,0,1,286.59,1427.28Z"/><path class="cls-14" d="M390.8,1365.46s5.28,3.62,2.31,8.49-11.56,2.47-11.56,2.47S374.33,1371.56,390.8,1365.46Z"/><path class="cls-14" d="M365.05,1358.21a2.24,2.24,0,0,1,2.66-1.72,28.6,28.6,0,0,1,18.77,13,2.24,2.24,0,0,1-4,2.12,24,24,0,0,0-15.76-10.78A2.24,2.24,0,0,1,365.05,1358.21Z"/><path class="cls-14" d="M376.29,1389.5a2.25,2.25,0,0,1,.87-1.33c3.06-2.25,5.28-10.3,6-14.85a2.24,2.24,0,1,1,4.43.66c-.21,1.39-2.2,13.73-7.75,17.8a2.24,2.24,0,0,1-3.51-2.28Z"/><path class="cls-14" d="M388.68,1373.24c.23-.15.74-.49,1.44-1s1.82-1.31,3-2.23l.7-.56a48.56,48.56,0,0,0,7.69-7.69,19.43,19.43,0,0,0,3.8-7.47,1,1,0,0,0,0-.17,9.48,9.48,0,0,0-1.44-7.49,6.92,6.92,0,0,0-6.31-3.17l-.44,0a10,10,0,0,0-5,2.29,21.9,21.9,0,0,0-6.31,9.58,85.49,85.49,0,0,0-2.9,9.52c-.07.3-.13.6-.19.88a31.27,31.27,0,0,0-.68,4.25,4,4,0,0,0,0,.52l4.7.07h.15v-.13l.89,1.36Zm.79-13.55c.28-.83.58-1.72.92-2.67,2-5.62,5.16-8.42,7.35-8.69a2.2,2.2,0,0,1,.44,0,2.13,2.13,0,0,1,1.69,1.06,4.72,4.72,0,0,1,.7,3.8l0,.11a10.79,10.79,0,0,1-1.19,3,25.58,25.58,0,0,1-3.41,4.55,52.6,52.6,0,0,1-5,4.72h0c-1.37,1.14-2.68,2.13-3.74,2.87.08-.45.18-1,.31-1.59A71.29,71.29,0,0,1,389.47,1359.69Z"/><path class="cls-14" d="M383.34,1374.63l4.73-1.1c1.12,4.81,5.66,10.15,9,10.59.81.11,1.87,0,2.9-1.95a2.69,2.69,0,0,0,.27-2.65c-1.28-2.67-7.11-4.68-10.49-5.32l.9-4.77c1.14.22,11.21,2.26,14,8a7.5,7.5,0,0,1-.36,7c-2.39,4.47-5.92,4.72-7.81,4.47C390.51,1388.15,384.78,1380.77,383.34,1374.63Z"/><path class="cls-10" d="M286.59,1427.28l59.54-132.17a20.28,20.28,0,0,1,8.13,1.57l-60.82,135A11.36,11.36,0,0,1,286.59,1427.28Z"/><path class="cls-10" d="M340.06,1308.6l1.77-3.93a31.79,31.79,0,0,0,18,16.64c13.35,5.25,25.68,1.38,32.72-2,1.22.8,2.36,1.54,3.41,2.18-7.13,3.85-21.4,9.31-37.39,3A35.22,35.22,0,0,1,340.06,1308.6Z"/><path class="cls-14" d="M362.15,1376a2.39,2.39,0,0,1,4.53,1.41l-1.67,9.18a2.39,2.39,0,1,1-4.7-.86l1.67-9.18A2.07,2.07,0,0,1,362.15,1376Z"/><path class="cls-14" d="M372.72,1370.87a2.39,2.39,0,0,1,4.53,1.41l-1.67,9.18a2.39,2.39,0,1,1-4.7-.86l1.67-9.17A2,2,0,0,1,372.72,1370.87Z"/><path class="cls-14" d="M353.63,1382.07a2.39,2.39,0,0,1,4.53,1.41l-1.67,9.18a2.39,2.39,0,0,1-4.7-.85l1.67-9.18A2.44,2.44,0,0,1,353.63,1382.07Z"/><path class="cls-14" d="M345.3,1388.25a2.39,2.39,0,0,1,4.53,1.41l-1.67,9.18a2.39,2.39,0,1,1-4.7-.86l1.67-9.18A2.07,2.07,0,0,1,345.3,1388.25Z"/><path class="cls-14" d="M337,1395.33a2.38,2.38,0,0,1,4.52,1.41l-1.67,9.18a2.38,2.38,0,1,1-4.69-.86l1.67-9.18A2.07,2.07,0,0,1,337,1395.33Z"/><path class="cls-14" d="M328.94,1403.45a2.39,2.39,0,0,1,4.53,1.41L331.8,1414a2.39,2.39,0,0,1-4.7-.85l1.67-9.18A2,2,0,0,1,328.94,1403.45Z"/><path class="cls-13" d="M647,1178s53.43-28.83,84.38-6.54c56.6,40.75-39.43,119.16-149.28,157.45S436.62,1362,436.62,1362s-23.87-6.56-15.4-45.24c0,0,63.32-24.08,96.27-49.3S572.89,1211.32,647,1178Z"/><path class="cls-25" d="M449.78,1307.08a1.6,1.6,0,0,0,.76-.2c.55-.31,55.09-31,77.58-49.46,18.1-14.86,57.78-42.72,58.18-43a1.54,1.54,0,1,0-1.77-2.53c-.4.28-40.18,28.21-58.37,43.14-22.29,18.29-76.59,48.85-77.13,49.15a1.55,1.55,0,0,0,.75,2.9Z"/><path class="cls-25" d="M425.49,1328c23-5.54,70-27.08,125.59-57.61,41.58-22.83,89.54-52,96.58-62.14,3.8-5.47,4.76-9.94,2.85-13.29-2.86-5-11.1-5.54-14.86-5.5a1.66,1.66,0,0,0-1.65,1.79h0a1.65,1.65,0,0,0,1.66,1.55c3.7,0,10.12.61,12,3.82,1.51,2.66-.63,6.75-2.69,9.72-5.68,8.17-45.82,33.87-95.45,61.12-42.73,23.47-98,50.85-124.76,57.29Z"/><path class="cls-25" d="M429.83,1311.6c2.59,20.33,7.86,38.81,19.35,53,0,0-9.83,7.09-18.82,2-6.86-3.88-20.09-35.64-15.05-52.59C421.05,1310.86,426,1309.77,429.83,1311.6Z"/><path class="cls-22" d="M676.37,1138.4c-.32-4.76-.87-9.21-1.5-13.52-1.26-8.62-2.91-16.67-4.75-24.55s-3.88-15.52-6-23.06-4.5-14.94-6.89-22.29c-4.85-14.66-10.07-29-15.67-43.21-2.84-7.08-5.66-14.15-8.67-21.14-1.51-3.5-3-7-4.57-10.49l-2.37-5.24-1.2-2.63-1.29-2.73a33.28,33.28,0,0,0-61.33,25.71l.16.42,7.43,20.1c2.48,6.79,5,13.56,7.44,20.36,4.9,13.58,9.71,27.14,14.19,40.65s8.7,27,12.19,40c.88,3.27,1.65,6.5,2.41,9.68s1.43,6.31,2,9.32c.28,1.5.53,3,.75,4.4-2.17.62-4.42,1.23-6.72,1.81-6.49,1.67-13.31,3.19-20.23,4.64s-14,2.82-21,4.17c-14.18,2.67-28.56,5.17-43,7.68L496,1162.27l-1.58.28c2,16.85,4.85,33.61,6.23,50.52,7.47,0,14.93-.2,22.41-.37,15.11-.44,30.23-1.23,45.47-2.45,7.63-.6,15.28-1.35,23-2.23s15.53-2,23.56-3.35c4-.71,8.11-1.49,12.35-2.45a139.5,139.5,0,0,0,13.56-3.68,85.89,85.89,0,0,0,8.16-3.14c1.52-.67,3.18-1.49,5.06-2.54a48.39,48.39,0,0,0,6.6-4.42c.67-.54,1.29-1,2.06-1.75l1.08-1c.39-.37.81-.8,1.2-1.21l.59-.63.29-.32.33-.38c.44-.51.86-1,1.28-1.56s.89-1.17,1.33-1.81l.66-1c.22-.32.42-.64.67-1.06.47-.78.91-1.58,1.33-2.39l.31-.62.33-.71q.33-.72.63-1.44t.57-1.47c.18-.49.37-1.08.54-1.63s.33-1.12.48-1.68l.21-.85.12-.52.55-2.73c.08-.45.18-.94.24-1.35l.19-1.25c.12-.83.24-1.68.33-2.49l.23-2.32.1-1.16.06-1.09A119.45,119.45,0,0,0,676.37,1138.4Z"/><path class="cls-23" d="M644.74,1153.74a1.59,1.59,0,0,1-1.09-.43c-12.35-11.58-32.78-11.74-33-11.74a1.6,1.6,0,1,1,0-3.19c.89,0,21.88.14,35.16,12.6a1.59,1.59,0,0,1-1.09,2.76Z"/><path class="cls-23" d="M616.78,1142a1.62,1.62,0,0,1-1.39-.8,1.59,1.59,0,0,1,.6-2.18c8.12-4.62,23.47-2.39,24.12-2.29a1.6,1.6,0,0,1-.47,3.16c-.15,0-14.91-2.16-22.07,1.9A1.51,1.51,0,0,1,616.78,1142Z"/><path class="cls-18" d="M127.1,993v56.94a13.64,13.64,0,0,0,13.64,13.63H244.12l31.22,11.2a4,4,0,0,0,5-5.17l-11.8-30.49V993a13.64,13.64,0,0,0-13.64-13.64H140.74A13.64,13.64,0,0,0,127.1,993Z"/><path class="cls-24" d="M216.92,1023.05a9.87,9.87,0,1,0,9.86-9.86A9.86,9.86,0,0,0,216.92,1023.05Z"/><path class="cls-24" d="M185.7,1023.05a9.87,9.87,0,1,0,9.86-9.86A9.86,9.86,0,0,0,185.7,1023.05Z"/><path class="cls-24" d="M154.48,1023.05a9.87,9.87,0,1,0,9.86-9.86A9.86,9.86,0,0,0,154.48,1023.05Z"/><path class="cls-9" d="M935,1246.31h4.9V1239l-185.23.24a22.24,22.24,0,0,0,.06,44.48l185.23-.24v-6.33h-4.9Z"/><path class="cls-14" d="M936.28,1246.31l0,30.83-170,.22a15.22,15.22,0,0,1-15-15.39,15.58,15.58,0,0,1,4.38-10.91,14.81,14.81,0,0,1,10.61-4.53Z"/><path class="cls-12" d="M936.29,1254.12v4.71l-165.57.22a2.36,2.36,0,0,1-2.36-2.35v0a2.36,2.36,0,0,1,2.35-2.35Z"/><path class="cls-12" d="M936.31,1265.72v4.72l-165.57.21a2.36,2.36,0,0,1-2.35-2.35h0a2.35,2.35,0,0,1,2.34-2.35Z"/><path class="cls-8" d="M918.46,1201.85h4.9v-7.31l-185.23.24a22.24,22.24,0,1,0,0,44.48L923.4,1239v-6.34H918.5Z"/><path class="cls-14" d="M919.73,1201.85l0,30.83-170,.22a15.23,15.23,0,0,1-15-15.39,15.64,15.64,0,0,1,4.39-10.91,14.81,14.81,0,0,1,10.61-4.53Z"/><path class="cls-12" d="M919.74,1209.66v4.71l-165.57.22a2.36,2.36,0,0,1-2.35-2.35h0a2.36,2.36,0,0,1,2.35-2.36Z"/><path class="cls-12" d="M919.75,1221.26V1226l-165.57.21a2.36,2.36,0,0,1-2.36-2.34v0a2.36,2.36,0,0,1,2.35-2.35Z"/><path class="cls-13" d="M950.75,1157.33h4.9V1150l-185.23.23a22.24,22.24,0,0,0,.06,44.48l185.22-.24v-6.33h-4.9Z"/><path class="cls-14" d="M952,1157.33l0,30.83-170,.22a15.21,15.21,0,0,1-15-15.39,15.58,15.58,0,0,1,4.38-10.91,14.81,14.81,0,0,1,10.61-4.53Z"/><path class="cls-12" d="M952,1165.14v4.71l-165.58.22a2.36,2.36,0,0,1-2.35-2.35v0a2.36,2.36,0,0,1,2.35-2.35Z"/><path class="cls-12" d="M952.05,1176.74v4.72l-165.57.21a2.35,2.35,0,0,1-2.35-2.35h0a2.35,2.35,0,0,1,2.34-2.35Z"/><rect class="cls-13" x="770.35" y="1035.35" width="13.34" height="100.55" transform="translate(-155.44 130.19) rotate(-8.71)"/><polygon class="cls-22" points="776 1034.92 762.81 1036.94 765.72 1026.87 767.22 1021.66 770.22 1026.18 776 1034.92"/><rect class="cls-11" x="777.41" y="1128.06" width="13.34" height="7.31" transform="translate(-162.34 131.79) rotate(-8.71)"/><path class="cls-27" d="M791.23,1140.2,779.8,1142a.88.88,0,0,1-1-.74l-.75-4.88,13.18-2,.75,4.88A.89.89,0,0,1,791.23,1140.2Z"/><polygon class="cls-11" points="770.22 1026.18 765.72 1026.87 767.22 1021.66 770.22 1026.18"/><rect class="cls-25" x="776.46" y="1122.89" width="13.34" height="5.24" transform="translate(-161.37 131.54) rotate(-8.71)"/><path class="cls-25" d="M766.84,1041.33l11.28,73.61a1,1,0,0,0,1.16.85h0a1,1,0,0,0,.85-1.16L768.86,1041a1,1,0,0,0-1.17-.85h0A1,1,0,0,0,766.84,1041.33Z"/><path class="cls-25" d="M772,1040.54l11.27,73.6a1,1,0,0,0,1.16.86h0a1,1,0,0,0,.86-1.16L774,1040.23a1,1,0,0,0-1.16-.85h0A1,1,0,0,0,772,1040.54Z"/><rect class="cls-8" x="786.66" y="1035.4" width="13.34" height="100.55" transform="translate(-3.56 2.61) rotate(-0.19)"/><polygon class="cls-22" points="799.83 1035.38 786.5 1035.42 790.86 1025.89 793.12 1020.96 795.41 1025.88 799.83 1035.38"/><rect class="cls-11" x="786.81" y="1128.64" width="13.34" height="7.31" transform="translate(-3.71 2.61) rotate(-0.19)"/><path class="cls-27" d="M799.29,1141.75l-11.56,0a.88.88,0,0,1-.89-.88V1136l13.33,0,0,4.93A.89.89,0,0,1,799.29,1141.75Z"/><polygon class="cls-11" points="795.41 1025.88 790.86 1025.89 793.12 1020.96 795.41 1025.88"/><rect class="cls-6" x="786.79" y="1123.41" width="13.34" height="5.24" transform="translate(-3.69 2.61) rotate(-0.19)"/><path class="cls-6" d="M789.83,1040.36l.24,74.47a1,1,0,0,0,1,1h0a1,1,0,0,0,1-1l-.24-74.46a1,1,0,0,0-1-1h0A1,1,0,0,0,789.83,1040.36Z"/><path class="cls-6" d="M795.05,1040.34l.24,74.46a1,1,0,0,0,1,1h0a1,1,0,0,0,1-1l-.25-74.46a1,1,0,0,0-1-1h0A1,1,0,0,0,795.05,1040.34Z"/><rect class="cls-10" x="758.9" y="1078.96" width="100.55" height="13.34" transform="translate(-379.48 1734.05) rotate(-81.91)"/><polygon class="cls-22" points="822.85 1036.8 809.64 1034.92 815.33 1026.12 818.27 1021.56 819.83 1026.76 822.85 1036.8"/><rect class="cls-11" x="795.95" y="1128.14" width="13.34" height="7.31" transform="translate(167.18 -101.64) rotate(8.09)"/><path class="cls-27" d="M807,1142l-11.45-1.63a.9.9,0,0,1-.76-1l.7-4.89,13.2,1.88-.69,4.88A.89.89,0,0,1,807,1142Z"/><polygon class="cls-11" points="819.83 1026.76 815.33 1026.12 818.27 1021.56 819.83 1026.76"/><rect class="cls-28" x="800.88" y="1118.91" width="5.24" height="13.34" transform="translate(-423.94 1762.71) rotate(-81.91)"/><path class="cls-28" d="M812.23,1040.29,801.75,1114a1,1,0,0,0,.87,1.15h0a1,1,0,0,0,1.15-.86l10.47-73.72a1,1,0,0,0-.86-1.16h0A1,1,0,0,0,812.23,1040.29Z"/><path class="cls-28" d="M817.39,1041l-10.47,73.72a1,1,0,0,0,.86,1.15h0a1,1,0,0,0,1.16-.86l10.47-73.73a1,1,0,0,0-.87-1.15h0A1,1,0,0,0,817.39,1041Z"/><polygon class="cls-9" points="829.31 1076.22 828.24 1085.92 827.8 1089.81 821.1 1150.13 764.49 1150.13 758.53 1096.54 757.35 1085.92 756.27 1076.22 829.31 1076.22"/><polygon class="cls-10" points="828.24 1085.92 827.8 1089.81 758.53 1096.54 757.35 1085.92 828.24 1085.92"/><polygon class="cls-9" points="831.68 1085.92 754.03 1085.92 752.54 1071.74 833.18 1071.74 831.68 1085.92"/></svg>