<svg xmlns="http://www.w3.org/2000/svg" xmlns:xlink="http://www.w3.org/1999/xlink" viewBox="0 0 2085.78 1514.18"><defs><style>.cls-1{mask:url(#mask);filter:url(#luminosity-noclip-2);}.cls-2,.cls-41{mix-blend-mode:multiply;}.cls-2{fill:url(#linear-gradient);}.cls-3{isolation:isolate;}.cls-4{fill:#fcee21;}.cls-5{fill:#112945;}.cls-6{fill:#ff8615;}.cls-7{fill:#d65b3c;}.cls-8{fill:#53b3c4;}.cls-10,.cls-11,.cls-21,.cls-30,.cls-31,.cls-32,.cls-33,.cls-34,.cls-36,.cls-37,.cls-44,.cls-45,.cls-9{mix-blend-mode:color-burn;}.cls-9{fill:url(#linear-gradient-2);}.cls-10{fill:url(#linear-gradient-3);}.cls-11{fill:url(#linear-gradient-4);}.cls-12{fill:#e9ac7d;}.cls-13{fill:#82d6f4;}.cls-14{fill:#111b28;}.cls-15{fill:url(#linear-gradient-5);}.cls-16{fill:url(#linear-gradient-6);}.cls-17{fill:#121b28;}.cls-18{fill:#ec5b6e;}.cls-19{fill:#eaad7d;}.cls-20{fill:#52b1c2;}.cls-22{fill:#acacac;}.cls-23{fill:#d86540;}.cls-24{fill:#e8ab7c;}.cls-25{fill:#adaaff;}.cls-26{fill:#f4f4f4;}.cls-27{fill:#d89260;}.cls-28{fill:url(#linear-gradient-7);}.cls-29{fill:url(#linear-gradient-8);}.cls-30{fill:url(#linear-gradient-9);}.cls-31{fill:url(#linear-gradient-10);}.cls-32{fill:url(#linear-gradient-11);}.cls-33{fill:url(#linear-gradient-12);}.cls-34{fill:url(#linear-gradient-13);}.cls-35{fill:#eaf1fe;}.cls-36{fill:url(#radial-gradient);}.cls-37{fill:url(#radial-gradient-2);}.cls-38{fill:#ead8d9;}.cls-39{fill:#7bb6db;}.cls-40{fill:#51aebf;}.cls-41{fill:#bebebe;opacity:0.5;}.cls-42{mask:url(#mask-2);}.cls-43{fill:url(#linear-gradient-14);}.cls-44{fill:url(#linear-gradient-15);}.cls-45{fill:url(#linear-gradient-16);}.cls-46{fill:#fff;}.cls-47{filter:url(#luminosity-noclip);}</style><filter id="luminosity-noclip" x="259.38" y="-2715.85" width="6.3" height="32766" filterUnits="userSpaceOnUse" color-interpolation-filters="sRGB"><feFlood flood-color="#fff" result="bg"/><feBlend in="SourceGraphic" in2="bg"/></filter><mask id="mask" x="259.38" y="-2715.85" width="6.3" height="32766" maskUnits="userSpaceOnUse"><g class="cls-47"/></mask><linearGradient id="linear-gradient" x1="120.31" y1="576.41" x2="294.02" y2="707.55" gradientUnits="userSpaceOnUse"><stop offset="0" stop-color="gray"/><stop offset="1" stop-color="#262626"/></linearGradient><linearGradient id="linear-gradient-2" x1="979.52" y1="1287.55" x2="979.52" y2="973.38" gradientUnits="userSpaceOnUse"><stop offset="0" stop-color="#999"/><stop offset="0.16" stop-color="#a1a1a1"/><stop offset="0.4" stop-color="#b7b7b7"/><stop offset="0.69" stop-color="#dadada"/><stop offset="0.95" stop-color="#fff"/></linearGradient><linearGradient id="linear-gradient-3" x1="979.52" y1="2027.33" x2="979.52" y2="1001.86" xlink:href="#linear-gradient-2"/><linearGradient id="linear-gradient-4" x1="867.15" y1="2935.5" x2="867.15" y2="744.66" xlink:href="#linear-gradient-2"/><linearGradient id="linear-gradient-5" x1="784.19" y1="-616.85" x2="822.82" y2="-420.28" gradientTransform="matrix(-0.99, 0.12, 0.12, 0.99, 1853.75, 1699.29)" gradientUnits="userSpaceOnUse"><stop offset="0" stop-color="#121e2c"/><stop offset="1" stop-color="#112945"/></linearGradient><linearGradient id="linear-gradient-6" x1="382.51" y1="1177.8" x2="421.13" y2="1374.35" gradientTransform="matrix(-1, 0, 0, 1, 1395.76, 0)" xlink:href="#linear-gradient-5"/><linearGradient id="linear-gradient-7" x1="-35040.58" y1="-14144.59" x2="-35001.96" y2="-13948.03" gradientTransform="matrix(0.01, -1, -1, -0.01, -13441.79, -34157.4)" xlink:href="#linear-gradient-5"/><linearGradient id="linear-gradient-8" x1="-25893.53" y1="1967.64" x2="-25854.9" y2="2164.19" gradientTransform="matrix(-0.96, 0.29, 0.29, 0.96, -24955.7, 6503.73)" xlink:href="#linear-gradient-5"/><linearGradient id="linear-gradient-9" x1="381.68" y1="751.08" x2="446.59" y2="751.08" xlink:href="#linear-gradient-2"/><linearGradient id="linear-gradient-10" x1="504.12" y1="762.93" x2="333.74" y2="762.93" xlink:href="#linear-gradient-2"/><linearGradient id="linear-gradient-11" x1="979.52" y1="1775.49" x2="979.52" y2="1223.65" xlink:href="#linear-gradient-2"/><linearGradient id="linear-gradient-12" x1="541.34" y1="2922.46" x2="541.34" y2="750.92" xlink:href="#linear-gradient-2"/><linearGradient id="linear-gradient-13" x1="1343.63" y1="2205.19" x2="780.57" y2="996.66" xlink:href="#linear-gradient-2"/><radialGradient id="radial-gradient" cx="632.07" cy="603.01" r="36.38" xlink:href="#linear-gradient-2"/><radialGradient id="radial-gradient-2" cx="1319.71" cy="1294.01" r="123.23" gradientUnits="userSpaceOnUse"><stop offset="0" stop-color="#999"/><stop offset="0.2" stop-color="#9d9d9d"/><stop offset="0.38" stop-color="#a8a8a8"/><stop offset="0.56" stop-color="#bbb"/><stop offset="0.74" stop-color="#d6d6d6"/><stop offset="0.92" stop-color="#f8f8f8"/><stop offset="0.95" stop-color="#fff"/></radialGradient><filter id="luminosity-noclip-2" x="259.38" y="680.05" width="6.3" height="7.44" filterUnits="userSpaceOnUse" color-interpolation-filters="sRGB"><feFlood flood-color="#fff" result="bg"/><feBlend in="SourceGraphic" in2="bg"/></filter><mask id="mask-2" x="259.38" y="680.05" width="6.3" height="7.44" maskUnits="userSpaceOnUse"><g class="cls-1"><path class="cls-2" d="M265.65,683.09a3.14,3.14,0,0,0-3.13-3h-.11a3.14,3.14,0,0,0-3,3.24c0,.36,0,.71,0,1.06a3.14,3.14,0,1,0,6.27,0C265.67,683.93,265.67,683.51,265.65,683.09Z"/></g></mask><linearGradient id="linear-gradient-14" x1="120.31" y1="576.41" x2="294.02" y2="707.55" gradientUnits="userSpaceOnUse"><stop offset="0" stop-color="#fff"/><stop offset="1" stop-color="#fff"/></linearGradient><linearGradient id="linear-gradient-15" x1="159.55" y1="685.12" x2="159.55" y2="829.02" gradientUnits="userSpaceOnUse"><stop offset="0" stop-color="#fff"/><stop offset="1" stop-color="#999"/></linearGradient><linearGradient id="linear-gradient-16" x1="1769.98" y1="889.16" x2="1769.98" y2="997.6" xlink:href="#linear-gradient-15"/></defs><g class="cls-3"><g id="Layer_1" data-name="Layer 1"><path class="cls-4" d="M854.32,784.16c0,4.71-3.87,9.13-8.59,9.34-68.36,3.17-136.71-59.58-205.07-22.24-4.72,2.57-8.59,1.37-8.59-3.36V636.76c0-4.71,3.87-11.24,8.59-13.81,68.36-37.33,136.71,25.41,205.07,22.24,4.72-.21,8.59,3.1,8.59,7.82Z"/><path class="cls-5" d="M743.2,754.46h0a96.44,96.44,0,0,1-41.76-26.72c-23-24.11-23-61.58,0-83.54,11.13-10,26-12.81,41.76-7.82s30.64,16.43,41.78,31c23,29.67,23,67.15,0,83.54C773.83,758.61,759,759.41,743.2,754.46Z"/><path class="cls-6" d="M872,655.1a7,7,0,0,1-4.82,6.3,3.63,3.63,0,0,1-4.83-3.64,6.65,6.65,0,0,1,4.83-6C869.88,651,872,652.43,872,655.1Z"/><path class="cls-6" d="M896.52,640c0-2.36-1.85-2.47-4.11-.4A151.67,151.67,0,0,1,877,652.05c-2.26,1.57-2.26,2.69,0,2.5a76,76,0,0,0,15.44-3,6.36,6.36,0,0,0,4.11-5.68Z"/><path class="cls-6" d="M872,678.87a7,7,0,0,1-4.82,6.3,3.63,3.63,0,0,1-4.83-3.64,6.64,6.64,0,0,1,4.83-6C869.88,674.77,872,676.19,872,678.87Z"/><path class="cls-6" d="M896.52,663.78c0-2.37-1.85-2.47-4.11-.41A153.19,153.19,0,0,1,877,675.82c-2.26,1.56-2.26,2.69,0,2.5a76.7,76.7,0,0,0,15.44-3.05,6.36,6.36,0,0,0,4.11-5.67Z"/><path class="cls-6" d="M872,702.63a7,7,0,0,1-4.82,6.3,3.63,3.63,0,0,1-4.83-3.64,6.65,6.65,0,0,1,4.83-6C869.88,698.54,872,700,872,702.63Z"/><path class="cls-6" d="M896.52,687.54c0-2.36-1.85-2.47-4.11-.4A153,153,0,0,1,877,699.58c-2.26,1.57-2.26,2.69,0,2.5a76,76,0,0,0,15.44-3,6.36,6.36,0,0,0,4.11-5.68Z"/><path class="cls-6" d="M872,726.39a7,7,0,0,1-4.82,6.3,3.63,3.63,0,0,1-4.83-3.63,6.66,6.66,0,0,1,4.83-6C869.88,722.3,872,723.72,872,726.39Z"/><path class="cls-6" d="M896.52,711.3c0-2.36-1.85-2.47-4.11-.4A153.19,153.19,0,0,1,877,723.35c-2.26,1.56-2.26,2.68,0,2.5a76.7,76.7,0,0,0,15.44-3.05,6.36,6.36,0,0,0,4.11-5.67Z"/><path class="cls-6" d="M872,750.16a7,7,0,0,1-4.82,6.3,3.63,3.63,0,0,1-4.83-3.64,6.64,6.64,0,0,1,4.83-6C869.88,746.07,872,747.49,872,750.16Z"/><path class="cls-6" d="M896.52,735.07c0-2.36-1.85-2.47-4.11-.41A151.82,151.82,0,0,1,877,747.11c-2.26,1.56-2.26,2.69,0,2.5a76,76,0,0,0,15.44-3,6.36,6.36,0,0,0,4.11-5.68Z"/><path class="cls-6" d="M872,773.92a7,7,0,0,1-4.82,6.3,3.63,3.63,0,0,1-4.83-3.63,6.66,6.66,0,0,1,4.83-6C869.88,769.83,872,771.25,872,773.92Z"/><path class="cls-6" d="M896.52,758.83c0-2.36-1.85-2.47-4.11-.4A153.19,153.19,0,0,1,877,770.88c-2.26,1.56-2.26,2.68,0,2.5a76.7,76.7,0,0,0,15.44-3,6.34,6.34,0,0,0,4.11-5.67Z"/><path class="cls-7" d="M642.8,1177a10.76,10.76,0,0,1-10.73,10.73h0A10.75,10.75,0,0,1,621.35,1177V618.31a10.75,10.75,0,0,1,10.72-10.73h0a10.76,10.76,0,0,1,10.73,10.73Z"/><path class="cls-6" d="M642.8,1177a10.76,10.76,0,0,1-10.73,10.73h0A10.75,10.75,0,0,1,621.35,1177V618.31a10.75,10.75,0,0,1,10.72-10.73h0a10.76,10.76,0,0,1,10.73,10.73Z"/><polygon class="cls-8" points="1202.32 1172.84 979.52 738.22 756.72 1172.84 706.08 1271.63 800.06 1454.96 1158.98 1454.96 1252.96 1271.63 1202.32 1172.84"/><polygon class="cls-9" points="1202.32 1172.84 979.52 738.22 756.72 1172.84 706.08 1271.63 800.06 1454.96 1158.98 1454.96 1252.97 1271.63 1202.32 1172.84"/><polygon class="cls-10" points="1116.94 1454.96 1094.11 1368.38 979.52 933.77 864.93 1368.38 842.1 1454.96 1116.94 1454.96"/><polygon class="cls-11" points="844.36 1196.47 979.52 738.22 756.72 1172.84 754.79 1176.6 844.36 1196.47"/><path class="cls-12" d="M933.67,1090.09s-20.11,10.46-26.62,12.47c-4.67,1.45-6.15-5.19-7.12-9.25s9.06-16,20.29-22.83C928.83,1065.24,934.65,1088.37,933.67,1090.09Z"/><path class="cls-13" d="M1002.63,1065.21c-14.21,12.35-69.11,44.85-69.11,44.85s-5.86-2.13-13-12c-10.79-14.85-10.22-22.78-10.22-22.78s31.22-29.09,54.06-46.57c18.07-13.84,40.08-11.61,48.84,3.84C1020.32,1045.2,1010.58,1058.31,1002.63,1065.21Z"/><path class="cls-14" d="M944.5,1434.77s27.64-7.11,29.66-7.75c2.23-.7,5.74-2,6.17,5.35s.68,9.6.68,9.6-32,.07-35.46-.32S939.39,1438.67,944.5,1434.77Z"/><path class="cls-15" d="M967.23,1165.53s1.62,93,2.7,111.61,36.88,22.47,46.73-1.6,22.93-57.57,23-82.06-5.79-43.18-23.47-57.66S966.77,1140.48,967.23,1165.53Z"/><path class="cls-16" d="M970.09,1272.12c-.8,22.82.77,23,.61,50.6s-1.05,107.15-1.05,107.15,1.73,2.2,4.05,2.14c3.49-.07,4.12-2,4.12-2s2-19.57,6.73-32.14,27.37-92.08,31.4-108,1.47-29-17-32.11S970.45,1262.12,970.09,1272.12Z"/><path class="cls-17" d="M1049.37,1432.54a17.26,17.26,0,0,1,.23-1.88c.89-5,3.87-4,5.83-3.34.37.12,1.57.45,3.3.92,1.72-.47,2.93-.8,3.29-.92,2-.62,4.94-1.68,5.84,3.34a17.26,17.26,0,0,1,.23,1.88c.43,7.16.7,9.4.7,9.4l-10.06,0-10.07,0S1048.93,1439.7,1049.37,1432.54Z"/><path class="cls-5" d="M1013.87,1171.46s20.55,100.85,24.57,118.66,39.22,15.82,44.91-9,18.36-75,3.05-127.24C1078.12,1125.63,1009.43,1147.32,1013.87,1171.46Z"/><path class="cls-5" d="M1035.34,1275c2,28,20.16,156.13,20.16,156.13s.56,1.17,3.92.66,3.8-2.52,3.8-2.52-.18-17.92,3.12-30.66,12.52-71.83,14.75-87.76,2.54-49.17-15.72-50.2S1035.11,1271.77,1035.34,1275Z"/><path class="cls-18" d="M980.75,1020.05c-28,8.56-23.08,34.28-21.93,56.1C961.46,1126.57,964,1192,964,1192s21.44,6.43,66.81-3.49c58.9-12.89,61.26-30.92,61.26-30.92s-26.19-79.48-44.52-117.37c-6.39-13.21-24.17-28-47.91-24.66A115.15,115.15,0,0,0,980.75,1020.05Z"/><path class="cls-5" d="M953.22,1001.4c-11.49-3.94-24.48-27.18-14.34-37,12.51-12.12,20.25,3.24,29.16-.19,19.39-7.45,29.42,3,32.83,19.19,2.11,10-3.72,18.16-11.57,23.86-3.48,2.53-6.44-7.94-18.14-9.08S953.22,1001.4,953.22,1001.4Z"/><path class="cls-5" d="M970.48,1025.38c.37,8.77-1.2,28.69,18.58,23,23.24-6.64,22.64-32.13,20.68-34.58-4.43-5.57-13,0-18.84,1.78S970.16,1017.94,970.48,1025.38Z"/><path class="cls-12" d="M1003.46,1014.77c-1.16.18-2.33.37-3.54.61a115.26,115.26,0,0,0-18.61,5.59,40.64,40.64,0,0,0-5.81,2.66c.54,5.63-1.35,22,13.64,18.16C1004.53,1037.84,1005,1019.93,1003.46,1014.77Z"/><path class="cls-12" d="M996.37,1012.16c-9.7-14.45-13.25-15.68-22.4-26-.17-.44-17.28,9.4-25.42,1.89,0,0,3.16,12.51,8.52,21.88,5.06,8.84,9.75,12.92,17.33,5,1.68,4.61,5.12,9.3,6.55,13.36,2.89,8.19,9.22,7.9,12.86,6S1005.35,1025.53,996.37,1012.16Z"/><path class="cls-12" d="M985.11,986.15c2.2,1.75,1.89,5.8-.7,9.06s-6.47,4.48-8.67,2.73-1.89-5.79.7-9.05S982.91,984.41,985.11,986.15Z"/><path class="cls-19" d="M855.31,1013.43c2.57-3,3.57-8.66,5.22-8.63,4.84.07,3.53,11.66.77,19-1.32,3.48-3.41-.33-3.41-.33S852,1017.27,855.31,1013.43Z"/><path class="cls-19" d="M897.79,1099.88c-18.29-13.34-38.28-58.75-45.78-69.06-13.77-7.23-23.45-10.16-10-25.8,4.15-4.83,24.57,3.68,18.63,20.36,1,6,33,42.32,44.05,53.29,5,4.95,11.94,12.87,9.37,17.22C910,1102.82,904.57,1104.83,897.79,1099.88Z"/><path class="cls-5" d="M1444.27,788.59a39.21,39.21,0,1,1-39.21-39.21A39.21,39.21,0,0,1,1444.27,788.59Z"/><path class="cls-20" d="M1436.09,788.59a31,31,0,1,1-31-31A31,31,0,0,1,1436.09,788.59Z"/><rect class="cls-5" x="1403.96" y="760.54" width="2.21" height="7.49"/><rect class="cls-5" x="1403.96" y="809.16" width="2.21" height="7.49"/><g class="cls-21"><rect class="cls-22" x="1420.67" y="769.87" width="4.96" height="1.27" transform="translate(-128 1231.99) rotate(-45)"/><rect class="cls-22" x="1384.5" y="806.05" width="4.96" height="1.27" transform="translate(-164.19 1216.94) rotate(-45)"/></g><g class="cls-21"><rect class="cls-22" x="1422.51" y="804.2" width="1.27" height="4.96" transform="translate(-153.68 1242.21) rotate(-44.99)"/><rect class="cls-22" x="1386.34" y="768.03" width="1.27" height="4.96" transform="translate(-138.37 1207.22) rotate(-45.03)"/></g><rect class="cls-5" x="1425.63" y="787.49" width="7.49" height="2.21"/><rect class="cls-5" x="1377" y="787.49" width="7.49" height="2.21"/><path class="cls-5" d="M1407,786.7a1.37,1.37,0,0,0-.28-2.26l-12.9-7.77c-.88-.53-1.16-.24-.63.63l7.77,12.91a1.38,1.38,0,0,0,2.26.27Z"/><path class="cls-5" d="M1403.17,790.48a1.39,1.39,0,0,0,.28,2.27l12.91,7.77c.87.52,1.15.24.63-.63L1409.22,787a1.39,1.39,0,0,0-2.27-.28Z"/><path class="cls-5" d="M1408.8,784.85a5.29,5.29,0,1,0,0,7.48A5.3,5.3,0,0,0,1408.8,784.85Z"/><path class="cls-23" d="M1407.66,786a3.67,3.67,0,1,0,0,5.19A3.68,3.68,0,0,0,1407.66,786Z"/><path class="cls-17" d="M1312.13,1315.73a13.26,13.26,0,0,0-.23-1.87c-.89-5-3.87-4-5.83-3.34-.36.12-1.57.45-3.29.91-1.73-.46-2.94-.79-3.3-.91-2-.63-4.94-1.68-5.84,3.34a15.06,15.06,0,0,0-.22,1.87c-.44,7.16-.71,9.4-.71,9.4s4.39,0,10.07,0,10.06,0,10.06,0S1312.57,1322.89,1312.13,1315.73Z"/><path class="cls-24" d="M1343.5,1065.89s-16.42,89.62-20.44,107.42-39.22,15.82-44.9-9-13.56-62.17-5.29-99.43c5.19-23.42,8.65-24.34,28-35.5S1347.94,1041.76,1343.5,1065.89Z"/><path class="cls-24" d="M1326.16,1158.21c-2,28-20.16,156.14-20.16,156.14s-.56,1.17-3.92.65-3.8-2.51-3.8-2.51.18-17.93-3.12-30.67-12.52-71.83-14.74-87.75-2.55-49.17,15.71-50.2S1326.4,1155,1326.16,1158.21Z"/><path class="cls-17" d="M1389.9,1318.13s-27.06-7-29-7.6c-2.17-.69-5.62-1.93-6,5.23s-.69,9.4-.69,9.4,31.36.1,34.73-.28S1394.9,1322,1389.9,1318.13Z"/><path class="cls-24" d="M1390.91,1068.87s-7.08,79.4-9.63,97.47-33.17,31-40.87,6.72-22.4-70-20.54-94,9.1-41.68,27.51-54.4S1392.63,1052.13,1390.91,1068.87Z"/><path class="cls-24" d="M1381.84,1164.35c-2.55,27.92-2.27,29.32-4.2,46.53-3,26.88-12.06,102-12.06,102s-.46,1.78-4.27,2.64a4.33,4.33,0,0,1-3.79-1.25s.5-19.25-2.59-32S1341,1205.5,1339,1189.55s.85-44.51,19.13-45.24S1382.85,1153.37,1381.84,1164.35Z"/><path class="cls-5" d="M1270.48,1065.43c-2,18.85-2.43,61.29-1.19,81.89s1.19,25.17,1.19,25.17,6.91,8.3,51,8.87,62.66-12.3,62.66-12.3,6.33-80,6.88-96.13-21.9-49.86-68.68-50.68S1272.12,1049.72,1270.48,1065.43Z"/><path class="cls-24" d="M1347.72,915.89c2.1-7.17,2.56-11,4.86-17.47,22.21-.23,28-15.1,30-24.11a107.81,107.81,0,0,1,.13,23c-1.43,9.88-2.26,13.4-12.45,11.45-.94,7-.66,8.09-1.42,13.18-1.26,8.4-5.58,10.8-9.61,10.86S1343.29,931,1347.72,915.89Z"/><path class="cls-25" d="M1392.24,945.57c-1.2-14.56-2.86-24.37-26.29-29-6.94-1.38-12.25-1.58-18.88-2.52-22.91-3.28-33.52,8.08-43.22,31.48-24.45,59-34.56,119.16-34.56,119.16s10.07,10.27,65.9,14.86c45.32,3.73,57-5.34,57-5.34S1394.7,975.41,1392.24,945.57Z"/><path class="cls-24" d="M1434.78,803.49c-.37-3.87-.29-7.89,1.86-8.65,3.38-1.2,3,4.63,7,10,2.62,3.52-2.67,10-2.67,10S1435.34,809.42,1434.78,803.49Z"/><path class="cls-24" d="M1436.68,893.81c-6.43-23.9,4.8-62,3.34-79.23-1.29-15.28,9.38-11.94,3.5-30.29-1.54-4.79,9.64-3.27,13.25,7.83,2.57,7.92-1.73,19.61-7.42,21.72-1.82,5.8,2.78,55.19,3.5,70.69.33,7,0,16.57-4.86,18.05C1440.29,904.93,1438.33,902,1436.68,893.81Z"/><path class="cls-24" d="M1439.14,917.8s9.79-13.44,12.43-19.58c1.89-4.4-1.94-11.59-5.79-12.94s-16.5,7.16-24.33,17.39C1415.45,910.51,1437.37,918.57,1439.14,917.8Z"/><path class="cls-18" d="M1393.13,967.14c32.19-15.55,59.3-54,59.3-54s-1.76-9-11.36-16.14c-8.76-6.51-14.61-6.53-14.61-6.53s-25.22,20-45.8,32.28C1374.74,937.39,1376.91,960,1393.13,967.14Z"/><path class="cls-24" d="M1371.09,787.79c2.58-2.9,4.9-6.2,3.62-8.08-2-3-5.16,2-11.56,3.94-4.19,1.29-3.73,9.61-3.73,9.61S1367.12,792.24,1371.09,787.79Z"/><path class="cls-24" d="M1316.16,859.51c19.32-15.47,32.8-52.86,44.14-65.87,10.08-11.57-.5-15.18,15.08-26.5,4.08-3-5.83-8.34-15.31-1.52-6.76,4.87-10.2,16.84-6.86,21.9-2,5.76-34.86,42.87-44.61,55-4.4,5.46-9.77,13.38-6.75,17.43C1306.68,866.35,1310,865.16,1316.16,859.51Z"/><path class="cls-24" d="M1299.61,877.54s.19-16.63,1.75-23.13c1.11-4.66,8.48-8.13,12.38-6.92s8.94,15.61,9.1,28.5C1323,885.86,1300.57,879.21,1299.61,877.54Z"/><path class="cls-18" d="M1307,944.6c-16.51-31.71-15.25-78.75-15.25-78.75s6.79-6.16,18.76-6.15c10.91,0,15.62,3.5,15.62,3.5s8.26,31.1,17.41,53.25C1339.53,931.74,1324.25,948.6,1307,944.6Z"/><path class="cls-5" d="M1367.46,917.4c.86-22.2,8.72-26.36,10.3-28.11,3-3.27,8.44-7.36,7-14.9-1.88-10-4.65-22.44-25.74-25.14-17.57-2.26-33.2,15.15-46.07,48.09-5.79,14.81-33,6.51-53.93,36.23-12.88,18.26-13.57,55.61,21.37,74.11C1319.71,1028.5,1363.39,1022.23,1367.46,917.4Z"/><path class="cls-24" d="M1370.16,884.15c-2.15,1.72-1.85,5.69.69,8.87s6.34,4.38,8.49,2.66,1.85-5.69-.69-8.87S1372.31,882.44,1370.16,884.15Z"/><circle class="cls-5" cx="1405.06" cy="743.74" r="8.1"/><circle class="cls-26" cx="1405.06" cy="743.74" r="3.81"/><path class="cls-27" d="M427.5,832.28s-16.12,15.93-20,21.51c-2.81,4,3.06,7.45,6.63,9.61s18-3.72,27.95-12.32C449.67,844.49,429.43,831.87,427.5,832.28Z"/><path class="cls-4" d="M485.75,785.51c-19.79,9.64-69.85,52.21-69.85,52.21s.21,6.24,7.39,16.13c10.78,14.86,18.5,16.76,18.5,16.76s34.56-20.78,53.48-32.73c9.25-5.84,21.82-8.88,18-33.16C511.1,790.85,495.22,780.9,485.75,785.51Z"/><path class="cls-27" d="M420.57,764.43c2.14-1.91,8.27-8.34,6.75-10-3.6-4-5.19,1.5-11.92,2.58-4.34.7-5.37,12.62-5.37,12.62A24.94,24.94,0,0,0,420.57,764.43Z"/><path class="cls-27" d="M425.12,854c2.48-22.5-13.66-75.39-11.09-85.74,1.67-6.72,8.7-7,7.43-20.1-.61-6.36-17.44-11.67-21-6.38-8.23,12.1-4.75,20.18,3.38,26.45,2.34,5.63.33,61.05,1,76.6.29,7,1.46,17.49,6.41,18.52C419.07,865,424.2,862.39,425.12,854Z"/><path class="cls-28" d="M511.85,931.83S419.34,922.16,400.74,921s-26.77,33.88-4.07,46.58,54.37,29.73,78.67,32.79,43.56-.52,60.07-16.32S536.78,934.4,511.85,931.83Z"/><path class="cls-14" d="M395.29,1090.74s28.54-.77,30.64-.94c2.33-.19,6-.63,4.83,6.59s-1.47,9.51-1.47,9.51-31.23-7.06-34.5-8.21S389.44,1093.41,395.29,1090.74Z"/><path class="cls-29" d="M373.61,943.41c5.88,22.06,7.43,21.76,15.33,48.22s30.22,102.81,30.22,102.81,2.3,1.59,4.5.86c3.32-1.09,3.36-3.08,3.36-3.08s-3.82-19.3-2.92-32.71-.66-96.06-1.44-112.46-7.06-28.19-25.58-25.78S371,933.74,373.61,943.41Z"/><path class="cls-17" d="M511.64,1195.67a15.06,15.06,0,0,1,.22-1.87c.9-5,3.88-4,5.84-3.34.36.12,1.57.45,3.29.91,1.73-.46,2.94-.79,3.3-.91,2-.63,4.94-1.68,5.83,3.34a13.26,13.26,0,0,1,.23,1.87c.44,7.16.71,9.4.71,9.4s-4.39,0-10.07,0-10.06,0-10.06,0S511.2,1202.83,511.64,1195.67Z"/><path class="cls-5" d="M476.14,934.6s20.55,100.85,24.57,118.65,39.22,15.82,44.9-9,18.36-75,3.06-127.24C540.39,888.76,471.69,910.46,476.14,934.6Z"/><path class="cls-5" d="M497.61,1038.15c2,28,20.15,156.14,20.15,156.14s.56,1.17,3.93.66,3.8-2.52,3.8-2.52-.18-17.93,3.12-30.67,12.52-71.83,14.74-87.75,2.55-49.17-15.72-50.2S497.37,1034.91,497.61,1038.15Z"/><path class="cls-18" d="M502.91,783.11C473.7,781,469,806.75,462.22,827.52c-15.72,48-26.55,96.59-26.55,96.59s17.2,22.94,61.94,36.62c57.65,17.65,59.55-9.18,59.55-9.18S561.4,868,558,826c-1.2-14.62-12.45-34.83-35.79-40.29A115.34,115.34,0,0,0,502.91,783.11Z"/><path class="cls-5" d="M491.36,784.58c-2.81,8.31-11.46,26.32,9,28.17,24.07,2.19,32.7-21.8,31.76-24.79-2.12-6.79-12.12-4.67-18.21-5.13S493.75,777.53,491.36,784.58Z"/><path class="cls-12" d="M526,786.58c-1.14-.26-2.3-.49-3.52-.71a114.29,114.29,0,0,0-19.38-1.49,39.18,39.18,0,0,0-6.37.38c-1.53,5.44-9.2,20,6.17,21.86C518.63,808.49,525.54,792,526,786.58Z"/><path class="cls-5" d="M485.4,753.85c-8.72-8.45-10.61-35,2.73-39.61,16.48-5.66,17,11.54,26.48,12.23C535.32,728,540,741.72,536.17,757.8c-2.34,10-13.34,17.13-22.5,20.86-2.35-3.51-.56-14.09-10.67-20.1S485.4,753.85,485.4,753.85Z"/><path class="cls-12" d="M520.76,785c-3.66-14.72-6.24-23.1-10.15-36.31,0-.48-19.63,1.16-23.8-9.11,0,0-2.46,12.67-1.59,23.44.82,10.15,3.32,15.84,13.54,11.9-.44,4.89,1.26,10.87.21,15.05-2.11,8.42,3.32,11.67,7.41,12.09S524.63,800.61,520.76,785Z"/><path class="cls-12" d="M520.72,753.39c1.25,2.52-.75,6.05-4.48,7.9s-7.76,1.31-9-1.21.76-6.05,4.49-7.9S519.47,750.87,520.72,753.39Z"/><polygon class="cls-8" points="472.52 746.61 394.06 741.04 394.06 761.12 472.52 755.54 472.52 746.61"/><polygon class="cls-30" points="472.52 746.61 394.06 741.04 394.06 761.12 472.52 755.54 472.52 746.61"/><path class="cls-8" d="M334.11,732.77a1.58,1.58,0,0,0-1.71,1.6v33.42a1.58,1.58,0,0,0,1.71,1.59L395.55,765a1.88,1.88,0,0,0,1.71-1.84V739a1.87,1.87,0,0,0-1.71-1.84Z"/><path class="cls-5" d="M335.49,771.45a1.44,1.44,0,0,1-1.43,1.43h-3.33a1.44,1.44,0,0,1-1.43-1.43V730.71a1.44,1.44,0,0,1,1.43-1.43h3.33a1.43,1.43,0,0,1,1.43,1.43Z"/><path class="cls-5" d="M474.48,756.6a1.43,1.43,0,0,1-1.43,1.42h-3.33a1.43,1.43,0,0,1-1.43-1.42v-11a1.44,1.44,0,0,1,1.43-1.43h3.33a1.44,1.44,0,0,1,1.43,1.43Z"/><path class="cls-31" d="M473.05,753.86h-3.33c-.79,0-1.43-.26-1.43-.57V753l-71,2v.92c0,.38-.77.71-1.71.73l-60.06,1.71v.87c0,.31-.64.57-1.43.57h-3.33c-.78,0-1.43-.26-1.43-.57v12.22a1.44,1.44,0,0,0,1.43,1.43h3.33a1.44,1.44,0,0,0,1.43-1.43v-2.17L395.55,765a1.88,1.88,0,0,0,1.71-1.84v-2.29l71-5v.76a1.43,1.43,0,0,0,1.43,1.42h3.33a1.43,1.43,0,0,0,1.43-1.42v-3.31C474.48,753.6,473.84,753.86,473.05,753.86Z"/><path class="cls-12" d="M407.46,757.52c1-2.7,3.21-11.3,1.06-12-5.1-1.77-3.82,3.83-9.19,8-3.46,2.71,1.41,13.65,1.41,13.65A25,25,0,0,0,407.46,757.52Z"/><path class="cls-12" d="M454.79,833.75c-8.72-20.89-48.43-59.38-51.18-69.68-1.79-6.68,4.25-10.31-3.21-21.18-3.62-5.27-20.92-1.79-21.51,4.58-1.35,14.57,5.6,20,15.75,21.52,4.77,3.8,29.81,53.28,37.9,66.58,3.65,6,9.74,14.6,14.57,13.11C454.8,846.3,458,841.51,454.79,833.75Z"/><path class="cls-4" d="M468.55,826.17s-21.95,5.68-28.13,8.55c-4.43,2-1.09,8,.91,11.64s17.42,5.81,30.35,3.38C481.59,847.87,470.42,826.79,468.55,826.17Z"/><path class="cls-4" d="M535.48,814.87c-22,1.36-79.7,10.19-79.7,10.19s-2.95,5.49-1.7,17.66c1.86,18.26,7.57,23.78,7.57,23.78s40.32-.62,62.68-1.44c10.94-.41,23.33,3.27,32.23-19.63C561.64,832.33,551.14,813.89,535.48,814.87Z"/><path class="cls-8" d="M1411.43,1440c-4.6,8.25-16.09,15-25.53,15H573.14c-9.44,0-20.93-6.74-25.53-15L359.84,1103.28c-4.6-8.25-.82-13.34,8.41-11.32l594.5,130.18c9.22,2,24.32,2,33.54,0L1590.8,1092c9.22-2,13,3.07,8.4,11.32Z"/><polygon class="cls-32" points="980.55 1251.43 979.52 1251.63 978.49 1251.43 730.6 1454.96 1228.44 1454.96 980.55 1251.43"/><path class="cls-33" d="M368.24,1092c-9.22-2-13,3.07-8.4,11.32L547.61,1440c4.6,8.25,16.09,15,25.53,15H724.79l-123-311.86Z"/><path class="cls-5" d="M932.08,1285a6.89,6.89,0,0,1-4.71,8.49l-.74.21a6.89,6.89,0,0,1-8.49-4.71l-81-282.59a6.89,6.89,0,0,1,4.71-8.49l.74-.21a6.89,6.89,0,0,1,8.49,4.71Z"/><path class="cls-5" d="M926,1245.46a30.92,30.92,0,0,1-9.14-13.52l-10.79-37.67c-1.3-4.54-5.51-7.35-9.34-6.25s-5.91,5.71-4.61,10.24l10.8,37.68a30.84,30.84,0,0,1-.59,16.31L885.59,1298a31,31,0,0,0-.58,16.32l36.85,128.56a8.61,8.61,0,0,0,10.61,5.89l72.06-20.65a8.62,8.62,0,0,0,5.89-10.62l-36.85-128.57a30.92,30.92,0,0,0-9.14-13.52Z"/><path class="cls-34" d="M930.39,1442.37l-36.85-128.56a30.87,30.87,0,0,1,.59-16.32l16.74-45.73a30.83,30.83,0,0,0,.58-16.31l-7.46-26-3.33-11.63h0l-55-191.82a6.87,6.87,0,0,1,2.49-7.38,6.82,6.82,0,0,0-5.58-.83l-.74.21a6.89,6.89,0,0,0-4.71,8.49l55,191.82h0l3.33,11.62,7.47,26.06a30.84,30.84,0,0,1-.59,16.31L885.59,1298a31,31,0,0,0-.58,16.32l36.85,128.56a8.61,8.61,0,0,0,10.61,5.89l2.89-.83A8.57,8.57,0,0,1,930.39,1442.37Z"/><path class="cls-12" d="M1007,1128.42s-11.82,19.35-16.36,24.43c-3.25,3.65-8-1.28-10.88-4.25s-.48-18.36,5.6-30C990,1109.64,1006.92,1126.45,1007,1128.42Z"/><path class="cls-13" d="M1051.07,1077.22c-5.8,17.93-33.92,68.38-33.92,68.38s-6.12,1.21-17.38-3.55c-16.91-7.15-20.51-14.23-20.51-14.23s11.73-41,22.26-67.79c8.33-21.18,20.07-24.12,39.42-16.23C1057.09,1050.39,1054.32,1067.21,1051.07,1077.22Z"/><path class="cls-19" d="M889.34,1147.75c-1.23-3.75-5.55-7.55-4.66-9,2.57-4.09,11.8,3,16.62,9.22,2.29,2.93-2,2.73-2,2.73S890.92,1152.54,889.34,1147.75Z"/><path class="cls-19" d="M985.27,1156.37c-20.9,8.7-70.08,2.19-82.79,3.23-13.34,8-20.86,14.76-27.22-4.88-2-6.06,15.91-19.09,27.08-5.34,5.65,2.27,53.3-6.21,68.41-10,6.83-1.7,17.2-3.52,19.58.94C994.12,1147.48,993,1153.15,985.27,1156.37Z"/><path class="cls-35" d="M1754.41,1444.92c-10.84,4.06-21.08,7.9-42,7.9s-31.19-3.84-42-7.9c-11.58-4.35-24.72-9.27-49.56-9.27s-38,4.92-49.57,9.27c-10.83,4.06-21.07,7.9-42,7.9s-31.19-3.84-42-7.9c-11.59-4.35-24.72-9.27-49.56-9.27h-.18c-24.84,0-38,4.92-49.56,9.27-10.83,4-21.06,7.89-41.95,7.9s-31.11-3.85-41.94-7.9c-11.59-4.35-24.72-9.27-49.56-9.27h-.19c-24.84,0-38,4.92-49.56,9.27-10.83,4-21.05,7.89-41.94,7.9s-31.11-3.85-41.94-7.9c-11.58-4.35-24.72-9.27-49.56-9.27H1071c-24.84,0-38,4.92-49.57,9.27-10.82,4-21,7.89-41.93,7.9s-31.11-3.85-41.93-7.9c-11.59-4.35-24.72-9.27-49.57-9.27h-.19c-24.84,0-38,4.92-49.56,9.27-10.82,4-21,7.89-41.94,7.9s-31.11-3.85-41.93-7.9c-11.59-4.35-24.72-9.27-49.56-9.27h-.2c-24.84,0-38,4.92-49.56,9.27-10.82,4-21.05,7.89-41.94,7.9s-31.11-3.85-41.93-7.9c-11.59-4.35-24.72-9.27-49.56-9.27h-.19c-24.85,0-38,4.92-49.57,9.27-10.84,4.06-21.08,7.9-42,7.9s-31.19-3.84-42-7.9c-11.59-4.35-24.72-9.27-49.56-9.27s-38,4.92-49.57,9.27c-10.84,4.06-21.07,7.9-42,7.9s-31.19-3.84-42-7.9c-11.58-4.35-24.72-9.27-49.56-9.27v21.46c21,0,31.19,3.84,42,7.9,11.59,4.34,24.72,9.27,49.56,9.27s38-4.93,49.57-9.27c10.83-4.06,21.07-7.9,42-7.9s31.19,3.84,42,7.9c11.58,4.34,24.72,9.27,49.56,9.27s38-4.93,49.56-9.27c10.84-4.06,21.08-7.9,42-7.9s31.19,3.84,42,7.9c11.58,4.34,24.71,9.27,49.56,9.27h.19c24.84,0,38-4.93,49.56-9.27,10.83-4.06,21.05-7.89,41.94-7.9s31.11,3.84,41.93,7.9c11.59,4.34,24.72,9.27,49.56,9.27h.2c24.84,0,38-4.93,49.56-9.27,10.83-4.06,21-7.89,41.94-7.9S919,1461,929.85,1465c11.59,4.34,24.72,9.27,49.56,9.27h.2c24.84,0,38-4.93,49.56-9.27,10.82-4.06,21-7.89,41.94-7.9s31.11,3.84,41.93,7.9c11.59,4.34,24.72,9.27,49.56,9.27h.19c24.85,0,38-4.93,49.57-9.27,10.82-4.06,21.05-7.89,41.93-7.9s31.12,3.84,41.94,7.9c11.59,4.34,24.73,9.27,49.57,9.27h.18c24.85,0,38-4.93,49.57-9.27,10.84-4.06,21.07-7.9,42-7.9s31.19,3.84,42,7.9c11.59,4.34,24.72,9.27,49.56,9.27s38-4.93,49.57-9.27c10.84-4.06,21.07-7.9,42-7.9s31.19,3.84,42,7.9c11.59,4.34,24.73,9.27,49.57,9.27s38-4.93,49.57-9.27c10.84-4.06,21.08-7.9,42-7.9v-21.46C1779.13,1435.65,1766,1440.57,1754.41,1444.92Z"/><path class="cls-36" d="M668.46,603a36.39,36.39,0,1,0-36.39,36.38A36.39,36.39,0,0,0,668.46,603Z"/><circle class="cls-5" cx="632.07" cy="603.01" r="24.65" transform="translate(-121.15 160.53) rotate(-13.22)"/><path class="cls-6" d="M641.85,603a9.78,9.78,0,1,0-9.78,9.77A9.78,9.78,0,0,0,641.85,603Z"/><path class="cls-8" d="M397.34,1428.57c-19.59-5.42-36.7-1.24-38.67,7.27a8,8,0,0,0-.16,1.08c12.74,1.75,21.44,5,29.41,8,10.18,3.81,19.82,7.43,38.32,7.85C422,1446,411.92,1432.53,397.34,1428.57Z"/><path class="cls-8" d="M367.45,1334.33c.22,0-20.43-22.85-44.93-22.46-24.32.24-42.44,11-41.91,21.27s19.2,17.36,42.95,18.28S367.53,1334.52,367.45,1334.33Z"/><path class="cls-8" d="M402,1393.55c.19,0-15.72-23.17-38-25.94-22.11-2.87-40,4.43-40.87,13.9s15.31,18.42,36.83,22.22S402.09,1393.73,402,1393.55Z"/><path class="cls-8" d="M407.16,1292.06c5.42-25.28-2-50.75-14.07-54.91s-23.09,14.16-27,39.17c-3.69,24.91,10.48,51.72,10.38,51.89C376.32,1328.06,401.69,1317.23,407.16,1292.06Z"/><path class="cls-8" d="M411.81,1388.68c-.12-.13,24.24-7,32.4-29.06s4.86-45.95-5.5-51.16-22.84,9.86-29.69,32C402.35,1362.48,411.92,1388.56,411.81,1388.68Z"/><path class="cls-8" d="M1547.23,1388.68c-.11-.12,9.47-26.2,2.79-48.25-6.84-22.11-19.3-37.25-29.69-32s-13.61,29-5.49,51.16S1547.35,1388.55,1547.23,1388.68Z"/><path class="cls-8" d="M1582.56,1328.21c-.11-.17,14.06-27,10.37-51.89-3.89-25-14.83-43.38-27-39.17s-19.49,29.63-14.07,54.91S1582.72,1328.06,1582.56,1328.21Z"/><path class="cls-8" d="M1561.7,1428.57c-14.58,4-24.67,17.43-28.9,24.2,18.49-.42,28.14-4,38.32-7.85,8-3,16.67-6.25,29.41-8a8,8,0,0,0-.16-1.08C1598.4,1427.33,1581.29,1423.15,1561.7,1428.57Z"/><path class="cls-8" d="M1636.52,1311.87c-24.5-.39-45.15,22.42-44.93,22.46-.08.19,20.11,18.11,43.89,17.09s42.41-7.89,43-18.28S1660.84,1312.11,1636.52,1311.87Z"/><path class="cls-8" d="M1705.49,1206.45c-7-9.61-33.9-1.85-57,20-17.58,16.58-21.73,39.6-22.64,49.88A524.29,524.29,0,0,0,1523,1452.7c1.94.07,4,.12,6.13.12h.28a518.49,518.49,0,0,1,100.59-172c9.4-1.94,32-7.77,48.22-23C1699.13,1238.05,1712.59,1216.11,1705.49,1206.45Z"/><path class="cls-8" d="M473.19,1384.43c-8.64-6-21.9,6-30.92,25-8.06,17.23-4.27,39.21-3.59,43.18,1.36-.08,2.67-.18,3.94-.3,6.91-1.9,21.45-7.31,28.95-21.35C481.63,1412,481.8,1390.37,473.19,1384.43Z"/><path class="cls-8" d="M1485.85,1384.43c-8.61,5.94-8.44,27.54,1.62,46.49,7.5,14,22,19.45,29,21.35q1.89.18,3.93.3c.68-4,4.47-26-3.59-43.18C1507.75,1390.38,1494.49,1378.44,1485.85,1384.43Z"/><path class="cls-8" d="M310.59,1226.47c-23.14-21.87-50-29.63-57-20s6.36,31.6,27.31,51.44c16.2,15.19,38.82,21,48.22,23a518.49,518.49,0,0,1,100.59,172H430c2.15,0,4.19,0,6.13-.12a524.2,524.2,0,0,0-102.85-176.35C332.32,1266.07,328.18,1243.05,310.59,1226.47Z"/><path class="cls-8" d="M1558.89,1393.55c-.19,0,15.72-23.17,38-25.94,22.12-2.87,40,4.43,40.87,13.9s-15.3,18.42-36.83,22.22S1558.84,1393.73,1558.89,1393.55Z"/><path class="cls-37" d="M1442.94,1294a123.23,123.23,0,1,1-123.23-123.22A123.23,123.23,0,0,1,1442.94,1294Z"/><path class="cls-5" d="M1246.21,1395.07a11.07,11.07,0,0,1-7.88-3.26l-16.43-16.42a11.17,11.17,0,0,1,0-15.78l163.41-163.41a11.18,11.18,0,0,1,15.78,0l16.42,16.42a11.18,11.18,0,0,1,0,15.78l-163.4,163.41A11.12,11.12,0,0,1,1246.21,1395.07Zm147-197a6,6,0,0,0-4.25,1.75l-163.4,163.41a6,6,0,0,0,0,8.5l16.42,16.42a6,6,0,0,0,8.49,0l163.41-163.41a6,6,0,0,0,0-8.5l-16.42-16.42A6,6,0,0,0,1393.2,1198.09Z"/><path class="cls-5" d="M1393.2,1395.07h0a11.1,11.1,0,0,1-7.89-3.26L1221.9,1228.4a11.2,11.2,0,0,1,0-15.78l16.43-16.42a11.18,11.18,0,0,1,15.78,0l163.4,163.41a11.18,11.18,0,0,1,0,15.78l-16.42,16.42A11.08,11.08,0,0,1,1393.2,1395.07Zm-147-197a6,6,0,0,0-4.25,1.75l-16.42,16.42a6,6,0,0,0,0,8.5L1389,1388.17a6,6,0,0,0,4.25,1.75h0a6,6,0,0,0,4.25-1.75l16.42-16.42a6,6,0,0,0,0-8.5l-163.41-163.41A6,6,0,0,0,1246.22,1198.09Z"/><circle class="cls-5" cx="1319.71" cy="1294" r="99.94" transform="translate(-160.87 2400.34) rotate(-81.2)"/><path class="cls-18" d="M1319.71,1194.06a99.86,99.86,0,0,0-84.32,46.27l53.67,53.67-53.67,53.68a100,100,0,0,0,168.64,0L1350.36,1294l53.67-53.67A99.87,99.87,0,0,0,1319.71,1194.06Z"/><path class="cls-20" d="M1377.79,1294a58.08,58.08,0,1,1-58.08-58.08A58.08,58.08,0,0,1,1377.79,1294Z"/><path class="cls-38" d="M1239.62,818.82l4,3.27c4.45-5.42,8.94-11.13,13.34-17l-4.12-3.09C1248.47,807.81,1244,813.46,1239.62,818.82Zm-61.43,58.61,2.92,4.24c5.69-3.9,11.49-8.33,17.26-13.15l-3.3-3.95C1189.42,869.29,1183.75,873.61,1178.19,877.43Zm60.56-401a34.23,34.23,0,0,1,1.52-10.36l-4.91-1.55a39.29,39.29,0,0,0-1.76,11.91,53.09,53.09,0,0,0,1.12,10.59l5-1A48.78,48.78,0,0,1,1238.75,476.4Zm-49.58-188.8c-2.31,1.08-4.62,2.16-6.92,3.26l2.22,4.65q3.42-1.63,6.87-3.24c4.14-1.92,8.37-3.78,12.57-5.54l-2-4.75C1197.66,283.76,1193.37,285.65,1189.17,287.6Zm21.67,562.69,3.59,3.69c5-4.84,10-10.07,15-15.54l-3.81-3.47C1220.73,840.36,1215.75,845.52,1210.84,850.29Zm54.48-65.62,4.23,2.93c4-5.85,8.06-11.89,11.93-18l-4.34-2.77C1273.3,772.88,1269.32,778.88,1265.32,784.67ZM1242.1,507.79a138.63,138.63,0,0,0,11.26,18.74l4.2-3a134.18,134.18,0,0,1-10.84-18Zm29.13-66.31a28,28,0,0,0-22.36,4.74l3,4.2a22.9,22.9,0,0,1,18.39-3.88Zm-130.49,455,1.57,4.9a130,130,0,0,0,20.15-8.44l-2.36-4.58A125.56,125.56,0,0,1,1140.74,896.45Zm3-586.41,2.34,4.59c6.45-3.3,12.76-6.51,19.12-9.7l-2.3-4.61C1156.56,303.52,1150.24,306.74,1143.78,310Zm184.33-48.82.07-5.15c-7.11-.1-14.37.09-21.64.57l.33,5.13C1314,261.31,1321.13,261.12,1328.11,261.22ZM1285.73,264l-.72-5.1c-7,1-14.2,2.24-21.3,3.74l1.07,5C1271.76,266.17,1278.81,264.93,1285.73,264Zm39.52,227.67-2.88,5.63.06.12c1.23,2.54,2.42,5.15,3.53,7.78l4.75-2c-1.15-2.71-2.38-5.41-3.65-8C1326.51,494,1325.9,492.83,1325.25,491.63Zm-21.71-21.91,3.87-3.4a107,107,0,0,0-16-15.07l-3.09,4.12A101.27,101.27,0,0,1,1303.54,469.72Zm39,75.2a190.84,190.84,0,0,0-4.68-21.23l-5,1.4a185.1,185.1,0,0,1,4.55,20.66Zm-98.48-272.2-1.39-5c-6.87,1.93-13.81,4.11-20.62,6.49l1.69,4.86C1230.51,276.77,1237.34,274.62,1244.11,272.72Zm-144.44,627.1-.89,5.07a83.22,83.22,0,0,0,14.32,1.24c2.54,0,5.14-.12,7.71-.35l-.45-5.13A78.82,78.82,0,0,1,1099.67,899.82Zm171.24-360-3.73,3.55c1.27,1.34,2.54,2.61,3.77,3.78a142.15,142.15,0,0,0,12.61,10.7l3.1-4.11a136.58,136.58,0,0,1-12.16-10.32C1273.34,542.36,1272.13,541.15,1270.91,539.87Zm206.66-211.5,4-3.27a186.44,186.44,0,0,0-14.75-16l-3.57,3.71A180.87,180.87,0,0,1,1477.57,328.37Zm27.7,33c-3.36-6.5-7-12.82-10.89-18.77l-4.32,2.81a210.11,210.11,0,0,1,10.63,18.32Zm-78.4,211.82,1.78,4.83a153.22,153.22,0,0,0,19.86-9l-2.45-4.53A150.15,150.15,0,0,1,1426.87,573.22Zm2.66-285.74a176.18,176.18,0,0,1,17.62,11.67l3.1-4.12a180.77,180.77,0,0,0-18.14-12Zm34.26,265.7,3.09,4.12A148.77,148.77,0,0,0,1483.34,543l-3.66-3.63A142.46,142.46,0,0,1,1463.79,553.18Zm29.55-29.86,4.16,3A146.79,146.79,0,0,0,1509,507.84l-4.56-2.38A141.29,141.29,0,0,1,1493.34,523.32Zm-205,225.3,4.44,2.6c3.7-6.32,7.26-12.65,10.56-18.83l-4.54-2.42C1295.5,736.08,1292,742.36,1288.31,748.62Zm236.62-325.34-5.12.55a146.35,146.35,0,0,1,.85,15.64c0,1.8,0,3.62-.1,5.41l5.14.19c.07-1.85.11-3.74.11-5.6A151.42,151.42,0,0,0,1524.93,423.28Zm-3.87-21.46a161.86,161.86,0,0,0-6.77-20.7l-4.78,1.92a156.94,156.94,0,0,1,6.56,20Zm-8.24,84.32,4.87,1.69a146.09,146.09,0,0,0,5.59-21.08l-5.06-.95A141.06,141.06,0,0,1,1512.82,486.14ZM1335.05,630.21l5,1c1.39-7.17,2.52-14.37,3.35-21.39l-5.11-.6C1337.52,616.09,1336.41,623.16,1335.05,630.21Zm-33.13-60.52a149.38,149.38,0,0,0,19.89,9l1.77-4.84a144.8,144.8,0,0,1-19.21-8.64Zm22.26,101.66,4.89,1.63c2.29-6.88,4.37-13.85,6.19-20.71l-5-1.32C1328.49,657.71,1326.44,664.57,1324.18,671.35Zm-13.11,33.7c-.84,1.88-1.74,3.84-2.68,5.85l4.65,2.19c1-2,1.88-4,2.73-5.94,2-4.57,4-9.24,5.88-13.88l-4.78-1.92C1315,695.93,1313.09,700.54,1311.07,705.05Zm34.22-125.5c0-4.38-.13-8.77-.37-13l-5.14.3c.23,4.17.36,8.45.36,12.74,0,2.78-.06,5.63-.16,8.47l5.15.18c0-1,.07-2.05.09-3.07a152.93,152.93,0,0,0,19.17,2.45l.33-5.14a146.14,146.14,0,0,1-19.43-2.55Zm48.32,1.89c-2.59.35-5.22.63-7.82.84l.41,5.13c2.69-.21,5.42-.5,8.09-.86,4.52-.62,9-1.41,13.45-2.38l-1.11-5C1402.37,580.08,1398,580.85,1393.61,581.44Zm-2.82-310.76a193.7,193.7,0,0,1,19.85,7.3l2-4.73a199.47,199.47,0,0,0-20.39-7.49Zm-41.49-8.26c7.1.72,14.15,1.77,21,3.11l1-5c-7-1.37-14.18-2.44-21.44-3.18Z"/><polygon class="cls-39" points="1061.54 370.66 1147.16 357.44 1147.48 320.95 1061.54 370.66"/><polygon class="cls-40" points="1151.2 321.57 1181.68 327.45 1061.54 370.66 1107.83 314.33 1151.2 321.57"/><polygon class="cls-41" points="1146.54 320.8 1074.94 362.91 1132.16 318.39 1146.54 320.8"/><path class="cls-35" d="M228,642.26a42.1,42.1,0,0,0-5.53.36,63.59,63.59,0,0,0-125.8,0,42.09,42.09,0,1,0-5.53,83.82H228a42.09,42.09,0,0,0,0-84.18Z"/><g class="cls-42"><path class="cls-43" d="M265.65,683.09a3.14,3.14,0,0,0-3.13-3h-.11a3.14,3.14,0,0,0-3,3.24c0,.36,0,.71,0,1.06a3.14,3.14,0,1,0,6.27,0C265.67,683.93,265.67,683.51,265.65,683.09Z"/></g><path class="cls-44" d="M269.89,680.43c-2,16-20,28.5-41.91,28.5H91.12c-21.93,0-39.93-12.52-41.91-28.5-.12,1.29-.18,2.6-.18,3.92a42.09,42.09,0,0,0,42.09,42.09H228a42.09,42.09,0,0,0,42.09-42.09C270.07,683,270,681.72,269.89,680.43Z"/><path class="cls-38" d="M1821.55,856.86a31.75,31.75,0,0,0-4.17.27,47.92,47.92,0,0,0-94.8,0,31.72,31.72,0,1,0-4.17,63.17h103.14a31.72,31.72,0,0,0,0-63.44Z"/><path class="cls-45" d="M1853.13,885.63c-1.49,12-15.06,21.47-31.58,21.47H1718.41c-16.52,0-30.09-9.43-31.58-21.47-.09,1-.14,2-.14,3a31.72,31.72,0,0,0,31.72,31.72h103.14a31.72,31.72,0,0,0,31.71-31.72C1853.26,887.58,1853.21,886.6,1853.13,885.63Z"/><polygon class="cls-39" points="482.7 53.42 416.61 109.44 388.84 85.78 482.7 53.42"/><polygon class="cls-40" points="386.87 88.99 371.34 115.87 482.7 53.42 409.81 51.48 386.87 88.99"/><polygon class="cls-41" points="389.33 84.96 468.06 58.47 396.94 72.52 389.33 84.96"/><path class="cls-38" d="M1059.45,662.12c-4.26-5.85-8.59-11.59-12.87-17.06l4.06-3.17c4.31,5.51,8.67,11.3,13,17.2Zm-26.33-33.63c-4.66-5.51-9.41-10.9-14.12-16l3.79-3.49c4.76,5.16,9.55,10.61,14.26,16.17Zm-28.94-31.35c-5.12-5-10.36-9.95-15.57-14.57l3.41-3.85c5.28,4.68,10.59,9.64,15.78,14.75ZM382,572.33c-2,0-4,0-5.95-.07l.1-5.14c7,.14,14.13,0,21.28-.35l.26,5.15C392.44,572.19,387.16,572.33,382,572.33ZM354.43,571c-7.25-.72-14.47-1.74-21.46-3l.93-5.06c6.85,1.26,13.93,2.26,21,3Zm64.81-.92-.6-5.11c6.92-.82,14-1.88,21.06-3.16l.92,5.07C433.46,568.16,426.27,569.24,419.24,570.07Zm553-1.17c-5.61-4.42-11.37-8.67-17.12-12.65l2.93-4.23c5.84,4,11.68,8.35,17.38,12.84Zm-660.41-5.82c-7-2-13.92-4.24-20.59-6.81l1.84-4.81c6.53,2.51,13.3,4.75,20.13,6.66Zm149.91-.66-1.2-5c4.63-1.11,9.35-2.33,14-3.63l6.62-1.85,1.4,5L476,558.75C471.23,560.06,466.45,561.3,461.76,562.42ZM503.24,551,501.81,546q10.31-3,20.58-6l1.45,4.94Q513.57,548,503.24,551Zm-231.83-3.45c-6.44-3.23-12.8-6.81-18.9-10.66l2.75-4.35c6,3.75,12.17,7.25,18.46,10.4Zm665.85-2.79c-6.08-3.64-12.34-7.1-18.6-10.29l2.33-4.59c6.37,3.24,12.73,6.76,18.91,10.46Zm-392.84-5.85L543,533.94c8-2.36,14.57-4.26,20.61-6l1.43,4.95C559,534.63,552.43,536.53,544.42,538.88Zm41.21-11.81-1.37-5c7.34-2,14.13-3.86,20.75-5.58l1.3,5C599.71,523.23,593,525.05,585.63,527.07Zm313.75-1.63c-6.47-2.76-13.15-5.34-19.84-7.66l1.69-4.86c6.8,2.36,13.59,5,20.17,7.78Zm-664.63-1c-5.65-4.37-11.2-9.11-16.5-14.07l3.52-3.76c5.18,4.85,10.61,9.48,16.13,13.76Zm392.32-8.08-1.19-5c7.17-1.71,14.23-3.31,21-4.75l1.07,5C641.22,513,634.21,514.62,627.07,516.33Zm232.15-4.85c-6.75-1.85-13.72-3.52-20.7-5l1.05-5c7.08,1.47,14.15,3.16,21,5Zm-190.31-4-.92-5.07c7.19-1.31,14.34-2.48,21.26-3.48L690,504C683.13,505,676,506.18,668.91,507.48Zm148.65-4.64c-1.21-.18-2.41-.35-3.62-.51-5.8-.78-11.7-1.45-17.56-2l.47-5.13c5.92.53,11.91,1.2,17.78,2,1.22.16,2.45.33,3.66.51Zm-106.38-1.48-.54-5.12c7.22-.76,14.45-1.37,21.49-1.8l.32,5.14C725.48,500,718.33,500.6,711.18,501.36ZM775.11,499c-7-.25-14.23-.33-21.34-.24l-.07-5.15c7.19-.1,14.48,0,21.6.25Zm-572-4.18c-.88-1-1.75-2-2.62-3-3.88-4.48-7.62-9.13-11.09-13.82l4.13-3.07c3.4,4.59,7.05,9.13,10.85,13.51.85,1,1.71,2,2.57,2.92ZM177.33,460a215.18,215.18,0,0,1-10.21-19.17l4.66-2.18a208.72,208.72,0,0,0,10,18.7Zm-18.39-39.3a205.41,205.41,0,0,1-6-20.88l5-1.15A199.06,199.06,0,0,0,163.81,419Zm-9.73-42.28a206,206,0,0,1-1.42-21.67l5.15-.07a198.47,198.47,0,0,0,1.39,21.13Zm4.58-42.9-5.13-.47a212.84,212.84,0,0,1,3.1-21.48l5.05,1A208.64,208.64,0,0,0,153.79,335.52ZM161.93,294,157,292.51c2.07-6.85,4.52-13.73,7.26-20.44l4.77,2C166.34,280.58,164,287.3,161.93,294Zm16-39.21-4.57-2.38c3.31-6.34,7-12.65,10.88-18.75l4.33,2.78C184.79,242.41,181.21,248.59,178,254.79Zm22.85-35.72-4.08-3.14c2.09-2.72,4.28-5.46,6.5-8.12,2.37-2.85,4.85-5.72,7.34-8.51l3.85,3.43c-2.46,2.75-4.9,5.57-7.24,8.38C205,213.72,202.87,216.4,200.82,219.07Zm28.29-31.76-3.61-3.67c5-5,10.36-9.91,15.83-14.7l3.39,3.87C239.33,177.54,234.08,182.42,229.11,187.31Zm32-28.1L258,155.16c5.53-4.35,11.34-8.69,17.29-12.91l3,4.19C272.34,150.62,266.59,154.91,261.13,159.21Zm34.75-24.75-2.8-4.32c5.86-3.8,12-7.63,18.31-11.38l2.64,4.43C307.79,126.9,301.69,130.7,295.88,134.46Zm36.68-21.92-2.49-4.5c6.06-3.36,12.45-6.78,19-10.16l2.37,4.57C344.93,105.81,338.58,109.21,332.56,112.54Zm38-19.72-2.27-4.62c3.11-1.53,6.23-3,9.34-4.53l2.23,4.65C376.73,89.8,373.63,91.31,370.54,92.82Z"/><path class="cls-38" d="M1497.62,1061.42l-5-1c1.43-7,3-14.1,4.78-21l5,1.25C1500.62,1047.48,1499,1054.48,1497.62,1061.42ZM1508,1020l-4.93-1.48c2.06-6.86,4.3-13.77,6.67-20.52l4.86,1.71C1512.26,1006.42,1510,1013.25,1508,1020Zm14.12-40.26-4.77-1.93c2.68-6.66,5.56-13.33,8.54-19.82l4.68,2.15C1527.62,966.6,1524.78,973.19,1522.12,979.78Zm17.8-38.77-4.57-2.37c3.31-6.38,6.8-12.75,10.39-18.92l4.45,2.59C1546.65,928.41,1543.19,934.7,1539.92,941Zm21.44-36.87-4.32-2.81c3.92-6,8-12,12.21-17.8l4.17,3C1569.29,892.26,1565.23,898.18,1561.36,904.14Zm25-34.52-4-3.24c4.52-5.6,9.23-11.13,14-16.43l3.83,3.45C1595.49,858.63,1590.84,864.09,1586.38,869.62ZM1614.89,838l-3.63-3.65c5.1-5.08,10.4-10,15.73-14.79l3.42,3.85C1625.15,828,1619.93,832.94,1614.89,838Zm31.85-28.27-3.19-4c5.65-4.45,11.49-8.79,17.35-12.87l2.94,4.22C1658.07,801,1652.31,805.28,1646.74,809.68Zm34.93-24.34-2.69-4.4c4.67-2.85,9.47-5.63,14.25-8.25l4.49-2.46,2.46,4.52-4.47,2.45C1691,779.79,1686.27,782.52,1681.67,785.34Zm37.38-20.76-2.43-4.54q9.57-5.12,19-10.08l2.41,4.55Q1728.62,759.48,1719.05,764.58Zm37.88-20.15-2.42-4.54c7.25-3.87,13.24-7.11,18.85-10.18l2.47,4.52C1770.21,737.31,1764.2,740.55,1756.93,744.43Zm37.68-20.67-2.55-4.48c6.6-3.76,12.63-7.3,18.44-10.82l2.67,4.41C1807.32,716.41,1801.25,720,1794.61,723.76Zm36.8-22.35-2.82-4.31c6.12-4,12.05-8.07,17.6-12.06l3,4.18C1843.58,693.26,1837.6,697.36,1831.41,701.41Zm35-25.24-3.22-4c5.61-4.52,11.06-9.17,16.19-13.82l3.46,3.81C1877.61,666.88,1872.08,671.59,1866.38,676.17Zm31.93-29.08-3.71-3.57c4.92-5.11,9.7-10.44,14.19-15.82l4,3.3C1908.17,636.48,1903.32,641.89,1898.31,647.09ZM1926,613.92l-4.18-3c4.1-5.69,8.07-11.63,11.81-17.67L1938,596C1934.21,602.09,1930.17,608.14,1926,613.92Zm22.77-36.7-4.55-2.42c3.27-6.14,6.43-12.56,9.41-19.09l4.68,2.14C1955.3,564.47,1952.09,571,1948.77,577.22Zm18.09-39.11-4.74-2c2.54-5.92,5.46-12.83,8.1-19.76l4.81,1.83C1972.36,525.17,1969.41,532.13,1966.86,538.11Zm14.94-40.6-5-1.32a118.26,118.26,0,0,0,3.72-20.64l5.14.43A124.39,124.39,0,0,1,1981.8,497.51Z"/><polygon class="cls-39" points="1998.22 364.13 2022.55 447.29 1989.64 463.05 1998.22 364.13"/><polygon class="cls-40" points="1991.78 466.15 2010.02 491.26 1998.22 364.13 1966.83 429.94 1991.78 466.15"/><polygon class="cls-41" points="1989.1 462.26 1996.88 379.56 1980.83 450.25 1989.1 462.26"/><path class="cls-46" d="M762.26,697.7v7.38c0,6.7-10.31,12.57-22.07,12.57s-22.06-5.87-22.06-12.57V697.7l16,8a14.57,14.57,0,0,0,12,0Zm7-7-1.24-.52,5.41-2.7c1.09-.55,1.72-1.31,1.72-2.08s-.63-1.53-1.72-2.07l-29.08-14.54a10.44,10.44,0,0,0-8.3,0L707,683.32c-2.29,1.14-2.29,3,0,4.15L736,702a10.47,10.47,0,0,0,8.31,0l13.86-6.93-16.85-7.42a2.08,2.08,0,0,1,1.68-3.81l20,8.82.07,0,3.28,1.36V708.8a3.17,3.17,0,0,0-1.13,2.42,3.21,3.21,0,1,0,6.41,0,3.17,3.17,0,0,0-1.13-2.42V692.6a2.06,2.06,0,0,0-1.28-1.91Z"/></g></g></svg>