<svg id="Layer_1" data-name="Layer 1" xmlns="http://www.w3.org/2000/svg" viewBox="0 0 2284.67 1992.29"><defs><style>.cls-1{fill:#fcee21;}.cls-2{fill:#fcedee;}.cls-3{fill:#fef7db;}.cls-19,.cls-4{fill:none;}.cls-4{stroke:#000;stroke-miterlimit:10;stroke-width:3px;}.cls-5{fill:#4c8f8d;}.cls-6{fill:#3c4d4f;}.cls-7{fill:#477bf1;}.cls-13,.cls-14,.cls-8{fill:#fff;}.cls-9{fill:#e37057;}.cls-10{fill:#343246;}.cls-11{fill:#131934;}.cls-12{fill:#748ced;}.cls-13{opacity:0.47;}.cls-14{opacity:0.69;}.cls-15{fill:#0c302d;}.cls-16{fill:#f1a68b;}.cls-17,.cls-18{fill:#ed7353;}.cls-17{opacity:0.36;}.cls-20{fill:#6cb0db;}.cls-21{fill:#fcc173;}.cls-22{fill:#c64b37;}.cls-23{fill:#eaf1fe;}</style></defs><path class="cls-1" d="M1221.82,118.1a18.39,18.39,0,0,1,2.12,5.29c.09,1.22-1.19,3.49-2.1,3.63h0a5.67,5.67,0,0,1-4.4-1.73c-3.73-4.39-2.54-12.18,2.16-16.13h0a12.36,12.36,0,0,1,17.63,1.89c5.53,6.82,5.76,14.38,3.12,22.16-2.34,6.91-11.69,10.26-19.15,6.91-19.06-8.53-27.49-29.61-12.71-48.91,9.62-12.57,30.79-16.16,44.21-6.92,9.26,6.36,16.16,14.32,19,24.92,3.18,11.71,1.31,22.6-5.91,33.28-6.43,9.51-15.08,12.44-25.17,13.72h0a41.24,41.24,0,0,0-27,14.1c-5.14,5.95-4.55,13.32-3.44,20.5a21.42,21.42,0,0,0,6,13c.78.75-.18,3.33-.34,5.06-1.43-.45-3.33-.46-4.2-1.41h0a32,32,0,0,1-8-20.74,32.53,32.53,0,0,1,.78-10.08c4.16-15.32,16.27-21.4,30.16-25.12a96.81,96.81,0,0,1,10.69-1.89c7.28-1.1,12.07-5.11,16.22-11.25h0a33.8,33.8,0,0,0,4.78-29c-4.16-16.09-23.63-27.87-39-23.92-12.8,3.29-20.14,15.86-21.5,25.89a16.4,16.4,0,0,0,2,8.92c3.52,7,8.45,12.69,16.45,15,6.43,1.88,13.74-4.48,12.48-11.23h0a53.83,53.83,0,0,0-2.1-6.56,6.56,6.56,0,0,0-2.62-4,6.67,6.67,0,0,0-4.64-1.19c-3.82.23-5.7,2.61-5.59,5.79Z"/><path class="cls-1" d="M1215.8,225.5a5.77,5.77,0,0,1-6.93,4.56c-4-.71-3.17-4.14-3-6.41h0a4.28,4.28,0,0,1,5.58-3.81c2.62.64,4.92,2.25,4.35,5.67Z"/><path class="cls-2" d="M1995.57,572.52c-31.23-170.83-189.42-348.42-428.69-228.27-125.1,62.83-326.35-22.17-407.88,54.15s-28,403.05-59.67,548.93c-66.82,307.87,132.59,377.05,297.21,377.05,38.42,0,194.08-37.8,230.31-37.88,45.07-.09,83.13,14.51,107.51,34.83,51.15,42.61,138.39,60.64,207.94,42.9,180-45.93,270.66-175.6,270.66-338.52S2028,749.75,1995.57,572.52Z"/><rect class="cls-3" x="203.98" y="1092.1" width="557.81" height="557.81" rx="89.5" transform="translate(500.38 -82.45) rotate(20.09)"/><path class="cls-4" d="M2001.44,669.65c3-173.63-117.2-378.87-375.42-308.11-135,37-315.62-85.92-410.57-27.12S1108.73,724.09,1049,860.89c-126.07,288.72,55.85,395.76,217.25,428.14,37.67,7.55,197.72,1.11,233.26,8.15,44.21,8.77,78.66,30.58,98.57,55.29,41.76,51.83,123.76,86.67,195.44,83,185.53-9.62,299.91-118.93,331.95-278.67S1998.35,849.79,2001.44,669.65Z"/><rect class="cls-5" x="256.19" y="1509.35" width="56.38" height="271.87"/><rect class="cls-5" x="691.6" y="1398.02" width="56.38" height="383.2"/><rect class="cls-5" x="478.6" y="1422.04" width="56.38" height="359.18"/><path class="cls-6" d="M361.16,1375.89v405.33h61.49V1375.89Zm5.1,402v-398h51.28v398Z"/><path class="cls-6" d="M584.63,1269.13v512.09h61.49V1269.13Zm5.1,507.93V1274.24H641v502.82Z"/><rect class="cls-5" x="1066.12" y="801.87" width="84.08" height="597.91"/><rect class="cls-5" x="1715.42" y="828.34" width="84.08" height="571.45"/><rect class="cls-5" x="1397.78" y="864.16" width="84.08" height="535.63"/><path class="cls-6" d="M1222.65,636.13v763.66h91.7V636.13Zm7.61,757.45V643.74h76.48v749.84Z"/><path class="cls-6" d="M1555.9,636.13v763.66h91.7V636.13Zm7.61,757.45V643.74H1640v749.84Z"/><path class="cls-6" d="M1846.49,1115v278.11h91.7V1115Zm7.61,270.36V1122.59h76.48v262.75Z"/><path class="cls-7" d="M1947.64,952.8a8.53,8.53,0,1,1-8.53-8.54A8.53,8.53,0,0,1,1947.64,952.8Z"/><path class="cls-7" d="M2039,667.34a8.53,8.53,0,1,1-8.53-8.53A8.53,8.53,0,0,1,2039,667.34Z"/><path class="cls-8" d="M1826,733.67a14.4,14.4,0,1,1,14.4-14.4A14.42,14.42,0,0,1,1826,733.67Zm0-25.21a10.82,10.82,0,1,0,10.82,10.81A10.83,10.83,0,0,0,1826,708.46Z"/><path class="cls-8" d="M2090.42,866a14.4,14.4,0,1,1,14.4-14.4A14.42,14.42,0,0,1,2090.42,866Zm0-25.22a10.82,10.82,0,1,0,10.82,10.82A10.83,10.83,0,0,0,2090.42,840.79Z"/><path class="cls-7" d="M162.65,1689.25a8.54,8.54,0,1,1-8.53-8.53A8.53,8.53,0,0,1,162.65,1689.25Z"/><circle class="cls-7" cx="245.49" cy="1403.79" r="8.53"/><path class="cls-8" d="M41,1470.12a14.4,14.4,0,1,1,14.4-14.39A14.4,14.4,0,0,1,41,1470.12Zm0-25.21a10.82,10.82,0,1,0,10.82,10.82A10.83,10.83,0,0,0,41,1444.91Z"/><path class="cls-8" d="M53.58,1214.62A12.61,12.61,0,1,1,41,1202,12.6,12.6,0,0,1,53.58,1214.62Z"/><path class="cls-9" d="M1834.49,1398.15h0c17.53-15.35,19-43.6-6.84-73.14L1528.58,983.46c-25.87-29.53-61-41-78.57-25.68h0c-17.53,15.35-10.78,51.74,15.08,81.28l299.07,341.54C1790,1410.14,1817,1413.5,1834.49,1398.15Z"/><path class="cls-10" d="M1811,1408.94a42.77,42.77,0,0,1-8.94-1c-13.16-2.83-26.74-11.89-39.26-26.18l-299.06-341.55c-26.47-30.23-33.17-67.82-14.92-83.8s54.63-4.37,81.09,25.85L1829,1323.83c12.44,14.21,19.4,29.07,20.14,43,.68,12.88-4.1,24.49-13.46,32.69A36.7,36.7,0,0,1,1811,1408.94ZM1469.92,952.73c-7.31,0-13.78,2.06-18.74,6.4-16.75,14.67-9.91,50,15.26,78.75l299.07,341.54c12,13.71,24.91,22.37,37.32,25,11.43,2.45,22-.19,30.48-7.65h0c8.52-7.46,12.87-18,12.24-29.81-.69-13.1-7.35-27.21-19.25-40.81L1527.23,984.64C1509.5,964.4,1487.33,952.73,1469.92,952.73Z"/><path class="cls-9" d="M1483.22,1053l59.24-51.87a19.23,19.23,0,0,0,1.8-27.15L1522.42,949a19.24,19.24,0,0,0-27.15-1.79L1436,999.11a19.23,19.23,0,0,0-1.8,27.14l21.84,25A19.24,19.24,0,0,0,1483.22,1053Z"/><path class="cls-11" d="M1470.58,1059.56c-.48,0-.95,0-1.43,0a20.84,20.84,0,0,1-14.42-7.13l-21.84-25a21,21,0,0,1,2-29.67l59.23-51.86a21,21,0,0,1,29.67,2l21.85,24.94a21,21,0,0,1-2,29.67l-59.24,51.88A20.86,20.86,0,0,1,1470.58,1059.56Zm37.34-115.29a17.34,17.34,0,0,0-11.48,4.32l-59.23,51.86a17.48,17.48,0,0,0-1.63,24.63l21.84,24.94a17.45,17.45,0,0,0,24.62,1.64l59.25-51.88a17.44,17.44,0,0,0,1.62-24.62l-21.84-24.94a17.35,17.35,0,0,0-12-5.91C1508.7,944.28,1508.31,944.27,1507.92,944.27ZM1483.22,1053h0Z"/><line class="cls-12" x1="1497.5" y1="959.74" x2="1535.98" y2="1004.16"/><path class="cls-11" d="M1536,1006a1.77,1.77,0,0,1-1.35-.62l-38.48-44.42a1.79,1.79,0,1,1,2.71-2.34l38.47,44.42a1.79,1.79,0,0,1-1.35,3Z"/><line class="cls-12" x1="1501.1" y1="998.51" x2="1520.34" y2="1020.72"/><path class="cls-11" d="M1520.34,1022.51a1.81,1.81,0,0,1-1.36-.62l-19.24-22.21a1.79,1.79,0,0,1,2.71-2.35l19.24,22.22a1.78,1.78,0,0,1-.18,2.52A1.81,1.81,0,0,1,1520.34,1022.51Z"/><path class="cls-9" d="M1166.49,971.32c80.85,92.33,221.24,101.64,313.58,20.79s101.64-221.24,20.79-313.58-221.24-101.64-313.58-20.79S1085.64,879,1166.49,971.32Zm52.12-279.82a176.29,176.29,0,1,1-16.49,248.77A176.3,176.3,0,0,1,1218.61,691.5Z"/><path class="cls-13" d="M1197.49,943.72c66.66,76.13,182.41,83.8,258.54,17.14a183.21,183.21,0,1,0-241.39-275.67C1138.51,751.85,1130.84,867.6,1197.49,943.72Z"/><path class="cls-14" d="M1277.22,746.73a47.86,47.86,0,1,0,4.48-67.54A47.87,47.87,0,0,0,1277.22,746.73Z"/><path class="cls-15" d="M1758.7,1276.73c-.53-2.07-206.6-22.62-206.6-22.62L1484,1493.62A270.64,270.64,0,0,0,1474,1553l-20,291.87a8.25,8.25,0,0,0,8.33,8.81l92.83-1.15a9.78,9.78,0,0,0,9.6-8.71l25-225.59,31.42-77.12,9.93,303.64a9.38,9.38,0,0,0,9.5,9.07l98,0a6.22,6.22,0,0,0,6.18-5.65q8.37-167.33,16.75-334.65c2.55-51.06,9.22-101.94,8.62-153.14C1769.84,1330.76,1765.53,1303.79,1758.7,1276.73Z"/><path class="cls-8" d="M1616.69,1559.53a1.72,1.72,0,0,1-.66-.13,1.79,1.79,0,0,1-1-2.32l46.15-116.84a1.79,1.79,0,0,1,3.33,1.31l-46.15,116.84A1.78,1.78,0,0,1,1616.69,1559.53Z"/><path class="cls-7" d="M1648.05,1853.11l-4.52,3.89-63.83,57.69a6.18,6.18,0,0,0,4.23,10.76l142.94-2a6.83,6.83,0,0,0,6.73-7l-.26-63.28Z"/><path class="cls-11" d="M1579.7,1914.69l2.22-2a6,6,0,0,0,4.18,1.62l143-2a6.74,6.74,0,0,0,4.53-1.84l0,5.94a6.83,6.83,0,0,1-6.73,7l-142.94,2A6.18,6.18,0,0,1,1579.7,1914.69Z"/><path class="cls-8" d="M1600.44,1915.44a1.79,1.79,0,0,1,0-3.58l133-1.16h0a1.79,1.79,0,0,1,0,3.58l-133,1.16Z"/><path class="cls-8" d="M1655.5,1871.85a1.77,1.77,0,0,1-1.32-.58l-12-13.06a1.79,1.79,0,1,1,2.64-2.42l12,13.06a1.79,1.79,0,0,1-.11,2.53A1.76,1.76,0,0,1,1655.5,1871.85Z"/><path class="cls-8" d="M1645.67,1881.12a1.81,1.81,0,0,1-1.32-.58l-12-13.06a1.79,1.79,0,1,1,2.65-2.42l12,13.06a1.79,1.79,0,0,1-.11,2.53A1.76,1.76,0,0,1,1645.67,1881.12Z"/><path class="cls-8" d="M1636.43,1890.23a1.77,1.77,0,0,1-1.32-.58l-12-13.06a1.79,1.79,0,0,1,2.65-2.42l12,13.06a1.79,1.79,0,0,1-.11,2.53A1.76,1.76,0,0,1,1636.43,1890.23Z"/><path class="cls-8" d="M1655.27,1855.74l-1.12-.38c-4.78-2.43-3.26-22.38-3-23.71a7.91,7.91,0,0,1,15.56,2.88h0c-.48,2.58-7.5,19.28-10.62,20.81Zm3.64-27a4.36,4.36,0,0,0-4.25,3.54c-.65,3.53-.54,14.86.64,18.76,2.44-3.71,7.39-14.57,7.88-17.18h0a4.34,4.34,0,0,0-.69-3.24,4.39,4.39,0,0,0-2.78-1.81A4.33,4.33,0,0,0,1658.91,1828.76Z"/><path class="cls-8" d="M1653.14,1855.62c-6.14,0-19-4.75-19.61-5.14a7.91,7.91,0,0,1,8-13.64h0c2,1.2,13.69,10.39,14.91,15.25a3.26,3.26,0,0,1-.3,2.55C1655.73,1855.34,1654.63,1855.62,1653.14,1855.62Zm-15.6-16.3a4.67,4.67,0,0,0-1.1.14,4.34,4.34,0,0,0-1.1,7.93c2.39,1.41,13.72,4.4,17.53,4.75-1.52-2.78-10-10.37-13.14-12.22A4.4,4.4,0,0,0,1637.54,1839.32Z"/><path class="cls-7" d="M1465,1853.11l-4.52,3.89-63.83,57.69a6.18,6.18,0,0,0,4.23,10.76l142.94-2a6.83,6.83,0,0,0,6.73-7l-.26-63.28Z"/><path class="cls-11" d="M1396.67,1914.69l2.22-2a6,6,0,0,0,4.18,1.62l143-2a6.74,6.74,0,0,0,4.53-1.84l0,5.94a6.83,6.83,0,0,1-6.73,7l-142.94,2A6.18,6.18,0,0,1,1396.67,1914.69Z"/><path class="cls-8" d="M1417.41,1915.44a1.79,1.79,0,0,1,0-3.58l133-1.16h0a1.79,1.79,0,0,1,0,3.58l-133,1.16Z"/><path class="cls-8" d="M1520.18,1893.68a13.6,13.6,0,0,1-13.32-11h0a13.59,13.59,0,1,1,15.88,10.82A13.86,13.86,0,0,1,1520.18,1893.68Zm-9.8-11.72a10,10,0,0,0,11.69,8,10,10,0,1,0-11.69-8Z"/><path class="cls-8" d="M1472.47,1871.85a1.77,1.77,0,0,1-1.32-.58l-12-13.06a1.79,1.79,0,1,1,2.64-2.42l12,13.06a1.8,1.8,0,0,1-.11,2.53A1.78,1.78,0,0,1,1472.47,1871.85Z"/><path class="cls-8" d="M1462.64,1881.12a1.82,1.82,0,0,1-1.32-.58l-12-13.06a1.79,1.79,0,0,1,2.65-2.42l12,13.06a1.8,1.8,0,0,1-.12,2.53A1.74,1.74,0,0,1,1462.64,1881.12Z"/><path class="cls-8" d="M1453.4,1890.23a1.77,1.77,0,0,1-1.32-.58l-12-13.06a1.79,1.79,0,1,1,2.64-2.42l12,13.06a1.79,1.79,0,0,1-.11,2.53A1.76,1.76,0,0,1,1453.4,1890.23Z"/><path class="cls-8" d="M1472.25,1855.74l-1.13-.38c-4.78-2.43-3.26-22.38-3-23.71a7.91,7.91,0,0,1,15.56,2.88h0c-.48,2.58-7.5,19.28-10.62,20.81Zm3.64-27a4.34,4.34,0,0,0-4.26,3.54c-.65,3.53-.54,14.86.64,18.76,2.44-3.71,7.39-14.57,7.88-17.18h0a4.34,4.34,0,0,0-3.47-5.05A4.22,4.22,0,0,0,1475.89,1828.76Z"/><path class="cls-8" d="M1470.1,1855.62c-6.13,0-18.94-4.75-19.61-5.14a7.91,7.91,0,1,1,8-13.64h0c2,1.2,13.7,10.39,14.92,15.25a3.26,3.26,0,0,1-.3,2.55C1472.7,1855.34,1471.6,1855.62,1470.1,1855.62Zm-15.59-16.29a4.33,4.33,0,0,0-2.2,8.06c2.39,1.41,13.72,4.4,17.53,4.76-1.51-2.79-10-10.39-13.14-12.23h0A4.34,4.34,0,0,0,1454.51,1839.33Z"/><path class="cls-16" d="M1346.55,983.78c-5.77-3.34-12.36-5.11-16.06,2.32-4.3,6.23.4,11,6,14.88-3.82-1.85-7.7-2.3-10.41,2-5.73,7.07-.37,13.72,5.83,17.77-7-2.06-8.9,10-2.51,17.11l32.71,40.1c6.85,8.84,29.42,12.47,36.57,13.79a6.53,6.53,0,0,0,4.38-.68c15.09-8.47,21.11-37.88,16-62.63,0,0-11.44-37.05-17.64-48.74a12.28,12.28,0,0,0-2.42-3.48,4.57,4.57,0,0,0-3.89-1.29c-1.81.37-3,2.09-3.79,3.76-2.46,5.18-3,11-3.46,16.74-3.49-3.58-7.2-7.44-11.2-11.71-9.09-8.4-22.37-24.08-32.66-11.56C1340.73,976.78,1343,980.72,1346.55,983.78Z"/><path class="cls-17" d="M1387.79,995.4l17.84,21.75s-12.91-28.49-16.49-32.12Z"/><path class="cls-18" d="M1358.38,997.21a1.79,1.79,0,0,1-1.3-.55c-4.35-4.55-11.83-12.1-13.38-13a1.79,1.79,0,0,1,1.82-3.09c2.44,1.44,12.21,11.6,14.15,13.63a1.79,1.79,0,0,1-.06,2.53A1.76,1.76,0,0,1,1358.38,997.21Z"/><path class="cls-18" d="M1346.07,1012.76a1.75,1.75,0,0,1-1.27-.53l-10.74-10.84a1.79,1.79,0,0,1,2.55-2.52l10.73,10.84a1.79,1.79,0,0,1-1.27,3Z"/><path class="cls-18" d="M1337.81,1028.22a1.79,1.79,0,0,1-1.25-.51l-5.91-5.71a1.79,1.79,0,1,1,2.48-2.57l5.92,5.71a1.79,1.79,0,0,1-1.24,3.08Z"/><path class="cls-16" d="M1679.52,894.75a32.32,32.32,0,0,1-15.08-10.54l18.73.6a21.27,21.27,0,0,0,7.92-1.25l.26-.09a21.79,21.79,0,0,0,3-1.4l.42-.24a21.54,21.54,0,0,0,2.68-1.84l.32-.27a23.44,23.44,0,0,0,2.43-2.35h0a22.1,22.1,0,0,0,2-2.7c.08-.12.16-.23.23-.35a21.61,21.61,0,0,0,1.46-2.88c.08-.18.15-.37.22-.55a22.09,22.09,0,0,0,1-3.12l.09-.5a22.07,22.07,0,0,0,.42-3.48l0-.5a19.73,19.73,0,0,0-.09-2.56c0-.26-.06-.51-.09-.76a17.38,17.38,0,0,0-.29-1.78c-.05-.26-.11-.52-.17-.77-.16-.63-.34-1.25-.55-1.85-.06-.17-.11-.35-.17-.52a20.75,20.75,0,0,0-1-2.31l0-.07a24,24,0,0,0-1.23-2.07l-.29-.4c-.4-.57-.82-1.13-1.27-1.66l-.29-.33a22.13,22.13,0,0,0-3.81-3.42h0a21.66,21.66,0,0,0-11.74-3.94l-27.51-.88a115.34,115.34,0,0,1,3.09-14.43,13.66,13.66,0,0,0-16.31-16.94c-29.49,7-41,7.31-47.82,6.14-.9-.15-1.72-.33-2.5-.53l-14,72.69c-5.35,24.59,10.64,36.75,34.6,42.85l.31,29.48c.21,20.19,14.68,36.51,32.14,36.26h.72c17.47-.25,34.24-12,34-32.19l-1.89-44.3a16,16,0,0,1-2.61.44Z"/><path class="cls-19" d="M1691.09,883.56a21.81,21.81,0,0,1-3.42.92A21.81,21.81,0,0,0,1691.09,883.56Z"/><path class="cls-18" d="M1686.15,870.6a1.74,1.74,0,0,1-1-.29l-8.87-5.74,9-10a1.79,1.79,0,0,1,2.67,2.38l-6.17,6.9,5.35,3.48a1.78,1.78,0,0,1,.54,2.47A1.8,1.8,0,0,1,1686.15,870.6Z"/><path class="cls-11" d="M1598.87,850.32a4.61,4.61,0,1,0,4.76-4.45A4.61,4.61,0,0,0,1598.87,850.32Z"/><path class="cls-18" d="M1610.47,881.38a17.08,17.08,0,0,1-7.66-2.14,1.79,1.79,0,1,1,1.64-3.19c3.5,1.8,6.5,2.21,8.67,1.19a5,5,0,0,0,2.26-2,1.79,1.79,0,0,1,3.22,1.57,8.62,8.62,0,0,1-4.91,4.09A10.34,10.34,0,0,1,1610.47,881.38Z"/><path class="cls-11" d="M1629.91,840.46c-1.56-.09-3.07-1.14-4.59-2.06s-3.06-1.88-4.43-2.63-3-1.56-4.62-2.31-3.3-1.5-4.2-2.76-.5-3.05,2-4.23,6.89-1.37,11.45,1.11,6.79,6.41,7,9S1631.41,840.56,1629.91,840.46Z"/><path class="cls-18" d="M1607.68,857.59a1.75,1.75,0,0,1-1.19-.45,4.69,4.69,0,0,0-5.9-.19,1.79,1.79,0,0,1-2.06-2.93,8.29,8.29,0,0,1,10.34.45,1.79,1.79,0,0,1-1.19,3.12Z"/><path class="cls-18" d="M1614.12,931.54s29.05,4.16,34.82-6.5h0s1.56,17.47-34.64,23.64Z"/><path class="cls-16" d="M1591,839.41l-2.51,7.63a5.55,5.55,0,0,1-7,3.52h0a2.77,2.77,0,0,0-3.5,1.76h0a9,9,0,0,0,5.7,11.33l3.09,1"/><path class="cls-18" d="M1586.75,866.46a1.87,1.87,0,0,1-.56-.09l-3.09-1a10.77,10.77,0,0,1-6.84-13.59,4.57,4.57,0,0,1,5.77-2.9,3.76,3.76,0,0,0,4.74-2.38l2.51-7.63a1.76,1.76,0,0,1,2.26-1.13,1.78,1.78,0,0,1,1.14,2.26l-2.52,7.62a7.32,7.32,0,0,1-9.26,4.66,1,1,0,0,0-1.24.62,7.19,7.19,0,0,0,4.56,9.07l3.09,1a1.79,1.79,0,0,1-.56,3.49Z"/><path class="cls-8" d="M1608.46,867.7a17.22,17.22,0,1,1,17.21-17.22A17.24,17.24,0,0,1,1608.46,867.7Zm0-30.86a13.64,13.64,0,1,0,13.63,13.64A13.66,13.66,0,0,0,1608.46,836.84Z"/><path class="cls-8" d="M1623.88,848.12a1.79,1.79,0,0,1-.27-3.56l44.73-6.91a1.79,1.79,0,1,1,.55,3.53l-44.74,6.91Z"/><path class="cls-8" d="M1593.6,848.12a1.76,1.76,0,0,1-.83-.21c-2-1.06-5.16-.79-6.2-.6a1.81,1.81,0,0,1-2.09-1.43,1.78,1.78,0,0,1,1.43-2.08c.2,0,5-.92,8.52.94a1.79,1.79,0,0,1-.83,3.38Z"/><path class="cls-11" d="M1676.24,755.74l-26.93-3.54a22.22,22.22,0,0,0-40.11,2.72c-.85.38-1.68.81-2.52,1.23a17.72,17.72,0,0,0-9.68-2.1,17.92,17.92,0,0,0-16.6,19.15,17.71,17.71,0,0,0,1.46,5.73,58.21,58.21,0,0,0-5.49,11.5,21.32,21.32,0,0,0,15,23.18c.69.21,1.4.41,2.15.59s1.6.38,2.5.53c6.85,1.17,18.33.83,47.82-6.14a13.66,13.66,0,0,1,16.31,16.94,115.34,115.34,0,0,0-3.09,14.43l27.51.88a21.66,21.66,0,0,1,11.74,3.94,22.13,22.13,0,0,1,3.81,3.42l.29.33c.45.54.87,1.09,1.27,1.66l.29.4a24,24,0,0,1,1.23,2.07l0,.07a20.75,20.75,0,0,1,1,2.31c.06.17.11.35.17.52.21.6.39,1.22.55,1.85.06.25.12.51.17.77.12.58.22,1.18.29,1.78,0,.25.07.5.09.76a19.73,19.73,0,0,1,.09,2.56l0,.5a22.21,22.21,0,0,1-.42,3.48l-.09.5a21.69,21.69,0,0,1-1,3.12c-.07.18-.14.37-.22.55a21.61,21.61,0,0,1-1.46,2.88c-.07.12-.15.23-.23.35a22.1,22.1,0,0,1-2,2.7h0a23.44,23.44,0,0,1-2.43,2.35l-.32.27a21.54,21.54,0,0,1-2.68,1.84l-.42.24a21.79,21.79,0,0,1-3,1.4l-.26.09a21.27,21.27,0,0,1-7.92,1.25l-18.73-.6a32.32,32.32,0,0,0,15.08,10.54l-2.66,24.67a16,16,0,0,0,2.61-.44,18.34,18.34,0,0,0,3.54-1.16,18,18,0,0,0,9.07-9.18l5.77-13.3a32.43,32.43,0,0,0,22.49-42,22.18,22.18,0,0,0,9.91-17.52C1755.83,792.49,1700.75,759,1676.24,755.74Z"/><path class="cls-20" d="M1880.5,1178s-94.3-172.3-99.81-179.46A93.3,93.3,0,0,0,1708,962.08l-54-.75-61.56-1.59c-9.56,0-37.42,5-44.56,11.39-22.31,19.89-37.63,54.83-46.37,81.73L1483.33,1109l-54.08-62.85a6.6,6.6,0,0,0-8.57-1.25L1357,1085.72a6.07,6.07,0,0,0-1.61,8.72l87.89,118.61c20.94,32.68,66.19,35.12,91,8.34l-15.79,126.55h261.32l8.45-108,63.62-3.32C1881.23,1235.14,1897.38,1202,1880.5,1178Z"/><path class="cls-11" d="M1493.33,1125.81a1.78,1.78,0,0,1-1.43-.71l-16.68-21.91a1.79,1.79,0,1,1,2.85-2.17l16.68,21.92a1.79,1.79,0,0,1-1.42,2.87Z"/><path class="cls-11" d="M1787.23,1255.82h-.2a1.79,1.79,0,0,1-1.59-2l15.94-147.17a1.79,1.79,0,0,1,3.56.38L1789,1254.23A1.78,1.78,0,0,1,1787.23,1255.82Z"/><path class="cls-11" d="M1534.33,1223.21a1.8,1.8,0,0,1-1.49-2.78l56.08-84.94a1.79,1.79,0,1,1,3,2l-56.07,84.94A1.79,1.79,0,0,1,1534.33,1223.21Z"/><rect class="cls-21" x="136.77" y="727.86" width="859.6" height="600.2" rx="6.26"/><path class="cls-15" d="M974,727.86H159.19a22.42,22.42,0,0,0-22.42,22.42v66.39h859.6V750.28A22.42,22.42,0,0,0,974,727.86Z"/><path class="cls-10" d="M996.37,818.46H136.77a1.79,1.79,0,0,1-1.79-1.79V750.28a24.24,24.24,0,0,1,24.21-24.21H974a24.24,24.24,0,0,1,24.21,24.21v66.39A1.79,1.79,0,0,1,996.37,818.46Zm-857.81-3.58h856v-64.6A20.66,20.66,0,0,0,974,729.65H159.19a20.66,20.66,0,0,0-20.63,20.63Z"/><path class="cls-8" d="M848.66,784.29a14,14,0,1,1,14-14A14,14,0,0,1,848.66,784.29Zm0-24.4a10.41,10.41,0,1,0,10.41,10.41A10.42,10.42,0,0,0,848.66,759.89Z"/><path class="cls-8" d="M898.43,784.29a14,14,0,1,1,14-14A14,14,0,0,1,898.43,784.29Zm0-24.4a10.41,10.41,0,1,0,10.41,10.41A10.42,10.42,0,0,0,898.43,759.89Z"/><path class="cls-8" d="M949.7,784.29a14,14,0,1,1,14-14A14,14,0,0,1,949.7,784.29Zm0-24.4a10.41,10.41,0,1,0,10.41,10.41A10.42,10.42,0,0,0,949.7,759.89Z"/><rect class="cls-8" x="176.36" y="848.91" width="780.42" height="438.19" rx="5.1"/><path class="cls-10" d="M938.53,1288.89H194.61a20.06,20.06,0,0,1-20-20.05V867.16a20.06,20.06,0,0,1,20-20H938.53a20.06,20.06,0,0,1,20,20v401.68A20.06,20.06,0,0,1,938.53,1288.89ZM194.61,850.7a16.47,16.47,0,0,0-16.46,16.46v401.68a16.48,16.48,0,0,0,16.46,16.47H938.53A16.48,16.48,0,0,0,955,1268.84V867.16a16.47,16.47,0,0,0-16.46-16.46Z"/><path class="cls-9" d="M396.78,1248.48a173.62,173.62,0,1,1,0-347.23C399,901.25,397.78,1248.48,396.78,1248.48Z"/><path class="cls-22" d="M585,1074.86A173.61,173.61,0,0,0,411.36,901.25c-1.12,0-1.35,84.75-1.17,174.33C410.19,1076.23,585,1075.61,585,1074.86Z"/><path class="cls-22" d="M414.16,1219.61c-2.27,0-2.27,0-2.44-66.17-.05-16.08-.05-32.16,0-44.21,0-21.87,0-21.87,1.94-21.88,128-.25,128.8.57,129.6,1.38a1.8,1.8,0,0,1,.54,1.28C543.77,1161.47,485.63,1219.61,414.16,1219.61Zm1.19-128.68c-.33,14.2,0,111.89.47,125.09a126.16,126.16,0,0,0,124.36-124.45C531.67,1091,485,1090.8,415.35,1090.93Z"/><path class="cls-11" d="M874.27,990.3H638.72a1.79,1.79,0,0,1,0-3.58H874.27a1.79,1.79,0,0,1,0,3.58Z"/><path class="cls-11" d="M752.22,1043.13H638.72a1.79,1.79,0,1,1,0-3.58h113.5a1.79,1.79,0,0,1,0,3.58Z"/><path class="cls-11" d="M873.92,1043.13H771.46a1.79,1.79,0,1,1,0-3.58H873.92a1.79,1.79,0,1,1,0,3.58Z"/><path class="cls-15" d="M1054.06,1105.57c-7.89-.18-14.16,0-14.16,0l-417.12-.48a93,93,0,0,0-91.23,78.16h-.38v2.49a93.67,93.67,0,0,0-.83,12.94l.22,35.56c.17,27.61-10.86,54.51-31.65,72.67a93,93,0,0,1-43.23,21.34c-1.05.21,4.76.31,10.35.44,7.89.18,14.16,0,14.16,0l417.12.48A93,93,0,0,0,988.55,1251h.38v-2.49a93.67,93.67,0,0,0,.83-12.94l-.3-49.24c5.14-39.94,35.94-72.67,75-80.33C1065.46,1105.8,1059.65,1105.7,1054.06,1105.57Z"/><path class="cls-23" d="M1157.88,1105.08H624.43c64.12,0,116.11,54.16,116.11,121v503.71c0,43.17,33.58,78.15,75,78.15h509.33V1279.08C1331.38,1188.09,1280.52,1105.08,1157.88,1105.08Z"/><path class="cls-11" d="M1324.87,1290.25a1.35,1.35,0,0,1-1.35-1.34v-38.43c0-78.46-63.82-142.28-142.27-142.28H623a1.34,1.34,0,1,1,0-2.68h558.27c79.93,0,145,65,145,145v38.43A1.34,1.34,0,0,1,1324.87,1290.25Z"/><path class="cls-15" d="M1445.61,1658.87l-555.6.69.34,54.08c.29,46.89-33.92,87-78.31,95.71-1.09.21,4.92.31,10.69.45,8.15.19,14.63,0,14.63,0l430.88.49c1,0,1.93,0,2.9-.09l79.33.09a96.08,96.08,0,0,0,95.48-96.67Z"/><path class="cls-11" d="M1246.09,1326.22H836a1.79,1.79,0,0,1,0-3.58h410.09a1.79,1.79,0,1,1,0,3.58Z"/><path class="cls-11" d="M1060.6,1240.77H844.15a3.58,3.58,0,1,1,0-7.16H1060.6a3.58,3.58,0,1,1,0,7.16Z"/><path class="cls-11" d="M1033.2,1497.36H836a1.79,1.79,0,1,1,0-3.58h197.2a1.79,1.79,0,0,1,0,3.58Z"/><path class="cls-11" d="M970,1406.48H836a1.79,1.79,0,0,1,0-3.58H970a1.79,1.79,0,0,1,0,3.58Z"/><path class="cls-11" d="M1246.09,1406.48H1016.74a1.79,1.79,0,0,1,0-3.58h229.35a1.79,1.79,0,1,1,0,3.58Z"/><path class="cls-11" d="M970,1594.58H836a1.79,1.79,0,0,1,0-3.58H970a1.79,1.79,0,1,1,0,3.58Z"/><path class="cls-11" d="M1033.2,1594.58h-32.91a1.79,1.79,0,0,1,0-3.58h32.91a1.79,1.79,0,0,1,0,3.58Z"/><rect class="cls-15" x="1077.02" y="1470.56" width="43.03" height="136.69"/><path class="cls-6" d="M1183.5,1609h-43a1.79,1.79,0,0,1-1.79-1.79v-81.81a1.79,1.79,0,0,1,1.79-1.79h43a1.79,1.79,0,0,1,1.79,1.79v81.81A1.79,1.79,0,0,1,1183.5,1609Zm-41.23-3.58h39.44v-78.23h-39.44Z"/><rect class="cls-5" x="1203.06" y="1456.51" width="43.03" height="150.75"/><path class="cls-11" d="M961.25,1031.43l-104.73-108a1.79,1.79,0,0,1,2.58-2.49l102.27,105.5L1075,919.81l134.68,104.43a1.79,1.79,0,1,1-2.2,2.83L1075.22,924.51Z"/><circle class="cls-15" cx="857.81" cy="922.16" r="28.34"/><path class="cls-15" d="M1103.45,922.16a28.34,28.34,0,1,1-28.34-28.34A28.34,28.34,0,0,1,1103.45,922.16Z"/><circle class="cls-15" cx="961.31" cy="1025.66" r="28.34" transform="translate(-205.09 1810.26) rotate(-80.78)"/><circle class="cls-15" cx="1208.58" cy="1025.66" r="28.34" transform="translate(42.94 2099.86) rotate(-82.98)"/></svg>