<svg id="svg" xmlns="http://www.w3.org/2000/svg" xmlns:xlink="http://www.w3.org/1999/xlink" width="400" height="400" viewBox="0, 0, 400,400"><g id="svgg"><path id="path0" d="M146.328 41.837 C 132.314 48.820,124.603 62.410,124.487 80.328 L 124.444 86.879 82.077 87.439 L 39.709 88.000 31.044 93.361 C 24.740 97.261,21.026 101.312,17.412 108.230 L 12.444 117.739 12.483 224.647 C 12.530 351.346,11.939 347.782,34.667 358.457 L 43.556 362.632 200.000 362.610 C 383.467 362.585,372.313 363.933,383.346 340.444 L 387.521 331.556 387.538 224.647 L 387.556 117.739 382.588 108.230 C 378.974 101.312,375.260 97.261,368.956 93.361 L 360.291 88.000 317.923 87.439 L 275.556 86.879 275.513 80.328 C 275.397 62.410,267.686 48.820,253.672 41.837 C 239.622 34.835,160.378 34.835,146.328 41.837 M246.303 66.586 C 249.656 69.939,250.667 72.821,250.667 79.030 L 250.667 87.111 200.000 87.111 L 149.333 87.111 149.333 79.030 C 149.333 72.821,150.344 69.939,153.697 66.586 L 158.061 62.222 200.000 62.222 L 241.939 62.222 246.303 66.586 M358.347 116.408 C 362.722 120.783,362.751 121.032,362.266 149.617 L 361.778 178.418 282.667 201.123 C 239.156 213.611,201.956 223.824,200.000 223.818 C 198.044 223.813,160.844 213.596,117.333 201.114 L 38.222 178.419 37.734 149.617 C 37.249 121.032,37.278 120.783,41.653 116.408 L 46.061 112.000 200.000 112.000 L 353.939 112.000 358.347 116.408 M191.387 179.251 C 187.481 183.566,187.645 192.503,191.696 196.169 C 199.423 203.162,211.556 197.711,211.556 187.247 C 211.556 177.211,198.071 171.865,191.387 179.251 M117.123 226.667 C 208.742 252.857,195.106 251.833,248.362 236.523 C 272.020 229.722,295.617 223.009,300.799 221.606 C 305.982 220.202,321.565 215.767,335.429 211.749 C 349.293 207.732,361.093 204.444,361.651 204.444 C 362.210 204.444,362.667 232.481,362.667 266.747 L 362.667 329.051 358.303 333.414 L 353.939 337.778 200.000 337.778 L 46.061 337.778 41.697 333.414 L 37.333 329.051 37.333 266.747 C 37.333 232.481,37.795 204.444,38.359 204.444 C 38.924 204.444,74.367 214.444,117.123 226.667 " stroke="none" fill="#000000" fill-rule="evenodd"></path></g></svg>