<svg id="svg" xmlns="http://www.w3.org/2000/svg" xmlns:xlink="http://www.w3.org/1999/xlink" width="400" height="400" viewBox="0, 0, 400,400"><g id="svgg"><path id="path0" d="M66.852 1.823 C 60.174 3.851,51.765 11.820,48.670 19.054 C 45.039 27.540,45.039 326.238,48.670 334.724 C 54.852 349.173,64.815 353.778,89.894 353.778 L 108.444 353.778 108.444 376.000 C 108.444 388.222,108.868 398.222,109.386 398.222 C 109.903 398.222,119.880 391.822,131.556 384.000 C 143.231 376.178,153.231 369.778,153.778 369.778 C 154.324 369.778,164.324 376.178,176.000 384.000 C 187.676 391.822,197.652 398.222,198.170 398.222 C 198.688 398.222,199.111 374.222,199.111 344.889 C 199.111 286.820,198.978 286.152,189.711 297.767 C 176.317 314.553,131.239 314.553,117.845 297.767 C 109.922 287.838,108.444 289.376,108.444 307.556 L 108.444 323.556 92.444 323.556 L 76.444 323.556 76.444 176.889 L 76.444 30.222 200.000 30.222 L 323.556 30.222 323.556 176.889 L 323.556 323.556 281.697 323.556 L 239.838 323.556 235.475 327.919 C 228.139 335.255,230.047 346.708,239.439 351.710 C 245.317 354.841,327.145 354.554,334.752 351.376 C 354.861 342.973,354.021 351.033,353.409 172.444 L 352.889 20.444 348.818 14.737 C 346.579 11.598,342.179 7.198,339.040 4.960 L 333.333 0.889 202.667 0.575 C 130.800 0.402,69.683 0.964,66.852 1.823 M119.111 77.673 C 108.009 81.844,104.767 95.481,113.032 103.246 L 117.620 107.556 200.000 107.556 L 282.380 107.556 286.968 103.246 C 293.288 97.308,293.289 87.582,286.969 81.643 L 282.383 77.333 202.080 77.002 C 157.914 76.820,120.578 77.122,119.111 77.673 M112.808 143.030 C 106.871 148.967,106.871 158.588,112.808 164.525 L 117.172 168.889 176.889 168.889 L 236.606 168.889 240.970 164.525 C 243.982 161.513,245.333 158.185,245.333 153.778 C 245.333 149.370,243.982 146.043,240.970 143.030 L 236.606 138.667 176.889 138.667 L 117.172 138.667 112.808 143.030 M142.566 200.683 C 139.081 204.414,136.843 205.466,134.344 204.546 C 125.481 201.285,116.895 207.698,116.543 217.842 C 116.370 222.813,115.195 224.791,110.842 227.438 C 102.294 232.637,101.432 244.109,109.111 250.482 C 111.182 252.201,111.466 253.676,110.185 256.070 C 105.409 264.993,109.904 275.217,119.456 277.159 C 123.947 278.072,126.066 279.903,128.442 284.920 C 131.844 292.106,137.306 294.551,145.366 292.499 C 148.037 291.818,151.822 291.262,153.778 291.262 C 155.733 291.262,159.519 291.818,162.189 292.499 C 170.250 294.551,175.711 292.106,179.113 284.920 C 181.532 279.812,183.584 278.077,188.358 277.106 C 197.034 275.341,199.612 271.152,198.435 260.729 C 197.653 253.810,198.183 251.151,201.139 247.153 C 206.162 240.359,204.324 232.067,196.779 227.478 C 192.359 224.790,191.186 222.830,191.013 217.842 C 190.661 207.698,182.074 201.285,173.211 204.546 C 170.712 205.466,168.474 204.414,164.989 200.683 C 161.420 196.861,158.565 195.556,153.778 195.556 C 148.991 195.556,146.135 196.861,142.566 200.683 M161.271 222.198 C 165.622 222.247,175.978 233.315,177.717 239.774 C 184.218 263.916,154.390 281.031,136.680 263.320 C 120.904 247.545,134.644 217.052,155.556 221.429 C 157.511 221.839,160.083 222.185,161.271 222.198 " stroke="none" fill="#000000" fill-rule="evenodd"></path></g></svg>